<?xml version="1.0" encoding="utf-8"?>
<!-- Generator: Adobe Illustrator 26.0.3, SVG Export Plug-In . SVG Version: 6.00 Build 0)  -->
<svg version="1.1" id="Capa_1" xmlns="http://www.w3.org/2000/svg" xmlns:xlink="http://www.w3.org/1999/xlink" x="0px" y="0px"
	 viewBox="0 0 595.28 124.44" style="enable-background:new 0 0 595.28 124.44;" xml:space="preserve">
<style type="text/css">
	.st0{fill:#2295D3;}
	.st1{fill:#003260;}
	.st2{fill:#DCEEF4;}
	.st3{fill:#0C97D5;}
	.st4{fill:#1B355C;}
	
		.st5{clip-path:url(#SVGID_00000052061706438646946970000000717422443854827964_);fill:url(#SVGID_00000052790220306602638320000003505309320213801346_);}
</style>
<polygon class="st0" points="287.2,0 371.37,124.44 595.28,124.44 595.28,0 "/>
<polygon class="st1" points="263.2,28.74 309.08,96.56 595.28,96.56 595.28,28.74 "/>
<polygon class="st2" points="0,28.74 0,96.56 286.99,96.56 241.12,28.74 "/>
<g>
	<path class="st3" d="M69.59,83.18c-1.21,0-2.56-0.4-3.36-1.26l0.85-0.81c0.9,0.76,1.57,1.03,2.56,1.03c1.39,0,2.02-0.54,2.02-1.08
		c0-0.45-0.36-0.9-1.39-1.12c-0.18-0.04-1.21-0.31-1.39-0.36c-1.35-0.4-2.38-0.9-2.38-2.02c0-1.08,0.99-2.11,3.05-2.11
		c1.21,0,2.29,0.45,3.01,1.21l-0.85,0.9c-0.54-0.63-1.21-0.99-2.2-0.99c-1.39,0-1.93,0.54-1.93,0.99c0,0.49,0.49,0.76,1.75,1.08
		c0.18,0.04,1.03,0.27,1.21,0.31c1.53,0.4,2.2,1.12,2.2,2.11C72.68,82.1,71.83,83.18,69.59,83.18"/>
	<path class="st3" d="M80.71,83.09H79.5l-0.81-1.75l0.04-0.09H74.7l0.04,0.09l-0.81,1.75h-1.21l3.41-7.58h1.08L80.71,83.09z
		 M78.25,80.22l-0.13-0.13l-1.12-2.56l-0.22-0.72l0,0l-0.22,0.72l-1.17,2.6l-0.13,0.09H78.25z"/>
	<polygon class="st3" points="86.73,76.59 82.15,76.59 82.29,76.72 82.29,78.92 82.15,79.01 86.32,79.01 86.32,80.04 82.15,80.04 
		82.29,80.13 82.29,83.09 81.16,83.09 81.16,75.6 86.73,75.6 	"/>
	<path class="st3" d="M94.22,83.09h-1.21l-0.81-1.75l0.04-0.09h-4.04l0.04,0.09l-0.81,1.75h-1.21l3.41-7.54h1.08L94.22,83.09z
		 M91.75,80.22l-0.13-0.13l-1.12-2.56l-0.22-0.72l0,0l-0.22,0.72l-1.17,2.6l-0.13,0.13L91.75,80.22L91.75,80.22z"/>
	<path class="st3" d="M101.4,83.09h-1.26l-0.94-2.02c-0.36-0.72-0.9-0.99-1.84-0.99h-1.7l0.13,0.09v2.92h-1.12V75.6h3.41
		c1.44,0,2.69,0.76,2.69,2.29c0,0.9-0.67,1.66-1.39,1.88l0,0c0.31,0.13,0.67,0.45,0.9,0.9L101.4,83.09z M98.08,76.59h-2.42
		l0.13,0.13v2.24l-0.13,0.13h2.33c1.03,0,1.62-0.54,1.62-1.21C99.56,76.94,98.97,76.59,98.08,76.59"/>
	<rect x="101.8" y="75.6" class="st3" width="1.12" height="7.58"/>
	<path class="st3" d="M112.97,77.48c-0.49-0.63-1.12-0.94-2.11-0.94c-1.88,0-2.69,1.26-2.69,2.87c0,1.57,0.76,2.78,2.69,2.78
		c0.99,0,1.62-0.36,2.15-0.94l0.85,0.81c-0.72,0.81-1.66,1.21-2.92,1.21c-2.56,0-3.81-1.53-3.81-3.81s1.35-3.9,3.81-3.9
		c1.26,0,2.24,0.4,2.92,1.17L112.97,77.48z"/>
	<path class="st3" d="M121.14,83.09h-1.26l-0.94-2.02c-0.36-0.72-0.9-0.99-1.84-0.99h-1.7l0.13,0.09v2.92h-1.12V75.6h3.41
		c1.44,0,2.69,0.76,2.69,2.29c0,0.9-0.67,1.66-1.39,1.88l0,0c0.31,0.13,0.67,0.45,0.9,0.9L121.14,83.09z M117.82,76.59h-2.42
		l0.13,0.13v2.24l-0.13,0.13h2.33c1.03,0,1.62-0.54,1.62-1.21C119.3,76.94,118.67,76.59,117.82,76.59"/>
	<path class="st3" d="M128.04,79.64c0,2.29-1.03,3.54-3.32,3.54s-3.32-1.26-3.32-3.54v-4.08h1.12v4.08c0,1.57,0.58,2.56,2.2,2.56
		c1.62,0,2.2-0.94,2.2-2.56v-4.08h1.12V79.64z"/>
	<rect x="129.26" y="75.6" class="st3" width="1.12" height="7.58"/>
	<path class="st3" d="M134.55,83.18c-1.21,0-2.56-0.4-3.36-1.26l0.85-0.81c0.9,0.76,1.57,1.03,2.56,1.03c1.39,0,2.02-0.54,2.02-1.08
		c0-0.45-0.36-0.9-1.39-1.12c-0.18-0.04-1.21-0.31-1.39-0.36c-1.35-0.4-2.38-0.9-2.38-2.02c0-1.08,0.99-2.11,3.05-2.11
		c1.21,0,2.29,0.45,3.01,1.21l-0.85,0.85c-0.54-0.63-1.21-0.99-2.2-0.99c-1.39,0-1.93,0.54-1.93,0.99c0,0.49,0.49,0.76,1.75,1.08
		c0.18,0.04,1.03,0.27,1.21,0.31c1.53,0.4,2.2,1.12,2.2,2.11C137.69,82.1,136.79,83.18,134.55,83.18"/>
	<polygon class="st3" points="144.2,83.09 138.41,83.09 138.41,75.6 144.2,75.6 144.2,76.59 139.44,76.59 139.57,76.72 
		139.57,78.69 139.44,78.83 143.75,78.83 143.75,79.86 139.44,79.86 139.57,79.95 139.57,81.97 139.44,82.1 144.2,82.1 	"/>
	<path class="st3" d="M148.19,83.18c-1.21,0-2.56-0.4-3.36-1.26l0.85-0.81c0.9,0.76,1.57,1.03,2.56,1.03c1.39,0,2.02-0.54,2.02-1.08
		c0-0.45-0.36-0.9-1.39-1.12c-0.18-0.04-1.21-0.31-1.39-0.36c-1.35-0.4-2.38-0.9-2.38-2.02c0-1.08,0.99-2.11,3.05-2.11
		c1.21,0,2.29,0.45,3.01,1.21l-0.85,0.85c-0.54-0.63-1.21-0.99-2.2-0.99c-1.39,0-1.93,0.54-1.93,0.99c0,0.49,0.49,0.76,1.75,1.08
		c0.18,0.04,1.03,0.27,1.21,0.31c1.53,0.4,2.2,1.12,2.2,2.11C151.33,82.1,150.43,83.18,148.19,83.18"/>
	<rect x="107.95" y="44.24" class="st4" width="5.2" height="25.93"/>
	<path class="st4" d="M125.17,56.53c1.62,0,2.92-1.66,2.92-3.63c0-0.9-0.36-1.75-0.99-2.51c-0.67-0.67-1.97-0.99-3.19-0.99H121v7.13
		v2.15v11.57h-5.2V44.28h8.39c2.87,0,5.2,1.08,6.77,2.65c1.57,1.57,2.51,3.01,2.51,5.88v0.67c0,1.75-0.54,3.36-1.62,4.89
		c-0.9,1.26-1.62,1.79-3.1,2.42l6.19,9.47h-6.33c0,0-4.98-8.12-5.74-9.51C122.12,59.36,122.44,56.53,125.17,56.53"/>
	<rect x="136.48" y="44.24" class="st4" width="5.2" height="25.93"/>
	<path class="st4" d="M157.34,70.35c-3.59,0-6.64-1.26-9.2-3.81c-2.56-2.56-3.81-5.65-3.81-9.24c0-3.59,1.26-6.64,3.81-9.24
		c2.6-2.6,5.61-3.81,9.2-3.81c3.99,0,7.13,1.79,9.24,3.86l-3.68,3.68c-1.53-1.53-3.41-2.29-5.52-2.29c-2.2,0-4.04,0.76-5.52,2.29
		c-1.53,1.53-2.33,3.41-2.33,5.52c0,2.15,0.81,3.99,2.33,5.52c1.53,1.53,3.36,2.29,5.52,2.29c2.2,0,4.04-0.81,5.56-2.29l3.68,3.68
		C164.47,68.64,161.33,70.35,157.34,70.35"/>
	<path class="st4" d="M105.34,54.2c-0.27-5.52-4.89-9.91-10.5-9.91c-5.61,0-10.14,4.4-10.41,9.91v0.49l0,0v15.52h5.2V54.65
		c0-2.87,2.38-5.2,5.25-5.2c2.87,0,5.29,2.33,5.29,5.2v15.52h5.2L105.34,54.2L105.34,54.2z"/>
	<path class="st4" d="M81.97,56.49c0-0.09,0-0.22,0-0.31c0-0.13,0-0.31-0.04-0.45c0-0.13-0.04-0.27-0.04-0.4
		c0-0.09-0.04-0.22-0.04-0.31c-0.04-0.18-0.04-0.31-0.09-0.49c0-0.09-0.04-0.13-0.04-0.22c-0.04-0.18-0.09-0.36-0.13-0.54
		c0-0.04,0-0.09-0.04-0.13c-0.04-0.22-0.09-0.4-0.18-0.63l0,0c-0.13-0.4-0.27-0.85-0.4-1.21c0-0.04,0-0.04-0.04-0.09l0,0
		c-0.63-1.57-1.44-3.05-2.51-4.35c-2.33-2.83-5.7-4.85-9.6-5.43c-0.09,0-0.18-0.04-0.22-0.04c-0.18-0.04-0.36-0.04-0.54-0.09
		c-0.13,0-0.31-0.04-0.45-0.04c-0.13,0-0.22-0.04-0.36-0.04c-0.31,0-0.58-0.04-0.9-0.04c-0.27,0-0.54,0-0.81,0
		c-0.13,0-0.22,0-0.36,0.04c-0.13,0-0.31,0-0.45,0.04c-0.13,0-0.31,0.04-0.45,0.04c-0.09,0-0.22,0.04-0.31,0.04
		c-0.18,0.04-0.36,0.04-0.49,0.09c-0.09,0-0.18,0.04-0.22,0.04c-0.04,0-0.27,0.04-0.45,0.09c-0.04,0-0.09,0.04-0.18,0.04
		c-0.22,0.04-0.4,0.09-0.63,0.18c-0.04,0-0.09,0-0.09,0.04c-0.22,0.04-0.45,0.13-0.67,0.22h-0.04c-5.61,2.06-9.82,7.4-10.23,13.73
		c0.36-0.58,0.76-1.03,1.17-1.48c0.81-0.81,1.84-1.35,2.92-1.57c0.45-0.09,0.9-0.18,1.39-0.18c0.18,0,0.36,0,0.54,0.04
		c1.62-3.63,5.25-6.19,9.51-6.19c5.34,0,9.78,4.08,10.27,9.24c0.04,0.36,0.04,0.76,0.04,1.08c0,0.09,0,0.18,0,0.31l0,0
		c-0.13,4.89-3.63,8.93-8.25,9.87c-0.09,0-0.18,0.04-0.31,0.04c-0.22,0.04-0.49,0.09-0.72,0.09c-0.31,0.09-0.63,0.09-0.99,0.09l0,0
		c-0.31,0-0.63,0-0.9-0.04c-2.56-0.27-4.89-1.48-6.59-3.19c-0.94-0.99-1.75-2.24-2.24-3.59c-0.04-0.13-0.09-0.31-0.13-0.45
		c-0.13-0.54-0.18-2.33,1.62-2.11c0.94,0.13,1.75,1.26,3.63,3.27c3.72,3.9,8.03,3.36,10.05,1.53c-0.22,0.09-5.29,0.9-8.7-4.17
		c-0.58-0.85-1.48-1.88-2.33-2.6c-0.9-0.67-1.84-1.35-3.19-1.7c-0.36-0.09-0.81-0.13-1.17-0.13c-0.36,0-0.76,0.04-1.12,0.13
		c-0.85,0.18-1.66,0.67-2.29,1.21c-0.63,0.63-2.29,2.6-1.79,4.89c0.04,0.18,0.09,0.31,0.13,0.49c0.45,1.79,1.21,3.5,2.33,4.98
		c2.51,3.59,6.55,6.1,11.31,6.51c0.09,0,0.18,0,0.27,0c0.13,0,0.31,0.04,0.45,0.04c0.27,0,0.49,0,0.76,0
		c8.48,0.09,15.43-6.86,15.43-15.43C82.02,56.98,81.97,56.76,81.97,56.49"/>
	<g>
		<g>
			<g>
				<defs>
					<path id="SVGID_1_" d="M55.32,54.51c-0.85,0.18-1.66,0.67-2.29,1.21c-0.63,0.63-2.29,2.6-1.79,4.89
						c0.04,0.18,0.09,0.31,0.13,0.49c0.45,1.79,1.21,3.5,2.33,4.98c1.66,2.42,4.04,4.35,6.77,5.47l4.04-4.22
						c-2.15-0.45-4.13-1.57-5.56-3.01c-0.94-0.99-1.75-2.24-2.24-3.59c-0.04-0.13-0.09-0.31-0.13-0.45
						c-0.13-0.54-0.18-2.33,1.62-2.11c0.94,0.13,1.75,1.26,3.63,3.27c3.72,3.9,8.03,3.36,10.05,1.53c-0.22,0.09-5.29,0.9-8.7-4.17
						c-0.58-0.85-1.48-1.88-2.33-2.6c-0.9-0.67-1.84-1.35-3.19-1.7c-0.36-0.09-0.81-0.13-1.17-0.13c-0.04,0-0.04,0-0.09,0
						C56.09,54.42,55.73,54.42,55.32,54.51 M61.29,53.12c-0.99,0-1.79,0.31-2.29,0.76c2.6,0,3.72,1.62,6.1,4.62
						c4.08,5.2,8.61,2.29,9.29,1.7c-4.89,0.04-5.61-1.97-6.82-3.5C65.33,54.06,63.04,53.12,61.29,53.12L61.29,53.12 M64.25,52.85
						c1.7,0.13,3.63,1.62,4.62,3.41c0.99,1.84,4.44,4.04,7.04,1.79c-1.66,0-2.92-0.13-4.62-2.6c-1.17-1.7-3.1-3.14-5.07-3.14
						C65.51,52.36,64.88,52.49,64.25,52.85 M68.83,51.91c1.17,0.09,2.65,1.35,3.36,2.6c0.72,1.17,2.24,3.01,4.49,1.97
						c-1.57-0.49-2.02-1.12-2.87-2.51c-0.81-1.26-2.29-2.42-3.72-2.42C69.72,51.55,69.27,51.69,68.83,51.91"/>
				</defs>
				<clipPath id="SVGID_00000082349868039249301220000006637445139897424028_">
					<use xlink:href="#SVGID_1_"  style="overflow:visible;"/>
				</clipPath>
				
					<radialGradient id="SVGID_00000167397490911195961260000011494977083103936132_" cx="-991.9888" cy="997.2708" r="0.9153" gradientTransform="matrix(11.5383 -19.8942 30.6793 17.7935 -19087.0293 -37409.5234)" gradientUnits="userSpaceOnUse">
					<stop  offset="0" style="stop-color:#1B355C"/>
					<stop  offset="0.081" style="stop-color:#1B355C"/>
					<stop  offset="0.1651" style="stop-color:#19466F"/>
					<stop  offset="0.3358" style="stop-color:#1274A1"/>
					<stop  offset="0.5591" style="stop-color:#09B7EA"/>
					<stop  offset="0.9227" style="stop-color:#73C7EF"/>
					<stop  offset="1" style="stop-color:#73C7EF"/>
				</radialGradient>
				
					<polygon style="clip-path:url(#SVGID_00000082349868039249301220000006637445139897424028_);fill:url(#SVGID_00000167397490911195961260000011494977083103936132_);" points="
					70.22,82.87 85.43,56.62 57.34,40.29 42.09,66.58 				"/>
			</g>
		</g>
	</g>
</g>
</svg>
