<?xml version="1.0" encoding="utf-8"?>
<!-- Generator: Adobe Illustrator 26.2.1, SVG Export Plug-In . SVG Version: 6.00 Build 0)  -->
<svg version="1.1" id="Capa_1" xmlns="http://www.w3.org/2000/svg" xmlns:xlink="http://www.w3.org/1999/xlink" x="0px" y="0px"
	 viewBox="0 0 280.5 95" style="enable-background:new 0 0 280.5 95;" xml:space="preserve">
<style type="text/css">
	.st0{fill:#0C97D5;}
	.st1{fill:#1B355C;}
	
		.st2{clip-path:url(#SVGID_00000085226618702643723080000015057418069915154062_);fill:url(#SVGID_00000023276283896199634930000006093536116645541273_);}
</style>
<path class="st0" d="M53.3,93.7c-2.7,0-5.7-0.9-7.5-2.8l1.9-1.8c2,1.7,3.5,2.3,5.7,2.3c3.1,0,4.5-1.2,4.5-2.4c0-1-0.8-2-3.1-2.5
	c-0.4-0.1-2.7-0.7-3.1-0.8c-3-0.9-5.3-2-5.3-4.5c0-2.4,2.2-4.7,6.8-4.7c2.7,0,5.1,1,6.7,2.7L58,81.2c-1.2-1.4-2.7-2.2-4.9-2.2
	c-3.1,0-4.3,1.2-4.3,2.2c0,1.1,1.1,1.7,3.9,2.4c0.4,0.1,2.3,0.6,2.7,0.7c3.4,0.9,4.9,2.5,4.9,4.7C60.2,91.3,58.3,93.7,53.3,93.7"/>
<path class="st0" d="M78.1,93.5h-2.7l-1.8-3.9l0.1-0.2h-9l0.1,0.2l-1.8,3.9h-2.7l7.6-16.9h2.4L78.1,93.5z M72.6,87.1l-0.3-0.3
	l-2.5-5.7l-0.5-1.6l0,0l-0.5,1.6l-2.6,5.8l-0.3,0.2H72.6z"/>
<polygon class="st0" points="91.5,79 81.3,79 81.6,79.3 81.6,84.2 81.3,84.4 90.6,84.4 90.6,86.7 81.3,86.7 81.6,86.9 81.6,93.5 
	79.1,93.5 79.1,76.8 91.5,76.8 "/>
<path class="st0" d="M108.2,93.5h-2.7l-1.8-3.9l0.1-0.2h-9l0.1,0.2l-1.8,3.9h-2.7l7.6-16.8h2.4L108.2,93.5z M102.7,87.1l-0.3-0.3
	l-2.5-5.7l-0.5-1.6l0,0l-0.5,1.6l-2.6,5.8l-0.3,0.3L102.7,87.1L102.7,87.1z"/>
<path class="st0" d="M124.2,93.5h-2.8l-2.1-4.5c-0.8-1.6-2-2.2-4.1-2.2h-3.8l0.3,0.2v6.5h-2.5V76.8h7.6c3.2,0,6,1.7,6,5.1
	c0,2-1.5,3.7-3.1,4.2l0,0c0.7,0.3,1.5,1,2,2L124.2,93.5z M116.8,79h-5.4l0.3,0.3v5l-0.3,0.3h5.2c2.3,0,3.6-1.2,3.6-2.7
	C120.1,79.8,118.8,79,116.8,79"/>
<rect x="125.1" y="76.8" class="st0" width="2.5" height="16.9"/>
<path class="st0" d="M150,81c-1.1-1.4-2.5-2.1-4.7-2.1c-4.2,0-6,2.8-6,6.4c0,3.5,1.7,6.2,6,6.2c2.2,0,3.6-0.8,4.8-2.1l1.9,1.8
	c-1.6,1.8-3.7,2.7-6.5,2.7c-5.7,0-8.5-3.4-8.5-8.5c0-5.1,3-8.7,8.5-8.7c2.8,0,5,0.9,6.5,2.6L150,81z"/>
<path class="st0" d="M168.2,93.5h-2.8l-2.1-4.5c-0.8-1.6-2-2.2-4.1-2.2h-3.8l0.3,0.2v6.5h-2.5V76.8h7.6c3.2,0,6,1.7,6,5.1
	c0,2-1.5,3.7-3.1,4.2l0,0c0.7,0.3,1.5,1,2,2L168.2,93.5z M160.8,79h-5.4l0.3,0.3v5l-0.3,0.3h5.2c2.3,0,3.6-1.2,3.6-2.7
	C164.1,79.8,162.7,79,160.8,79"/>
<path class="st0" d="M183.6,85.8c0,5.1-2.3,7.9-7.4,7.9s-7.4-2.8-7.4-7.9v-9.1h2.5v9.1c0,3.5,1.3,5.7,4.9,5.7c3.6,0,4.9-2.1,4.9-5.7
	v-9.1h2.5V85.8z"/>
<rect x="186.3" y="76.8" class="st0" width="2.5" height="16.9"/>
<path class="st0" d="M198.1,93.7c-2.7,0-5.7-0.9-7.5-2.8l1.9-1.8c2,1.7,3.5,2.3,5.7,2.3c3.1,0,4.5-1.2,4.5-2.4c0-1-0.8-2-3.1-2.5
	c-0.4-0.1-2.7-0.7-3.1-0.8c-3-0.9-5.3-2-5.3-4.5c0-2.4,2.2-4.7,6.8-4.7c2.7,0,5.1,1,6.7,2.7l-1.9,1.9c-1.2-1.4-2.7-2.2-4.9-2.2
	c-3.1,0-4.3,1.2-4.3,2.2c0,1.1,1.1,1.7,3.9,2.4c0.4,0.1,2.3,0.6,2.7,0.7c3.4,0.9,4.9,2.5,4.9,4.7C205.1,91.3,203.1,93.7,198.1,93.7"
	/>
<polygon class="st0" points="219.6,93.5 206.7,93.5 206.7,76.8 219.6,76.8 219.6,79 209,79 209.3,79.3 209.3,83.7 209,84 218.6,84 
	218.6,86.3 209,86.3 209.3,86.5 209.3,91 209,91.3 219.6,91.3 "/>
<path class="st0" d="M228.5,93.7c-2.7,0-5.7-0.9-7.5-2.8l1.9-1.8c2,1.7,3.5,2.3,5.7,2.3c3.1,0,4.5-1.2,4.5-2.4c0-1-0.8-2-3.1-2.5
	c-0.4-0.1-2.7-0.7-3.1-0.8c-3-0.9-5.3-2-5.3-4.5c0-2.4,2.2-4.7,6.8-4.7c2.7,0,5.1,1,6.7,2.7l-1.9,1.9c-1.2-1.4-2.7-2.2-4.9-2.2
	c-3.1,0-4.3,1.2-4.3,2.2c0,1.1,1.1,1.7,3.9,2.4c0.4,0.1,2.3,0.6,2.7,0.7c3.4,0.9,4.9,2.5,4.9,4.7C235.5,91.3,233.5,93.7,228.5,93.7"
	/>
<rect x="138.8" y="6.9" class="st1" width="11.6" height="57.8"/>
<path class="st1" d="M177.2,34.3c3.6,0,6.5-3.7,6.5-8.1c0-2-0.8-3.9-2.2-5.6c-1.5-1.5-4.4-2.2-7.1-2.2h-6.5v15.9v4.8v25.8h-11.6V7
	H175c6.4,0,11.6,2.4,15.1,5.9c3.5,3.5,5.6,6.7,5.6,13.1v1.5c0,3.9-1.2,7.5-3.6,10.9c-2,2.8-3.6,4-6.9,5.4L199,64.9h-14.1
	c0,0-11.1-18.1-12.8-21.2C170.4,40.6,171.1,34.3,177.2,34.3"/>
<rect x="202.4" y="6.9" class="st1" width="11.6" height="57.8"/>
<path class="st1" d="M248.9,65.1c-8,0-14.8-2.8-20.5-8.5S219.9,44,219.9,36s2.8-14.8,8.5-20.6c5.8-5.8,12.5-8.5,20.5-8.5
	c8.9,0,15.9,4,20.6,8.6l-8.2,8.2c-3.4-3.4-7.6-5.1-12.3-5.1c-4.9,0-9,1.7-12.3,5.1c-3.4,3.4-5.2,7.6-5.2,12.3
	c0,4.8,1.8,8.9,5.2,12.3s7.5,5.1,12.3,5.1c4.9,0,9-1.8,12.4-5.1l8.2,8.2C264.8,61.3,257.8,65.1,248.9,65.1"/>
<path class="st1" d="M133,29.1c-0.6-12.3-10.9-22.1-23.4-22.1S87,16.8,86.4,29.1v1.1l0,0v34.6H98V30.1c0-6.4,5.3-11.6,11.7-11.6
	s11.8,5.2,11.8,11.6v34.6h11.6L133,29.1L133,29.1z"/>
<path class="st1" d="M80.9,34.2c0-0.2,0-0.5,0-0.7c0-0.3,0-0.7-0.1-1c0-0.3-0.1-0.6-0.1-0.9c0-0.2-0.1-0.5-0.1-0.7
	c-0.1-0.4-0.1-0.7-0.2-1.1c0-0.2-0.1-0.3-0.1-0.5c-0.1-0.4-0.2-0.8-0.3-1.2c0-0.1,0-0.2-0.1-0.3c-0.1-0.5-0.2-0.9-0.4-1.4l0,0
	c-0.3-0.9-0.6-1.9-0.9-2.7c0-0.1,0-0.1-0.1-0.2l0,0c-1.4-3.5-3.2-6.8-5.6-9.7C67.7,7.5,60.2,3,51.5,1.7c-0.2,0-0.4-0.1-0.5-0.1
	c-0.4-0.1-0.8-0.1-1.2-0.2c-0.3,0-0.7-0.1-1-0.1S48.3,1.2,48,1.2c-0.7,0-1.3-0.1-2-0.1c-0.6,0-1.2,0-1.8,0c-0.3,0-0.5,0-0.8,0.1
	c-0.3,0-0.7,0-1,0.1c-0.3,0-0.7,0.1-1,0.1c-0.2,0-0.5,0.1-0.7,0.1c-0.4,0.1-0.8,0.1-1.1,0.2c-0.2,0-0.4,0.1-0.5,0.1
	C39,1.8,38.5,1.9,38.1,2c-0.1,0-0.2,0.1-0.4,0.1c-0.5,0.1-0.9,0.2-1.4,0.4c-0.1,0-0.2,0-0.2,0.1c-0.5,0.1-1,0.3-1.5,0.5h-0.1
	C22,7.7,12.6,19.6,11.7,33.7c0.8-1.3,1.7-2.3,2.6-3.3c1.8-1.8,4.1-3,6.5-3.5c1-0.2,2-0.4,3.1-0.4c0.4,0,0.8,0,1.2,0.1
	c3.6-8.1,11.7-13.8,21.2-13.8c11.9,0,21.8,9.1,22.9,20.6c0.1,0.8,0.1,1.7,0.1,2.4c0,0.2,0,0.4,0,0.7l0,0c-0.3,10.9-8.1,19.9-18.4,22
	c-0.2,0-0.4,0.1-0.7,0.1c-0.5,0.1-1.1,0.2-1.6,0.2C47.9,59,47.2,59,46.4,59l0,0c-0.7,0-1.4,0-2-0.1c-5.7-0.6-10.9-3.3-14.7-7.1
	c-2.1-2.2-3.9-5-5-8c-0.1-0.3-0.2-0.7-0.3-1c-0.3-1.2-0.4-5.2,3.6-4.7c2.1,0.3,3.9,2.8,8.1,7.3c8.3,8.7,17.9,7.5,22.4,3.4
	c-0.5,0.2-11.8,2-19.4-9.3c-1.3-1.9-3.3-4.2-5.2-5.8c-2-1.5-4.1-3-7.1-3.8c-0.8-0.2-1.8-0.3-2.6-0.3c-0.8,0-1.7,0.1-2.5,0.3
	c-1.9,0.4-3.7,1.5-5.1,2.7c-1.4,1.4-5.1,5.8-4,10.9c0.1,0.4,0.2,0.7,0.3,1.1c1,4,2.7,7.8,5.2,11.1c5.6,8,14.6,13.6,25.2,14.5
	c0.2,0,0.4,0,0.6,0c0.3,0,0.7,0.1,1,0.1c0.6,0,1.1,0,1.7,0C65.5,70.5,81,55,81,35.9C81,35.3,80.9,34.8,80.9,34.2"/>
<g>
	<g>
		<defs>
			<path id="SVGID_1_" d="M21.5,29.8c-1.9,0.4-3.7,1.5-5.1,2.7c-1.4,1.4-5.1,5.8-4,10.9c0.1,0.4,0.2,0.7,0.3,1.1
				c1,4,2.7,7.8,5.2,11.1c3.7,5.4,9,9.7,15.1,12.2l9-9.4c-4.8-1-9.2-3.5-12.4-6.7c-2.1-2.2-3.9-5-5-8c-0.1-0.3-0.2-0.7-0.3-1
				c-0.3-1.2-0.4-5.2,3.6-4.7c2.1,0.3,3.9,2.8,8.1,7.3c8.3,8.7,17.9,7.5,22.4,3.4c-0.5,0.2-11.8,2-19.4-9.3
				c-1.3-1.9-3.3-4.2-5.2-5.8c-2-1.5-4.1-3-7.1-3.8c-0.8-0.2-1.8-0.3-2.6-0.3c-0.1,0-0.1,0-0.2,0C23.2,29.6,22.4,29.6,21.5,29.8
				 M34.8,26.7c-2.2,0-4,0.7-5.1,1.7c5.8,0,8.3,3.6,13.6,10.3c9.1,11.6,19.2,5.1,20.7,3.8c-10.9,0.1-12.5-4.4-15.2-7.8
				C43.8,28.8,38.7,26.7,34.8,26.7L34.8,26.7 M41.4,26.1c3.8,0.3,8.1,3.6,10.3,7.6c2.2,4.1,9.9,9,15.7,4c-3.7,0-6.5-0.3-10.3-5.8
				c-2.6-3.8-6.9-7-11.3-7C44.2,25,42.8,25.3,41.4,26.1 M51.6,24c2.6,0.2,5.9,3,7.5,5.8c1.6,2.6,5,6.7,10,4.4
				c-3.5-1.1-4.5-2.5-6.4-5.6c-1.8-2.8-5.1-5.4-8.3-5.4C53.6,23.2,52.6,23.5,51.6,24"/>
		</defs>
		<clipPath id="SVGID_00000088122012703694099760000015171696787411122327_">
			<use xlink:href="#SVGID_1_"  style="overflow:visible;"/>
		</clipPath>
		
			<radialGradient id="SVGID_00000142141678576144236750000007816616265240065461_" cx="-339.348" cy="-16.8583" r="2.0403" gradientTransform="matrix(11.5383 -19.8942 -30.6793 -17.7935 3436.1899 -6986.1685)" gradientUnits="userSpaceOnUse">
			<stop  offset="0" style="stop-color:#1B355C"/>
			<stop  offset="8.102190e-02" style="stop-color:#1B355C"/>
			<stop  offset="0.1651" style="stop-color:#19466F"/>
			<stop  offset="0.3358" style="stop-color:#1274A1"/>
			<stop  offset="0.5591" style="stop-color:#09B7EA"/>
			<stop  offset="0.9227" style="stop-color:#73C7EF"/>
			<stop  offset="1" style="stop-color:#73C7EF"/>
		</radialGradient>
		
			<polygon style="clip-path:url(#SVGID_00000088122012703694099760000015171696787411122327_);fill:url(#SVGID_00000142141678576144236750000007816616265240065461_);" points="
			54.7,93 88.6,34.5 26,-1.9 -8,56.7 		"/>
	</g>
</g>
</svg>
