<?xml version="1.0" encoding="utf-8"?>
<!-- Generator: Adobe Illustrator 26.1.0, SVG Export Plug-In . SVG Version: 6.00 Build 0)  -->
<svg version="1.1" id="Capa_1" xmlns="http://www.w3.org/2000/svg" xmlns:xlink="http://www.w3.org/1999/xlink" x="0px" y="0px"
	 viewBox="0 0 280.5 95" style="enable-background:new 0 0 280.5 95;" xml:space="preserve">
<style type="text/css">
	.st0{fill:#0A98D5;}
	.st1{fill:#FFFFFF;}
	.st2{fill:url(#SVGID_1_);}
</style>
<g>
	<g>
		<g>
			<path class="st0" d="M51,95.2c-2.8,0-5.8-0.9-7.7-2.9l1.9-1.8c2,1.7,3.6,2.4,5.8,2.4c3.2,0,4.6-1.2,4.6-2.5c0-1-0.8-2-3.2-2.6
				c-0.4-0.1-2.8-0.7-3.2-0.8c-3.1-0.9-5.4-2-5.4-4.6c0-2.5,2.3-4.8,7-4.8c2.8,0,5.2,1,6.9,2.8l-1.9,1.9c-1.2-1.4-2.8-2.3-5-2.3
				c-3.2,0-4.4,1.2-4.4,2.3c0,1.1,1.1,1.7,4,2.5c0.4,0.1,2.4,0.6,2.8,0.7c3.5,0.9,5,2.6,5,4.8C58.1,92.7,56.1,95.2,51,95.2z"/>
			<path class="st0" d="M76.5,95h-2.8l-1.8-4l0.1-0.2h-9.2l0.1,0.2l-1.8,4h-2.8l7.8-17.3h2.5L76.5,95z M70.8,88.4l-0.3-0.3l-2.6-5.9
				l-0.5-1.6h0l-0.5,1.6l-2.7,5.9L64,88.4H70.8z"/>
			<path class="st0" d="M90.3,80.1H79.8l0.3,0.3v5l-0.3,0.3h9.5V88h-9.5l0.3,0.3V95h-2.6V77.8h12.8V80.1z"/>
			<path class="st0" d="M107.3,95h-2.8l-1.8-4l0.1-0.2h-9.2l0.1,0.2l-1.8,4h-2.8L97,77.8h2.5L107.3,95z M101.7,88.4l-0.3-0.3
				l-2.6-5.9l-0.5-1.6h0l-0.5,1.6l-2.7,5.9l-0.3,0.3H101.7z"/>
			<path class="st0" d="M123.8,95h-2.9l-2.2-4.6c-0.8-1.6-2-2.3-4.2-2.3h-3.9l0.3,0.2V95h-2.6V77.8h7.8c3.3,0,6.1,1.7,6.1,5.2
				c0,2.1-1.5,3.8-3.2,4.4v0c0.7,0.3,1.5,1,2,2.1L123.8,95z M116.1,80.1h-5.5l0.3,0.3v5.1l-0.3,0.3h5.3c2.4,0,3.7-1.2,3.7-2.8
				C119.6,80.9,118.2,80.1,116.1,80.1z"/>
			<path class="st0" d="M127.2,95h-2.6V77.8h2.6V95z"/>
			<path class="st0" d="M150.2,82.1c-1.1-1.4-2.6-2.2-4.8-2.2c-4.3,0-6.1,2.9-6.1,6.6c0,3.6,1.7,6.4,6.1,6.4c2.3,0,3.7-0.8,4.9-2.2
				l1.9,1.8c-1.6,1.8-3.8,2.8-6.7,2.8c-5.8,0-8.7-3.5-8.7-8.7c0-5.2,3.1-9,8.7-9c2.9,0,5.1,0.9,6.7,2.7L150.2,82.1z"/>
			<path class="st0" d="M168.9,95H166l-2.2-4.6c-0.8-1.6-2-2.3-4.2-2.3h-3.9l0.3,0.2V95h-2.6V77.8h7.8c3.3,0,6.1,1.7,6.1,5.2
				c0,2.1-1.5,3.8-3.2,4.4v0c0.7,0.3,1.5,1,2,2.1L168.9,95z M161.2,80.1h-5.5l0.3,0.3v5.1l-0.3,0.3h5.3c2.4,0,3.7-1.2,3.7-2.8
				C164.7,80.9,163.3,80.1,161.2,80.1z"/>
			<path class="st0" d="M184.7,87.1c0,5.2-2.4,8.1-7.6,8.1c-5.2,0-7.6-2.9-7.6-8.1v-9.3h2.6v9.3c0,3.6,1.3,5.8,5,5.8
				c3.7,0,5-2.2,5-5.8v-9.3h2.6V87.1z"/>
			<path class="st0" d="M189.9,95h-2.6V77.8h2.6V95z"/>
			<path class="st0" d="M199.5,95.2c-2.8,0-5.8-0.9-7.7-2.9l1.9-1.8c2,1.7,3.6,2.4,5.8,2.4c3.2,0,4.6-1.2,4.6-2.5c0-1-0.8-2-3.2-2.6
				c-0.4-0.1-2.8-0.7-3.2-0.8c-3.1-0.9-5.4-2-5.4-4.6c0-2.5,2.3-4.8,7-4.8c2.8,0,5.2,1,6.9,2.8l-1.9,1.9c-1.2-1.4-2.8-2.3-5-2.3
				c-3.2,0-4.4,1.2-4.4,2.3c0,1.1,1.1,1.7,4,2.5c0.4,0.1,2.4,0.6,2.8,0.7c3.5,0.9,5,2.6,5,4.8C206.7,92.7,204.7,95.2,199.5,95.2z"/>
			<path class="st0" d="M221.7,95h-13.2V77.8h13.2v2.4h-10.9l0.3,0.3v4.6l-0.3,0.3h9.9v2.3h-9.9l0.3,0.3v4.6l-0.3,0.3h10.9V95z"/>
			<path class="st0" d="M230.7,95.2c-2.8,0-5.8-0.9-7.7-2.9l1.9-1.8c2,1.7,3.6,2.4,5.8,2.4c3.2,0,4.6-1.2,4.6-2.5c0-1-0.8-2-3.2-2.6
				c-0.4-0.1-2.8-0.7-3.2-0.8c-3.1-0.9-5.4-2-5.4-4.6c0-2.5,2.3-4.8,7-4.8c2.8,0,5.2,1,6.9,2.8l-1.9,1.9c-1.2-1.4-2.8-2.3-5-2.3
				c-3.2,0-4.4,1.2-4.4,2.3c0,1.1,1.1,1.7,4,2.5c0.4,0.1,2.4,0.6,2.8,0.7c3.5,0.9,5,2.6,5,4.8C237.9,92.7,235.9,95.2,230.7,95.2z"/>
		</g>
		<g>
			<g>
				<g>
					<path class="st1" d="M138.7,6.2h11.9v59.4h-11.9V6.2z"/>
					<path class="st1" d="M178.1,34.3c3.7,0,6.7-3.8,6.7-8.3c0-2.1-0.8-4-2.3-5.7c-1.5-1.5-4.5-2.3-7.3-2.3h-6.7v16.3l0,4.9v26.4
						h-11.9l0-59.4h19.3c6.6,0,11.9,2.5,15.5,6c3.6,3.6,5.7,6.9,5.7,13.4v1.5c0,4-1.2,7.7-3.7,11.3c-2.1,2.9-3.7,4.1-7.1,5.5
						l14.2,21.7h-14.5c0,0-11.4-18.6-13.1-21.7C171.1,40.7,171.9,34.3,178.1,34.3z"/>
					<path class="st1" d="M204.1,6.2h11.9v59.4h-11.9V6.2z"/>
					<path class="st1" d="M251.7,65.7c-8.2,0-15.2-2.9-21-8.7c-5.8-5.8-8.7-12.9-8.7-21.1c0-8.2,2.9-15.2,8.7-21.1
						c5.9-5.9,12.9-8.7,21-8.7l0,0c9.1,0,16.3,4.1,21.1,8.8l-8.4,8.4c-3.5-3.5-7.8-5.3-12.7-5.3c-5,0-9.2,1.8-12.6,5.3
						c-3.5,3.5-5.3,7.8-5.3,12.7c0,4.9,1.8,9.2,5.3,12.7c3.5,3.5,7.7,5.2,12.6,5.2c5,0,9.2-1.7,12.7-5.3l8.4,8.4
						C268,61.9,260.8,65.7,251.7,65.7z"/>
				</g>
				<path class="st1" d="M132.8,28.9c-0.6-12.7-11.2-22.7-24-22.7C96,6.2,85.6,16.3,85,28.9l0,0V30c0,0,0,0,0,0l0,0l0,35.5h11.9V30
					l0,0c0-6.6,5.4-11.9,12-11.9c6.6,0,12.1,5.3,12.1,11.9l0,0v35.5h11.9V28.9L132.8,28.9z"/>
			</g>
			<g>
				<path class="st1" d="M79.3,34.1c0-0.2,0-0.5,0-0.7c0-0.3,0-0.7-0.1-1c0-0.3-0.1-0.6-0.1-0.9c0-0.2-0.1-0.5-0.1-0.7
					c-0.1-0.4-0.1-0.7-0.2-1.1c0-0.2-0.1-0.3-0.1-0.5c-0.1-0.4-0.2-0.8-0.3-1.2c0-0.1,0-0.2-0.1-0.3c-0.1-0.5-0.2-0.9-0.4-1.4
					c0,0,0,0,0,0c-0.3-0.9-0.6-1.9-0.9-2.8c0-0.1,0-0.1-0.1-0.2c0,0,0,0,0,0c-1.4-3.6-3.3-7-5.7-9.9c-5.4-6.8-13.1-11.3-22-12.7
					c-0.2,0-0.4-0.1-0.5-0.1c-0.4-0.1-0.8-0.1-1.2-0.2c-0.3,0-0.7-0.1-1-0.1c-0.3,0-0.6-0.1-0.9-0.1c-0.7,0-1.3-0.1-2-0.1
					c0,0,0,0,0,0l0,0c-0.6,0-1.2,0-1.8,0c-0.3,0-0.5,0-0.8,0.1c-0.3,0-0.7,0-1,0.1c-0.3,0-0.7,0.1-1,0.1c-0.2,0-0.5,0.1-0.7,0.1
					c-0.4,0.1-0.8,0.1-1.1,0.2C37.2,0.9,37,1,36.9,1c-0.4,0.1-0.9,0.2-1.3,0.3c-0.1,0-0.3,0.1-0.4,0.1c-0.5,0.1-0.9,0.2-1.4,0.4
					c-0.1,0-0.2,0-0.2,0.1c-0.5,0.1-1,0.3-1.5,0.5c0,0-0.1,0-0.1,0C18.9,7,9.2,19.1,8.3,33.6c0.8-1.3,1.7-2.5,2.7-3.5
					c1.8-1.8,4.2-3.1,6.7-3.6c1-0.2,2.1-0.4,3.2-0.4c0.4,0,0.8,0,1.2,0.1c3.7-8.3,12-14.1,21.7-14.1c12.2,0,22.3,9.3,23.6,21.2
					c0.1,0.8,0.1,1.7,0.1,2.5c0,0.2,0,0.4,0,0.7c0,0,0,0,0,0c-0.3,11.2-8.3,20.4-18.9,22.6c-0.2,0-0.5,0.1-0.7,0.1
					c-0.5,0.1-1.1,0.2-1.6,0.2c-0.8,0.1-1.6,0.1-2.4,0.1c0,0,0,0,0,0h0c-0.7,0-1.4,0-2.1-0.1c-5.8-0.6-11.2-3.4-15.1-7.3
					c-2.2-2.3-4-5.1-5.1-8.3c-0.1-0.3-0.2-0.7-0.3-1c-0.3-1.2-0.4-5.3,3.7-4.8c2.2,0.3,4,2.9,8.3,7.5c8.5,8.9,18.3,7.7,23,3.5
					c-0.5,0.2-12.1,2.1-19.9-9.5c-1.3-1.9-3.4-4.3-5.3-5.9c-2-1.5-4.2-3.1-7.3-3.9c-0.8-0.2-1.8-0.3-2.7-0.3c-0.8,0-1.7,0.1-2.6,0.3
					c-1.9,0.4-3.8,1.5-5.2,2.8c-1.4,1.4-5.2,5.9-4.1,11.2c0.1,0.4,0.2,0.7,0.3,1.1c1,4.1,2.8,8,5.3,11.4
					c5.8,8.4,15.2,14.1,25.9,15.1c0.2,0,0.4,0,0.6,0c0.3,0,0.7,0.1,1,0.1c0.6,0,1.1,0,1.7,0l0,0c0,0,0,0,0,0
					c19.6,0,35.6-15.9,35.6-35.6v0l0,0C79.4,35.3,79.4,34.7,79.3,34.1z"/>
				
					<radialGradient id="SVGID_1_" cx="35.1776" cy="65.6065" r="57.0784" gradientTransform="matrix(0.5395 -0.842 1.5368 0.9846 -84.6249 30.6274)" gradientUnits="userSpaceOnUse">
					<stop  offset="7.091670e-02" style="stop-color:#FFFFFF"/>
					<stop  offset="0.1061" style="stop-color:#F3FAFE"/>
					<stop  offset="0.1702" style="stop-color:#D2EEFA"/>
					<stop  offset="0.2552" style="stop-color:#9ED9F5"/>
					<stop  offset="0.3191" style="stop-color:#72C8F0"/>
					<stop  offset="0.521" style="stop-color:#00B8EA"/>
					<stop  offset="0.6059" style="stop-color:#00A5D7"/>
					<stop  offset="0.7786" style="stop-color:#0075A5"/>
					<stop  offset="0.9913" style="stop-color:#003260"/>
				</radialGradient>
				<path class="st2" d="M61.9,42.7c-1.5,1.2-11.9,8-21.2-3.9c-5.4-6.9-8-10.7-13.9-10.6c3.1-2.9,11.7-3,19.5,6.6
					C49.1,38.2,50.8,42.8,61.9,42.7z M54.8,31.8c-3.7-5.2-10.2-9.3-16.1-6c3.9,0.3,8.3,3.7,10.6,7.8c2.3,4.2,10.2,9.2,16.1,4.1
					C61.7,37.7,58.8,37.4,54.8,31.8z M60.8,28.4c-2.3-3.8-7.4-7-11.4-4.7c2.7,0.2,6,3.1,7.7,5.9c1.6,2.7,5.1,6.9,10.3,4.5
					C63.8,33,62.8,31.5,60.8,28.4z M39.3,59.1c-4.9-1-9.4-3.6-12.7-6.9c-2.2-2.3-4-5.1-5.1-8.3c-0.1-0.3-0.2-0.7-0.3-1
					c-0.3-1.2-0.4-5.3,3.7-4.8c2.2,0.3,4,2.9,8.3,7.5c8.5,8.9,18.3,7.7,23,3.5c-0.5,0.2-12.1,2.1-19.9-9.5c-1.3-1.9-3.4-4.3-5.3-5.9
					c-2-1.5-4.2-3.1-7.3-3.9c-0.8-0.2-1.8-0.3-2.7-0.3c-0.8,0-1.7,0.1-2.6,0.3c-1.9,0.4-3.8,1.5-5.2,2.8c-1.4,1.4-5.2,5.9-4.1,11.2
					c0.1,0.4,0.2,0.7,0.3,1.1c1,4.1,2.8,8,5.3,11.4c3.9,5.5,9.2,9.9,15.5,12.5L39.3,59.1z"/>
			</g>
		</g>
	</g>
</g>
</svg>
