<?xml version="1.0" encoding="utf-8"?>
<!-- Generator: Adobe Illustrator 25.2.3, SVG Export Plug-In . SVG Version: 6.00 Build 0)  -->
<svg version="1.1" id="Capa_1" xmlns="http://www.w3.org/2000/svg" xmlns:xlink="http://www.w3.org/1999/xlink" x="0px" y="0px"
	 viewBox="0 0 370 95" style="enable-background:new 0 0 370 95;" xml:space="preserve">
<style type="text/css">
	.st0{fill:#003E6A;}
	.st1{fill:#867B78;}
</style>
<g>
	<g>
		<path class="st0" d="M119.6,47.5h-9.7l-0.8,2.2c-0.2,0.6-0.4,1.2-0.5,1.8c-0.1,0.6-0.2,1.2-0.2,1.8c0,1.5,0.8,2.3,2.4,2.4v1.5H101
			v-1.5c0.6-0.1,1.1-0.3,1.5-0.6c0.4-0.3,0.8-0.8,1.2-1.4c0.4-0.6,0.7-1.4,1.1-2.5l9.5-25.4h6.1l7.5,25.6c0.3,1.1,0.6,2,0.8,2.4
			c0.2,0.5,0.5,0.9,0.9,1.2c0.4,0.3,0.9,0.5,1.5,0.7v1.5h-12.6v-1.5c0.8-0.1,1.4-0.3,1.8-0.7c0.4-0.4,0.6-0.8,0.6-1.5
			c0-0.5-0.1-1-0.2-1.6c-0.1-0.6-0.3-1.3-0.5-2.2L119.6,47.5z M110.7,44.8h8.2l-3.7-12.9L110.7,44.8z"/>
		<path class="st0" d="M136.1,57.1v-1.5c0.6-0.1,1.1-0.2,1.5-0.4c0.4-0.2,0.7-0.4,0.8-0.7c0.2-0.3,0.3-0.7,0.3-1.2
			c0-0.5,0.1-1.1,0.1-1.8V28.6H137c-0.9,0-1.6,0.1-2.1,0.3c-0.5,0.2-0.9,0.5-1.3,1c-0.4,0.5-0.7,1.1-0.9,1.8
			c-0.3,0.8-0.5,1.5-0.6,2.2H129v-8h26.9v8h-3.1c-0.3-1-0.5-1.8-0.7-2.3c-0.2-0.5-0.4-0.9-0.6-1.2c-0.2-0.3-0.4-0.6-0.7-0.9
			c-0.2-0.2-0.5-0.4-0.7-0.5c-0.3-0.1-0.6-0.2-1-0.3c-0.4-0.1-0.9-0.1-1.5-0.1H146v22.8c0,0.8,0,1.4,0.1,1.8c0,0.4,0.1,0.8,0.3,1
			c0.1,0.3,0.3,0.5,0.4,0.6c0.2,0.2,0.4,0.3,0.7,0.4c0.3,0.1,0.7,0.2,1.3,0.3v1.5H136.1z"/>
		<path class="st0" d="M180.5,26.7v6.6h-3.1c-0.4-1.7-0.9-3-1.7-3.8c-0.8-0.8-1.8-1.2-3.1-1.2c-2.4,0-4.2,1.2-5.5,3.5
			c-1.2,2.3-1.8,5.7-1.8,10.3c0,4.2,0.6,7.4,1.7,9.6c1.1,2.2,2.8,3.3,5,3.3c1.1,0,2-0.2,2.7-0.6c0.7-0.4,1.3-0.9,1.7-1.7
			c0.4-0.7,0.8-1.8,1.1-3.2h3.1v6.9c-1.7,0.4-3.2,0.7-4.6,0.9c-1.4,0.2-2.8,0.3-4.3,0.3c-3.2,0-5.8-0.6-7.8-1.7
			c-2-1.1-3.5-2.9-4.4-5.2c-1-2.3-1.4-5.2-1.4-8.8c0-3.3,0.6-6.2,1.7-8.6c1.1-2.4,2.8-4.3,4.9-5.7c2.2-1.3,4.8-2,7.8-2
			c1.5,0,2.9,0.1,4.2,0.3C177.8,26,179.1,26.3,180.5,26.7z"/>
		<path class="st0" d="M216.7,26.7v6.6h-3.1c-0.4-1.7-0.9-3-1.7-3.8c-0.8-0.8-1.8-1.2-3.1-1.2c-2.4,0-4.2,1.2-5.5,3.5
			c-1.2,2.3-1.8,5.7-1.8,10.3c0,4.2,0.6,7.4,1.7,9.6c1.1,2.2,2.8,3.3,5,3.3c1.1,0,2-0.2,2.7-0.6c0.7-0.4,1.3-0.9,1.7-1.7
			c0.4-0.7,0.8-1.8,1.1-3.2h3.1v6.9c-1.7,0.4-3.2,0.7-4.6,0.9c-1.4,0.2-2.8,0.3-4.3,0.3c-3.2,0-5.8-0.6-7.8-1.7
			c-2-1.1-3.5-2.9-4.4-5.2c-1-2.3-1.4-5.2-1.4-8.8c0-3.3,0.6-6.2,1.7-8.6c1.1-2.4,2.8-4.3,4.9-5.7c2.2-1.3,4.8-2,7.8-2
			c1.5,0,2.9,0.1,4.2,0.3C214.1,26,215.4,26.3,216.7,26.7z"/>
		<path class="st0" d="M232.4,57.1h-12v-1.5c0.6-0.2,1-0.3,1.3-0.5c0.3-0.2,0.6-0.4,0.7-0.7c0.2-0.3,0.3-0.7,0.3-1.2
			c0-0.5,0.1-1.1,0.1-1.8V31.7c0-0.7,0-1.3-0.1-1.8c0-0.5-0.1-0.9-0.3-1.2c-0.2-0.3-0.4-0.6-0.7-0.7c-0.3-0.2-0.8-0.4-1.4-0.5V26
			h13.3c1.8,0,3.3,0.1,4.6,0.4c1.3,0.3,2.4,0.6,3.3,1.2c0.8,0.4,1.5,1,2,1.6c0.5,0.6,1,1.4,1.3,2.3c0.3,0.9,0.4,1.9,0.4,3
			c0,1.5-0.3,2.8-0.8,3.8c-0.5,1.1-1.2,2-2.1,2.7c-0.9,0.7-2.1,1.4-3.6,2v0.2c1.1,0.5,2.1,1.1,2.8,2c0.7,0.8,1.4,1.8,2,3.1l1.4,3.1
			c0.6,1.4,1.3,2.4,1.9,3.1c0.6,0.7,1.4,1.1,2.2,1.3v1.5h-8.8c-0.9-1.2-1.9-3-3-5.4l-1.8-3.9c-0.5-1.2-1-2-1.4-2.5
			c-0.4-0.5-0.8-0.8-1.2-1c-0.4-0.2-1-0.3-1.9-0.3H230v7.4c0,1.1,0.1,1.9,0.2,2.4c0.1,0.5,0.3,0.8,0.6,1.1c0.3,0.3,0.9,0.5,1.7,0.7
			V57.1z M230,28.7v12.7h2.3c1.2,0,2.2-0.2,3-0.5c0.8-0.3,1.4-0.8,1.9-1.4c0.5-0.6,0.8-1.3,1-2.1c0.2-0.8,0.3-1.7,0.3-2.6
			c0-2.1-0.5-3.6-1.5-4.7c-1-1-2.4-1.6-4.3-1.6C231.2,28.6,230.4,28.7,230,28.7z"/>
		<path class="st0" d="M269.7,31.7c0-1.1,0-1.9-0.1-2.4c-0.1-0.4-0.3-0.8-0.6-1.1c-0.3-0.3-0.9-0.5-1.7-0.8V26h10v1.5
			c-0.5,0.2-1,0.3-1.3,0.5c-0.3,0.2-0.6,0.4-0.7,0.7c-0.2,0.3-0.3,0.7-0.3,1.2c0,0.5-0.1,1.1-0.1,1.8V46c0,1.9-0.2,3.5-0.5,4.7
			c-0.3,1.3-0.8,2.3-1.4,3.2c-0.6,0.9-1.4,1.6-2.4,2.1c-1,0.5-2,0.9-3.2,1.1c-1.2,0.2-2.5,0.3-4,0.3c-2.2,0-4-0.2-5.5-0.7
			c-1.5-0.4-2.7-1.1-3.6-2c-0.9-0.9-1.6-2-2.1-3.3c-0.4-1.3-0.7-3-0.7-5V31.7c0-0.7,0-1.3-0.1-1.8c0-0.5-0.1-0.9-0.3-1.2
			c-0.2-0.3-0.4-0.6-0.7-0.7c-0.3-0.2-0.8-0.4-1.4-0.5V26h12v1.5c-0.6,0.2-1.1,0.3-1.4,0.5c-0.3,0.2-0.5,0.4-0.7,0.7
			c-0.2,0.3-0.3,0.6-0.3,1.1c-0.1,0.4-0.1,1.1-0.1,1.9v15.1c0,1.2,0.1,2.3,0.2,3.3c0.2,1,0.4,1.8,0.8,2.5c0.4,0.7,1,1.3,1.7,1.6
			c0.7,0.4,1.6,0.6,2.8,0.6c1.6,0,2.7-0.3,3.5-0.9c0.8-0.6,1.3-1.5,1.6-2.6c0.3-1.1,0.5-2.8,0.5-5V31.7z"/>
		<path class="st0" d="M290.3,51.4c0,0.5,0,1,0,1.5c0,0.5,0.1,0.8,0.2,1.1c0.1,0.3,0.2,0.5,0.4,0.7c0.2,0.2,0.4,0.4,0.7,0.5
			c0.3,0.1,0.7,0.3,1.1,0.4v1.5h-12v-1.5c0.6-0.2,1-0.3,1.3-0.5c0.3-0.2,0.6-0.4,0.7-0.7c0.2-0.3,0.3-0.7,0.3-1.2
			c0-0.5,0.1-1.1,0.1-1.8V31.7c0-0.7,0-1.3-0.1-1.8c0-0.5-0.1-0.9-0.3-1.2c-0.2-0.3-0.4-0.6-0.7-0.7c-0.3-0.2-0.8-0.4-1.4-0.5V26h12
			v1.5c-0.6,0.2-1.1,0.3-1.4,0.5c-0.3,0.2-0.5,0.4-0.7,0.7c-0.2,0.3-0.3,0.6-0.3,1.1c-0.1,0.4-0.1,1.1-0.1,1.9V51.4z"/>
		<path class="st0" d="M299.5,49.4c0.4,1.8,1,3.2,1.9,4.1s2.2,1.3,3.9,1.3c0.9,0,1.7-0.2,2.4-0.5c0.7-0.3,1.3-0.8,1.7-1.5
			c0.4-0.7,0.7-1.5,0.7-2.5c0-0.9-0.2-1.8-0.5-2.5c-0.4-0.7-0.9-1.4-1.7-2c-0.8-0.6-1.9-1.3-3.2-2c-1.2-0.6-2.3-1.2-3.2-1.8
			c-1-0.6-1.8-1.3-2.5-2.1c-0.7-0.8-1.2-1.6-1.6-2.5c-0.4-0.9-0.6-1.9-0.6-3.1c0-1.9,0.5-3.5,1.4-4.8c0.9-1.3,2.3-2.3,4-3
			c1.8-0.7,3.8-1,6.1-1c1.4,0,2.6,0.1,3.9,0.2c1.2,0.1,2.6,0.4,4.2,0.8v6.6h-3.1c-0.3-1.2-0.7-2.2-1.1-2.9c-0.4-0.7-1-1.2-1.7-1.6
			c-0.7-0.3-1.5-0.5-2.5-0.5c-0.9,0-1.6,0.2-2.3,0.5c-0.7,0.3-1.2,0.8-1.6,1.4c-0.4,0.6-0.6,1.3-0.6,2.2c0,0.9,0.2,1.6,0.5,2.3
			c0.3,0.6,0.9,1.3,1.7,1.9c0.8,0.6,2,1.3,3.5,2.1c1.9,1,3.3,1.9,4.4,2.9c1.1,0.9,1.9,2,2.4,3.1c0.5,1.1,0.8,2.4,0.8,3.8
			c0,1.9-0.4,3.5-1.3,4.9c-0.9,1.4-2.1,2.4-3.8,3.2c-1.7,0.7-3.6,1.1-5.8,1.1c-1.6,0-3.2-0.1-4.9-0.3c-1.7-0.2-3.3-0.4-4.7-0.8v-7
			H299.5z"/>
		<path class="st0" d="M342.9,26v7.3h-3.1c-0.5-1.4-0.9-2.4-1.3-2.9c-0.4-0.5-0.8-0.9-1.3-1.2c-0.5-0.3-1.3-0.4-2.5-0.4h-5v11h3
			c0.7,0,1.2-0.1,1.6-0.3c0.4-0.2,0.7-0.5,0.9-0.9c0.3-0.4,0.5-1.1,0.7-2.1h2.6v9.3H336c-0.2-0.9-0.4-1.6-0.7-2
			c-0.3-0.5-0.6-0.8-0.9-1c-0.4-0.2-0.9-0.3-1.6-0.3h-3v12.2h5c0.5,0,1,0,1.3-0.1c0.4-0.1,0.7-0.2,1-0.4c0.3-0.2,0.6-0.4,0.8-0.7
			c0.3-0.3,0.5-0.6,0.7-0.9c0.2-0.3,0.4-0.8,0.7-1.3c0.2-0.5,0.5-1.3,0.8-2.3h3.1l-0.4,8.3h-22.4v-1.5c0.6-0.2,1-0.3,1.3-0.5
			c0.3-0.2,0.6-0.4,0.7-0.7c0.2-0.3,0.3-0.7,0.3-1.2c0-0.5,0.1-1.1,0.1-1.8V31.7c0-0.7,0-1.3-0.1-1.8c0-0.5-0.1-0.9-0.3-1.2
			c-0.2-0.3-0.4-0.6-0.7-0.7c-0.3-0.2-0.8-0.4-1.4-0.5V26H342.9z"/>
		<path class="st0" d="M349.7,49.4c0.4,1.8,1,3.2,1.9,4.1s2.2,1.3,3.9,1.3c0.9,0,1.7-0.2,2.4-0.5c0.7-0.3,1.3-0.8,1.7-1.5
			c0.4-0.7,0.7-1.5,0.7-2.5c0-0.9-0.2-1.8-0.5-2.5c-0.4-0.7-0.9-1.4-1.7-2c-0.8-0.6-1.9-1.3-3.2-2c-1.2-0.6-2.3-1.2-3.2-1.8
			c-1-0.6-1.8-1.3-2.5-2.1c-0.7-0.8-1.2-1.6-1.6-2.5c-0.4-0.9-0.6-1.9-0.6-3.1c0-1.9,0.5-3.5,1.4-4.8c0.9-1.3,2.3-2.3,4-3
			s3.8-1,6.1-1c1.4,0,2.6,0.1,3.9,0.2c1.2,0.1,2.6,0.4,4.2,0.8v6.6h-3.1c-0.3-1.2-0.7-2.2-1.1-2.9c-0.4-0.7-1-1.2-1.7-1.6
			c-0.7-0.3-1.5-0.5-2.5-0.5c-0.9,0-1.6,0.2-2.3,0.5c-0.7,0.3-1.2,0.8-1.6,1.4c-0.4,0.6-0.6,1.3-0.6,2.2c0,0.9,0.2,1.6,0.5,2.3
			c0.3,0.6,0.9,1.3,1.7,1.9c0.8,0.6,2,1.3,3.5,2.1c1.9,1,3.3,1.9,4.4,2.9c1.1,0.9,1.9,2,2.4,3.1c0.5,1.1,0.8,2.4,0.8,3.8
			c0,1.9-0.4,3.5-1.3,4.9c-0.9,1.4-2.1,2.4-3.8,3.2c-1.7,0.7-3.6,1.1-5.8,1.1c-1.6,0-3.2-0.1-4.9-0.3c-1.7-0.2-3.3-0.4-4.7-0.8v-7
			H349.7z"/>
	</g>
	<g>
		<path class="st1" d="M168.5,64v1.9h-0.9c-0.1-0.4-0.2-0.7-0.3-0.9c-0.1-0.2-0.3-0.4-0.5-0.5s-0.5-0.1-0.8-0.1
			c-0.4,0-0.8,0.1-1.2,0.4c-0.3,0.3-0.6,0.7-0.8,1.3c-0.2,0.6-0.3,1.3-0.3,2.2c0,0.8,0.1,1.4,0.2,2c0.1,0.6,0.3,1,0.6,1.3
			c0.3,0.3,0.6,0.5,1,0.5c0.4,0,0.7-0.1,0.9-0.3c0.2-0.2,0.3-0.6,0.3-1.1v-0.3c0-0.3,0-0.6,0-0.7c0-0.1-0.1-0.3-0.1-0.3
			c0-0.1-0.1-0.1-0.2-0.2c-0.1,0-0.2-0.1-0.4-0.2v-0.4h3.4v0.4c-0.2,0.1-0.4,0.1-0.5,0.2c-0.1,0.1-0.1,0.2-0.2,0.3
			c0,0.1,0,0.3,0,0.6v2.5l-1,0.2l-0.5-0.5c-0.5,0.3-1.1,0.5-1.8,0.5c-1.3,0-2.3-0.4-2.9-1.1c-0.6-0.8-1-1.9-1-3.4
			c0-0.8,0.1-1.5,0.3-2.1c0.2-0.6,0.5-1.1,0.9-1.5c0.4-0.4,0.9-0.7,1.4-0.8c0.5-0.2,1-0.3,1.6-0.3C166.8,63.7,167.7,63.8,168.5,64z"
			/>
		<path class="st1" d="M183.1,70h-2.8l-0.2,0.6c-0.1,0.2-0.1,0.3-0.2,0.5c0,0.2-0.1,0.3-0.1,0.5c0,0.4,0.2,0.7,0.7,0.7v0.4h-2.8
			v-0.4c0.2,0,0.3-0.1,0.4-0.2c0.1-0.1,0.2-0.2,0.3-0.4c0.1-0.2,0.2-0.4,0.3-0.7l2.8-7.4h1.8l2.2,7.4c0.1,0.3,0.2,0.6,0.2,0.7
			c0.1,0.1,0.2,0.3,0.3,0.3c0.1,0.1,0.3,0.2,0.4,0.2v0.4h-3.7v-0.4c0.2,0,0.4-0.1,0.5-0.2c0.1-0.1,0.2-0.2,0.2-0.4
			c0-0.1,0-0.3,0-0.5c0-0.2-0.1-0.4-0.2-0.6L183.1,70z M180.5,69.3h2.4l-1.1-3.7L180.5,69.3z"/>
		<path class="st1" d="M198.9,63.8v0.4c-0.2,0-0.3,0.1-0.4,0.1c-0.1,0.1-0.2,0.1-0.2,0.2c-0.1,0.1-0.1,0.2-0.1,0.3
			c0,0.1,0,0.3,0,0.5v6.6h1.3c0.3,0,0.5,0,0.6-0.1c0.2-0.1,0.3-0.2,0.4-0.4c0.1-0.2,0.2-0.4,0.3-0.7c0.1-0.3,0.1-0.5,0.2-0.8h0.9
			l-0.1,2.7h-6.3v-0.4c0.2,0,0.3-0.1,0.4-0.1c0.1-0.1,0.2-0.1,0.2-0.2c0-0.1,0.1-0.2,0.1-0.3c0-0.1,0-0.3,0-0.5v-5.7
			c0-0.2,0-0.4,0-0.5c0-0.1,0-0.3-0.1-0.3c0-0.1-0.1-0.2-0.2-0.2c-0.1-0.1-0.2-0.1-0.4-0.2v-0.4H198.9z"/>
		<path class="st1" d="M215.8,70h-2.8l-0.2,0.6c-0.1,0.2-0.1,0.3-0.2,0.5c0,0.2-0.1,0.3-0.1,0.5c0,0.4,0.2,0.7,0.7,0.7v0.4h-2.8
			v-0.4c0.2,0,0.3-0.1,0.4-0.2c0.1-0.1,0.2-0.2,0.3-0.4c0.1-0.2,0.2-0.4,0.3-0.7l2.8-7.4h1.8l2.2,7.4c0.1,0.3,0.2,0.6,0.2,0.7
			c0.1,0.1,0.2,0.3,0.3,0.3c0.1,0.1,0.3,0.2,0.4,0.2v0.4h-3.7v-0.4c0.2,0,0.4-0.1,0.5-0.2c0.1-0.1,0.2-0.2,0.2-0.4
			c0-0.1,0-0.3,0-0.5c0-0.2-0.1-0.4-0.2-0.6L215.8,70z M213.2,69.3h2.4l-1.1-3.7L213.2,69.3z"/>
		<path class="st1" d="M230.9,71.2c0,0.3,0,0.5,0,0.6c0,0.1,0.1,0.2,0.1,0.3c0.1,0.1,0.1,0.1,0.2,0.2c0.1,0,0.2,0.1,0.4,0.1v0.4
			h-3.6v-0.4c0.2,0,0.3-0.1,0.4-0.1c0.1-0.1,0.2-0.1,0.2-0.2c0-0.1,0.1-0.2,0.1-0.3c0-0.1,0-0.3,0-0.5v-5.7c0-0.2,0-0.4,0-0.5
			c0-0.1,0-0.3-0.1-0.3c0-0.1-0.1-0.2-0.2-0.2c-0.1-0.1-0.2-0.1-0.4-0.2v-0.4h3.9c1.1,0,2,0.2,2.5,0.6c0.6,0.4,0.8,1,0.8,1.9
			c0,0.6-0.1,1.1-0.4,1.5c-0.3,0.4-0.6,0.8-1.1,1c-0.5,0.2-1.1,0.3-1.9,0.3c-0.4,0-0.8,0-1.1,0V71.2z M230.9,68.3h0.6
			c0.4,0,0.8-0.1,1.1-0.2c0.3-0.1,0.5-0.3,0.6-0.6c0.1-0.3,0.2-0.6,0.2-1.1c0-0.5-0.1-0.8-0.2-1.1c-0.1-0.3-0.3-0.5-0.6-0.6
			c-0.2-0.1-0.6-0.2-0.9-0.2c-0.3,0-0.6,0-0.7,0V68.3z"/>
		<path class="st1" d="M248.1,70h-2.8l-0.2,0.6c-0.1,0.2-0.1,0.3-0.2,0.5c0,0.2-0.1,0.3-0.1,0.5c0,0.4,0.2,0.7,0.7,0.7v0.4h-2.8
			v-0.4c0.2,0,0.3-0.1,0.4-0.2c0.1-0.1,0.2-0.2,0.3-0.4c0.1-0.2,0.2-0.4,0.3-0.7l2.8-7.4h1.8l2.2,7.4c0.1,0.3,0.2,0.6,0.2,0.7
			c0.1,0.1,0.2,0.3,0.3,0.3c0.1,0.1,0.3,0.2,0.4,0.2v0.4h-3.7v-0.4c0.2,0,0.4-0.1,0.5-0.2c0.1-0.1,0.2-0.2,0.2-0.4
			c0-0.1,0-0.3,0-0.5c0-0.2-0.1-0.4-0.2-0.6L248.1,70z M245.5,69.3h2.4l-1.1-3.7L245.5,69.3z"/>
		<path class="st1" d="M267.1,64v1.9h-0.9c-0.1-0.4-0.2-0.7-0.3-0.9c-0.1-0.2-0.3-0.4-0.5-0.5c-0.2-0.1-0.5-0.1-0.8-0.1
			c-0.4,0-0.8,0.1-1.2,0.4c-0.3,0.3-0.6,0.7-0.8,1.3c-0.2,0.6-0.3,1.3-0.3,2.2c0,0.8,0.1,1.4,0.2,2c0.1,0.6,0.3,1,0.6,1.3
			c0.3,0.3,0.6,0.5,1,0.5c0.4,0,0.7-0.1,0.9-0.3c0.2-0.2,0.3-0.6,0.3-1.1v-0.3c0-0.3,0-0.6,0-0.7c0-0.1-0.1-0.3-0.1-0.3
			c0-0.1-0.1-0.1-0.2-0.2c-0.1,0-0.2-0.1-0.4-0.2v-0.4h3.4v0.4c-0.2,0.1-0.4,0.1-0.5,0.2c-0.1,0.1-0.1,0.2-0.2,0.3
			c0,0.1,0,0.3,0,0.6v2.5l-1,0.2l-0.5-0.5c-0.5,0.3-1.1,0.5-1.8,0.5c-1.3,0-2.3-0.4-2.9-1.1c-0.6-0.8-1-1.9-1-3.4
			c0-0.8,0.1-1.5,0.3-2.1c0.2-0.6,0.5-1.1,0.9-1.5c0.4-0.4,0.9-0.7,1.4-0.8c0.5-0.2,1-0.3,1.6-0.3C265.4,63.7,266.3,63.8,267.1,64z"
			/>
		<path class="st1" d="M281.1,73c-1.3,0-2.3-0.4-2.9-1.1c-0.7-0.8-1-1.9-1-3.4c0-1,0.2-1.8,0.5-2.6c0.3-0.7,0.8-1.2,1.4-1.6
			c0.6-0.4,1.3-0.6,2.2-0.6c1.3,0,2.3,0.4,3,1.1c0.7,0.8,1,1.9,1,3.4c0,0.8-0.1,1.6-0.3,2.2c-0.2,0.6-0.5,1.1-0.8,1.5
			c-0.4,0.4-0.8,0.7-1.3,0.9C282.3,72.9,281.7,73,281.1,73z M279.3,68.2c0,1.3,0.2,2.3,0.5,3c0.3,0.7,0.8,1,1.5,1
			c0.3,0,0.6-0.1,0.9-0.3c0.2-0.2,0.4-0.4,0.6-0.8c0.1-0.3,0.3-0.7,0.3-1.2c0.1-0.5,0.1-0.9,0.1-1.5c0-0.9-0.1-1.6-0.2-2.2
			c-0.1-0.6-0.3-1-0.6-1.3c-0.3-0.3-0.6-0.5-1.1-0.5c-0.6,0-1.1,0.3-1.4,0.9C279.4,66,279.3,66.9,279.3,68.2z"/>
		<path class="st1" d="M295.5,70.6c0.1,0.5,0.3,0.9,0.6,1.2c0.3,0.3,0.6,0.4,1.1,0.4c0.3,0,0.5,0,0.7-0.1c0.2-0.1,0.4-0.2,0.5-0.4
			c0.1-0.2,0.2-0.4,0.2-0.7c0-0.3-0.1-0.5-0.2-0.7c-0.1-0.2-0.3-0.4-0.5-0.6c-0.2-0.2-0.5-0.4-0.9-0.6c-0.3-0.2-0.7-0.4-0.9-0.5
			c-0.3-0.2-0.5-0.4-0.7-0.6c-0.2-0.2-0.3-0.5-0.5-0.7c-0.1-0.3-0.2-0.6-0.2-0.9c0-0.5,0.1-1,0.4-1.4c0.3-0.4,0.7-0.7,1.2-0.9
			c0.5-0.2,1.1-0.3,1.8-0.3c0.4,0,0.8,0,1.1,0.1c0.4,0,0.8,0.1,1.2,0.2v1.9h-0.9c-0.1-0.4-0.2-0.6-0.3-0.8c-0.1-0.2-0.3-0.4-0.5-0.5
			c-0.2-0.1-0.4-0.1-0.7-0.1c-0.3,0-0.5,0-0.7,0.1c-0.2,0.1-0.4,0.2-0.5,0.4c-0.1,0.2-0.2,0.4-0.2,0.6c0,0.3,0,0.5,0.1,0.7
			c0.1,0.2,0.3,0.4,0.5,0.6c0.2,0.2,0.6,0.4,1,0.6c0.5,0.3,1,0.6,1.3,0.8c0.3,0.3,0.5,0.6,0.7,0.9c0.1,0.3,0.2,0.7,0.2,1.1
			c0,0.5-0.1,1-0.4,1.4c-0.3,0.4-0.6,0.7-1.1,0.9c-0.5,0.2-1,0.3-1.7,0.3c-0.5,0-0.9,0-1.4-0.1c-0.5-0.1-0.9-0.1-1.4-0.2v-2H295.5z"
			/>
	</g>
	<g>
		<path class="st0" d="M107.3,71.1c-11-2.8-22.6-4.1-32.7-1.5c-5.1,1.3-9.5,3.2-13.7,5.4C53,79.2,46.4,86.1,35.3,87
			c-10.7,0.8-18.4-5-24.4-9.3c13.7,3.5,27-2.2,36.1-7.3c4-2.3,7.7-4.8,12-6.3C75.2,58,96.1,62.3,107.3,71.1"/>
		<path class="st0" d="M93.2,77.5c-12-0.9-20.6,2.4-28.1,7.6c-5.8,4.1-10.4,8.2-18.3,8.8c-6,0.5-11.3-0.8-16.4-2.9
			C37,90.2,42.5,90,47.5,88c6.9-2.8,11.7-8.6,17.8-11.2C73.1,73.4,85.5,73.4,93.2,77.5"/>
		<path class="st1" d="M44.9,1.1c-17.4,0-34.6,10-41.9,24.6c11.7,0.7,23.6,8,31.7,20.5c3.8-0.1,9.5,0.6,12.2,2.7
			c5.8-5.1,4.5-14.4,13.6-15.6c4.9-0.6,8.1-1.6,13.2-2.4c0.8-0.1,1.4-0.5,3,0.3c2.4,1.2,2.4,5.3,2,8.5c-0.2,1-0.8,1-1.7,0.7
			c-5-1.6-11.1,1.7-15.3,1.4c0.7,0.5,1.5,0.7,2.3,0.8l1.3-0.1c2.9-0.4,6.2-2.1,8.9-1.7l0,0c0.8,0,1.6,0.5,1.6,0.5s0.1,0.1,0.2,0.2
			c0,0,0,0,0.1,0c0,0,0,0,0,0c0.3,0.3,0.8,1-0.3,1.7c-0.4,0.2-14.6,3.2-16.6,11.2c0.9-0.1,1.9-0.2,2.8-0.3c8-1.1,16.4-0.3,23.8,1.8
			C86.5,52.5,87,49,87,45.4C87,20.9,69.3,1.1,44.9,1.1 M68.5,34.7c0.4-0.1,0.7,0.1,0.8,0.2c0.2,0.3-0.1,0.4,0.6,0.5
			c-0.1-0.2-0.5-0.7-0.5-0.7c-1.3-1.2-4.8-0.7-6,1c1.8,0.8,4.8,2.7,6.4,0.7c-1.1-0.4-1.9,1-2.4,0C67.3,35.7,67.9,34.8,68.5,34.7
			 M3.9,66.9c0.6,1.2,1.3,2.3,2.1,3.4c7.8,1.6,15.4,0.4,22.1-1.9c-1.2-9.8,7.2-14.1,7.2-14.1c5,3.7,7.9-1.2,10.6-3.9
			C39.2,46.9,30.8,43.8,3.9,66.9"/>
	</g>
</g>
</svg>
