<?xml version="1.0" encoding="utf-8"?>
<!-- Generator: Adobe Illustrator 24.3.0, SVG Export Plug-In . SVG Version: 6.00 Build 0)  -->
<svg version="1.1" id="Layer_1" xmlns="http://www.w3.org/2000/svg" xmlns:xlink="http://www.w3.org/1999/xlink" x="0px" y="0px"
	 viewBox="0 0 107.7 104.6" style="enable-background:new 0 0 107.7 104.6;" xml:space="preserve">
<style type="text/css">
	.st0{fill:#CE5200;stroke:#A63900;stroke-width:0.2507;}
	.st1{fill:#FFB900;}
</style>
<g>
	<path class="st0" d="M29.9,20.7c4,0,6-0.3,9.8-0.9c3.7-0.6,7.7-1,11.3-0.3c3.2,0.6,6.8,1.4,9.9,2.5c3.5,1.2,4.7,3.1,6.2,6.1
		c1.7,3.3,2.8,5.4,3.2,9.2c0.4,3.6,0,7.9,0.9,11.4c1.1,4.2,3.1,4.6,7,5.4c3,0.6,6,2.5,6.9,5.7c1,3.4,0.3,8.4,0,11.8
		c-0.3,3.8-0.2,7.6-1.2,11.1c-1,3.6-3.5,5.1-6.9,5.4c-3.8,0.4-7,1.3-10.9,0.5c-3.6-0.8-7.7,0.3-11.4-0.5c-2.8-0.6-6-2.7-8.6-3.7
		s-6.3-2.1-8.6-4c-1.2-1.1-1.7-2.7-2-4.1c-0.4-1.7-1.2-3.1-1.5-4.7c-0.4-1.9,0.5-4,0.5-5.7c0-1.8-0.4-3.6-0.7-5.3
		c-0.7-3.3-2.5-5.9-5.7-7.4c-3-1.5-7.3-1.4-10-3.3c-2.8-1.9-3.6-6.2-3.3-9.3C15.2,36,17,30.8,19,26.9c0.9-1.8,2.1-3.8,4-4.7
		c2.7-1.3,5.6-1.4,7.2-1.5"/>
	<path class="st0" d="M32.2,12.6c-0.1-1,0.6-1.4,1.1-2.2c0.4-0.7,0.6-1.3,1.1-2c0.9-1.3,1.6-2.5,2.3-3.9c0.6-1.1,1.9-2.3,3-3
		c1.7-1,2,1,2.7,2.3c0.8,1.5,1.7,2.8,2.6,4.3c0.4,0.7,3.2,4.5,1.1,4.6c0,0.1,0,0.1,0,0.2C44,13.5,41,13.1,39,13
		C36.8,12.9,34.5,12.7,32.2,12.6"/>
	<path class="st0" d="M18.4,3.3c2.5,1.4,5,3.4,6.3,6c0.6,1.3,1.6,3,0.7,4.5c-0.7,1.3-2.9,1.8-4.2,2.2c-1.6,0.4-3.2,0.9-4.8,1.1
		c-2.2,0.3-2.7-1.2-2.6-3.1c0.1-1.7,0-3.6,0.2-5.3s1-2.9,1.3-4.5c0.1,0,0.1,0,0.2,0c0.3-1.4,2.1-1.5,3-0.8"/>
	<path class="st0" d="M1.4,23.6c0.6-0.2,1-0.8,1.5-0.9c0.6-0.2,1.6,0,2.2,0c1.4,0,2.5,0.2,3.8,0.5c1.2,0.2,2.3,0.6,3.4,0.8
		c1.2,0.3,2.5,0.1,3.7,0.6c-0.3,0.7-1,1.3-1.3,2.2c-0.4,0.8-0.6,1.5-1.1,2.3s-0.8,1.6-1.3,2.4c-0.4,0.7-1.4,1.2-1.6,2
		C9.4,34.2,8.8,36.1,7,35c-1.1-0.7-1.7-2.2-2.6-3.2c-1-1.2-2-2-2.9-3.2c-0.7-1-1.7-3.2-0.7-4.3c0.1-0.1,0.4-0.3,0.5-0.4"/>
	<path class="st1" d="M29.4,28c1.7-0.2,3.4-0.1,5.3-0.2c1.7-0.1,3.3-0.5,5.1-0.7c3.8-0.3,7.6-0.1,11.5,0.1c1.7,0.1,3.5,0.4,4.8,1.2
		c1.3,0.8,1.7,2.2,2.3,3.5c1.3,2.9,1.9,6.2,2.5,9.4c0.6,3-1.5,5.9-3.8,7.7c-1.3,0.9-2.4,1.7-3.8,2.1c-1.9,0.6-3.5,0.1-5.4-0.4
		c-3.4-0.9-7.3-1.3-10.8-1.7c-1.9-0.2-3.7-0.5-5.5-0.9c-1.5-0.3-3.7-0.8-4.7-2.1c-1.1-1.4-0.9-3.7-1.1-5.4c-0.2-1.9-0.1-3.8-0.3-5.6
		C25.1,31.7,25.3,27.9,29.4,28"/>
	<path class="st0" d="M44.6,34.3c0.7-0.4,1.5-0.4,2.3-0.6c0.8-0.2,1.5-0.6,2.3-0.6c1.1,0,3.1,1.5,2.9,2.9c-0.3,1.6-3,1.6-4.3,1.4
		c-1.6-0.3-2.7-1.6-4-2.3c0-0.2,0-0.4,0-0.5C44,34.5,44.4,34.3,44.6,34.3"/>
	<path class="st0" d="M31.9,32.7c1.4-0.3,2.9,0.3,4,0.9c0.7,0.4,2.5,1.1,1.9,2.2c-0.3,0.3-0.7,0.5-1,0.9c-2.1,0.6-5.2,0.7-7.3,0
		C27.3,36,30.7,33.1,31.9,32.7"/>
	<path class="st0" d="M36.8,41.1c1.9,0,3.6,0.3,5.4,0.2c1.4-0.1,4.6-0.5,5.7,0.2c1.4,0.9,0,2.8-1.2,3.3c-1.5,0.7-4.4-0.2-6-0.2
		c-1.3-0.1-3.8-0.2-4.8-0.9c-1.4-0.9-1.1-3.7,1-2.6"/>
	<path class="st1" d="M55.7,56.4c1.9,0,3.9,0,5.8,0.1c1.7,0.1,3.7,0,5.4,0.3c2.9,0.6,7.6,0.3,9.2,3c0.9,1.5,0.8,3,0.9,4.8
		c0.1,1.6,0.8,3.2,1.1,4.7c0.4,1.6,1.3,3.2,0.7,4.9c-0.4,1.4-1.3,2.6-2.3,3.7s-1.5,2.2-2.8,3c-1.5,1-3,1.1-4.9,1.1s-3.8,0-5.6,0.1
		c-2,0.1-3.8-0.4-5.7-0.5C54,81.8,51,81.8,47.9,80c-2.7-1.6-4.4-4.2-4.8-7.2c-0.6-3.5-2.1-7.1-1.3-10.9c0.7-3.2,4.2-4.7,7.2-5.3
		C50.9,56.2,53.7,55.8,55.7,56.4"/>
	<path class="st0" d="M66.3,73c1.2-0.6,3.8-0.4,5.1,0.1c0.9,0.4,3.2,1.7,2.1,2.9c-0.8,0.8-4.1,0.4-5.1,0.2c-1.5-0.2-2.8-1.3-2.7-2.9
		C65.8,73.2,66.1,73,66.3,73"/>
	<path class="st0" d="M58.1,60.9c1.1,0,9.9,1.2,8.6,3c-0.6,0.8-4.4,0.1-5.3,0c-1.8-0.2-3.8-0.1-5.6-0.1c-1.1,0-6.5,0.3-4.4-2.1
		C52.5,60.6,56.5,60.9,58.1,60.9"/>
	<path class="st0" d="M55,71.8c1.4,0,3.1,0.8,3.7,2.1c0.9,2-1.4,2.5-2.8,2.8c-1.7,0.3-3.1,0.1-4.4-1.1c-1.7-1.5-0.2-2.6,1.2-3.1
		C53.3,72.2,54.4,72.1,55,71.8"/>
	<path class="st0" d="M92.3,78.6c0.1-2,1-8,3.6-8c0.8,0,1.3,0.6,2,0.8c0.7,0.3,1.5,0.4,2.1,0.7c1.2,0.7,2.1,2,2.8,3.1
		c1.2,2,4.3,6.9,0.1,7c-1.9,0.1-3.5-0.6-5.3-1c-1.5-0.4-3.3-0.7-4.6-1.6c-0.3-0.3-0.7-0.6-0.8-1"/>
	<path class="st0" d="M95,87.4c0.3,0.1,0.1,0,0.4,0.2c0.1,1.4,1.4,2.6,1.9,3.8c0.5,1.3,0.9,3.4,0.9,4.8c0,0.7,0,1.8-0.6,2.3
		s-1.8,0.2-2.5,0.1c-1.7-0.3-3.3-0.8-5.1-1.2c-2.5-0.5-8-0.8-9-3.5c-0.7-1.7,1.5-2.1,2.7-2.5c1.5-0.5,2.8-1.1,4.2-1.9
		c1.2-0.7,2.3-1.3,3.4-2C92.7,86.9,93.6,86.5,95,87.4"/>
	<path class="st0" d="M66.7,92.8c3,0,6.3,1.7,6.5,4.9c0.1,1.5-1.3,2.9-2.2,4c-0.8,1-2,2.1-3.2,2.5c-1.7,0.6-2.9,0.2-4-1.2
		c-0.9-1.1-1.7-2.4-2.5-3.7c-1.2-1.8-3.6-7.3-0.1-8.1C63.2,90.9,65.1,92.1,66.7,92.8"/>
</g>
</svg>
