<?xml version="1.0" encoding="utf-8"?>
<!-- Generator: Adobe Illustrator 25.2.3, SVG Export Plug-In . SVG Version: 6.00 Build 0)  -->
<svg version="1.1" id="Capa_1" xmlns="http://www.w3.org/2000/svg" xmlns:xlink="http://www.w3.org/1999/xlink" x="0px" y="0px"
	 viewBox="0 0 37 37" style="enable-background:new 0 0 37 37;" xml:space="preserve">
<style type="text/css">
	.st0{fill:#B2B2B2;}
	.st1{fill:none;stroke:#B2B2B2;stroke-width:3;stroke-linecap:square;stroke-linejoin:round;stroke-miterlimit:10;}
</style>
<g>
	<path class="st0" d="M15.8,32.4c0.3-0.1,0.5-0.1,0.7-0.2c0.5-0.2,1-0.4,1.5-0.6c0.3-0.2,0.6-0.1,0.9,0.1c1,0.9,2.5,1.1,3.7,0.4
		c1.2-0.7,1.9-2,1.7-3.3C24,27.4,23,26.3,21.6,26c-1.9-0.4-3.7,1-3.9,2.9c0,0.4-0.2,0.6-0.5,0.7c-1.1,0.5-2.3,0.9-3.6,1
		C14.3,31.3,14.9,31.8,15.8,32.4c-0.5,0.1-0.8,0.1-1.1,0.2c-1.4,0.2-2.8,0.1-4.1-0.5c-2.8-1.3-3.7-4.4-2-7c0.2-0.3,0.5-0.6,0.7-0.9
		c0.1-0.1,0.2-0.2,0.1-0.4c-1.2-2.4-0.6-5.2,1.3-6.9c0,0,0,0,0,0c0.6-0.3,0.8-0.9,0.9-1.5c0.8-4.1,4.4-7.1,8.6-7.1
		c1.2,0,2.5,0,3.7,0.2c3.6,0.9,6.2,3.8,6.7,7.6c0,0.1,0.1,0.3,0.2,0.3c3.5,2.4,3.2,7.3,0.1,9.7c-0.3,0.2-0.5,0.5-0.6,0.8
		c-1.1,4.3-5.1,7.2-9.5,7.1c-1.7-0.1-3.2-0.5-4.7-1.4C15.9,32.5,15.9,32.4,15.8,32.4z M21,17.1c-0.5,0-1.1,0-1.6,0c-1.7,0-3.4,0-5,0
		c-1.3,0-2.5,0.5-3.2,1.7c-1.4,2.3-0.4,5.4,2.2,6.3C15.4,26,18,25,19.2,23c0.2-0.3,0.4-0.6,0.6-0.8c0.7-0.8,1.7-0.8,2.4,0
		c0.3,0.3,0.5,0.6,0.7,1c1.3,2.2,4.6,3,6.7,1.5c2-1.4,2.5-4.4,1-6.2c-0.8-1-1.8-1.3-3.1-1.3C25.3,17.1,23.2,17.1,21,17.1z
		 M13.7,30.6c0-0.1,0-0.1,0-0.1c-1-1.2-1.6-2.5-2-4c0-0.1,0-0.1-0.1-0.2c-0.3-0.2-0.6-0.4-0.9-0.7c-0.3,0.5-0.6,0.9-0.8,1.4
		c-0.3,0.8-0.2,1.6,0.4,2.3C11.1,30.4,12.3,30.6,13.7,30.6z"/>
	<path class="st0" d="M21,30.9c-0.9,0-1.7-0.8-1.6-1.7c0-0.9,0.8-1.6,1.7-1.6c0.9,0,1.7,0.8,1.7,1.7C22.6,30.1,21.9,30.9,21,30.9z"
		/>
	<path class="st0" d="M30.8,8.4c0.7,0,1.3,0.6,1.3,1.3c0,0.7-0.6,1.4-1.3,1.4c-0.8,0-1.4-0.6-1.4-1.4C29.4,9,30,8.4,30.8,8.4z"/>
	<path class="st0" d="M32.6,12c0.5,0,0.9,0.4,0.8,0.9c0,0.5-0.4,0.9-0.9,0.8c-0.5,0-0.8-0.4-0.8-0.9C31.7,12.4,32.1,12,32.6,12z"/>
	<path class="st0" d="M32.6,5.8c0.4,0,0.8,0.3,0.8,0.8c0,0.4-0.3,0.8-0.8,0.8c-0.4,0-0.8-0.3-0.8-0.8C31.9,6.1,32.2,5.8,32.6,5.8z"
		/>
</g>
<path class="st1" d="M3.6,11.1L3.6,11.1c1.5,1.1,2.8,2.5,3.9,4.1l0.2,0.3l0.1-0.2c2-4.4,4-7.7,8.1-11.3l0,0"/>
</svg>
