<?xml version="1.0" encoding="utf-8"?>
<!-- Generator: Adobe Illustrator 25.3.1, SVG Export Plug-In . SVG Version: 6.00 Build 0)  -->
<svg version="1.1" id="Capa_1" xmlns="http://www.w3.org/2000/svg" xmlns:xlink="http://www.w3.org/1999/xlink" x="0px" y="0px"
	 viewBox="0 0 950 267.4" style="enable-background:new 0 0 950 267.4;" xml:space="preserve">
<style type="text/css">
	.st0{clip-path:url(#SVGID_2_);fill:#DDDDDD;}
	.st1{clip-path:url(#SVGID_2_);fill:#E6E6E6;}
</style>
<g>
	<defs>
		<rect id="SVGID_1_" y="-37.6" width="950" height="360"/>
	</defs>
	<clipPath id="SVGID_2_">
		<use xlink:href="#SVGID_1_"  style="overflow:visible;"/>
	</clipPath>
	<path class="st0" d="M559.8,242.7c-13.1,0-24.3-5.4-31.6-9c-4.2-2-7.2-3.5-9.5-3.5c-2.3,0-5.3,1.5-9.5,3.5c-7.4,3.6-18.5,9-31.6,9
		c-13.3,0-24.6-5.5-32-9.1c-4.2-2.1-7-3.4-9.1-3.4c-2.1,0-4.9,1.4-9.1,3.4c-7.5,3.6-18.7,9.1-32,9.1c-1.2,0-2.2,1-2.2,2.2
		c0,1.2,1,2.2,2.2,2.2c14.3,0,26.1-5.8,33.9-9.6c3-1.5,6.1-3,7.2-3c1.1,0,4.2,1.5,7.2,3c7.8,3.8,19.6,9.6,33.9,9.6
		c14.1,0,25.8-5.7,33.5-9.5c3.3-1.6,6.3-3.1,7.6-3.1c1.3,0,4.4,1.5,7.6,3.1c7.7,3.8,19.4,9.5,33.5,9.5c1.2,0,2.2-1,2.2-2.2
		C561.9,243.7,561,242.7,559.8,242.7z"/>
	<path class="st0" d="M410.1,225.3c0-1.2-1-2.2-2.2-2.2c-13.1,0-24.3-5.4-31.6-9c-4.2-2-7.2-3.5-9.5-3.5c-2.3,0-5.3,1.5-9.5,3.5
		c-7.4,3.6-18.5,9-31.6,9c-13.3,0-24.6-5.5-32-9.1c-4.2-2.1-7-3.4-9.1-3.4c-2.1,0-4.9,1.4-9.1,3.4c-7.5,3.6-18.7,9.1-32,9.1
		c-1.2,0-2.2,1-2.2,2.2s1,2.2,2.2,2.2c14.3,0,26.1-5.8,33.9-9.6c3-1.5,6.1-3,7.2-3c1.1,0,4.2,1.5,7.2,3c7.8,3.8,19.6,9.6,33.9,9.6
		c14.1,0,25.8-5.7,33.5-9.5c3.3-1.6,6.3-3.1,7.6-3.1c1.3,0,4.4,1.5,7.6,3.1c7.7,3.8,19.4,9.5,33.5,9.5
		C409.1,227.5,410.1,226.5,410.1,225.3z"/>
	<path class="st0" d="M733.1,223.1c-13.1,0-24.3-5.4-31.6-9c-4.2-2-7.2-3.5-9.5-3.5c-2.3,0-5.3,1.5-9.5,3.5c-7.4,3.6-18.5,9-31.6,9
		c-13.3,0-24.6-5.5-32-9.1c-4.2-2-7-3.4-9.1-3.4c-2.1,0-4.9,1.4-9.1,3.4c-7.5,3.6-18.7,9.1-32,9.1c-1.2,0-2.2,1-2.2,2.2
		s1,2.2,2.2,2.2c14.3,0,26.1-5.8,33.9-9.6c3-1.5,6.1-3,7.2-3c1.1,0,4.2,1.5,7.2,3c7.8,3.8,19.6,9.6,33.9,9.6
		c14.1,0,25.8-5.7,33.5-9.5c3.3-1.6,6.3-3.1,7.6-3.1c1.3,0,4.4,1.5,7.6,3.1c7.7,3.8,19.4,9.5,33.5,9.5c1.2,0,2.2-1,2.2-2.2
		S734.3,223.1,733.1,223.1z"/>
	<path class="st0" d="M275.8,183c7.3-4.4,14.8-9.1,28.5-9.1c24.5,0,27.6,16.4,49.1,16.4c21.5,0,26.6-14.2,42.9-14.2
		c16.4,0,21.5,14.2,42.9,14.2c21.5,0,28.9-12.5,42.9-12.5c0.1,0,0.3,0,0.4,0c1,0.1,2.1,0.2,3.2,0.3c11.9,1.8,19.8,12.2,39.4,12.2
		c21.5,0,30.5-6.3,42.9-6.3c7,0,12.9,2,20.4,3.7c0.1-0.3,0.2-0.7,0.3-1l2.8-11.8c1.1-0.2,2.1-0.5,3.1-0.7c2.8-0.6,5.1-1.1,6.1-1.1
		c1,0,3.4,0.5,6.1,1.1c6.7,1.5,17.9,3.9,30.7,3.9c12.4,0,22.7-1.6,29.6-2.7c3.3-0.5,5.9-0.9,7.3-0.9c1.4,0,4,0.4,7.3,0.9
		c6.8,1.1,17.2,2.7,29.6,2.7h21.9c1.2,0,2.2-1,2.2-2.2c0-1.2-1-2.2-2.2-2.2h-21.9c-12.1,0-22.2-1.6-28.9-2.7c-3.6-0.6-6.2-1-7.9-1
		c-1.7,0-4.3,0.4-7.9,1c-6.7,1.1-16.8,2.7-28.9,2.7c-12.4,0-22.9-2.3-29.8-3.8c-3.4-0.7-5.6-1.2-7-1.2c-1.4,0-3.7,0.5-7,1.2
		c-0.5,0.1-1,0.2-1.5,0.3c0-1.5-0.2-3.1-0.6-4.6l-5.9-21.5c-1-3.8-4.1-6.6-7.8-7.4v-14.3c0-0.6-0.5-1.1-1.1-1.1h-72.1
		c-0.6,0-1.1,0.5-1.1,1.1v14H214.7l56.3,43C272.6,180.8,274.1,181.9,275.8,183z M553.9,123.7h21.9v12.9c0,0-0.1,0-0.1,0h-21.7V123.7
		z M529.8,123.7h21.9v12.9h-21.9V123.7z M505.8,123.7h21.9v12.9h-21.9V123.7z"/>
	<path class="st1" d="M696.8,197.3c-13.2,0-23.7-2-31.3-3.4c-4.8-0.9-8.6-1.6-11.6-1.6c-3.1,0-6.8,0.7-11.6,1.6
		c-7.6,1.4-18.1,3.4-31.3,3.4c-11.9,0-19.9-2-26.9-3.7c-5.6-1.4-10.4-2.6-16-2.6c-5.6,0-10.5,1.2-16,2.6c-7,1.7-15,3.7-26.9,3.7
		c-11.4,0-18.4-3.6-25.3-7c-5.6-2.8-10.9-5.5-17.7-5.5c-6.8,0-12.1,2.7-17.7,5.5c-6.8,3.5-13.9,7-25.3,7c-10.9,0-17.3-3.8-23.5-7.5
		c-5.5-3.3-11.2-6.7-19.5-6.7c-8.2,0-13.9,3.4-19.4,6.7c-6.2,3.7-12.6,7.5-23.5,7.5c-9.8,0-15.5-3.6-21.6-7.5
		c-7-4.4-14.2-8.9-27.4-8.9c-13.9,0-21.9,4.8-28.9,9c-6.3,3.8-12.3,7.4-21.9,7.4c-1.2,0-2.2,1-2.2,2.2c0,1.2,1,2.2,2.2,2.2
		c10.9,0,17.6-4.1,24.2-8c6.9-4.1,14-8.4,26.7-8.4c12,0,18.4,4,25.1,8.3c6.4,4,12.9,8.1,23.9,8.1c12.1,0,19.3-4.3,25.7-8.1
		c5.5-3.3,10.2-6.1,17.2-6.1c7,0,11.8,2.8,17.2,6.1c6.4,3.8,13.6,8.1,25.7,8.1c12.4,0,20.3-4,27.2-7.5c5.3-2.7,10-5,15.7-5
		c5.7,0,10.4,2.3,15.7,5c7,3.5,14.8,7.5,27.2,7.5c12.4,0,20.7-2,27.9-3.8c5.3-1.3,9.9-2.4,15-2.4s9.7,1.1,15,2.4
		c7.3,1.8,15.5,3.8,27.9,3.8c13.7,0,24.3-2,32.1-3.5c4.6-0.9,8.2-1.5,10.8-1.5c2.6,0,6.3,0.7,10.8,1.5c7.8,1.5,18.5,3.5,32.1,3.5
		H715c1.2,0,2.2-1,2.2-2.2c0-1.2-1-2.2-2.2-2.2H696.8z"/>
	<path class="st1" d="M236.2,197.3c-13.2,0-23.7-2-31.3-3.4c-4.8-0.9-8.6-1.6-11.6-1.6c-3.1,0-6.8,0.7-11.6,1.6
		c-7.6,1.4-18.1,3.4-31.3,3.4c-11.9,0-19.9-2-26.9-3.7c-5.6-1.4-10.4-2.6-16-2.6c-5.6,0-10.5,1.2-16,2.6c-7,1.7-15,3.7-26.9,3.7
		c-11.4,0-18.4-3.6-25.3-7c-5.6-2.8-10.9-5.5-17.7-5.5c-6.8,0-12.1,2.7-17.7,5.5c-6.8,3.5-13.9,7-25.3,7c-10.9,0-17.3-3.8-23.5-7.5
		c-5.5-3.3-11.2-6.7-19.5-6.7c-8.2,0-13.9,3.4-19.4,6.7c-6.2,3.7-12.6,7.5-23.5,7.5c-9.8,0-15.5-3.6-21.6-7.5
		c-7-4.4-14.2-8.9-27.4-8.9c-13.9,0-21.9,4.8-28.9,9c-6.3,3.8-12.3,7.4-21.9,7.4c-1.2,0-2.2,1-2.2,2.2c0,1.2,1,2.2,2.2,2.2
		c10.9,0,17.6-4.1,24.2-8c6.9-4.1,14-8.4,26.7-8.4c12,0,18.4,4,25.1,8.3c6.4,4,12.9,8.1,23.9,8.1c12.1,0,19.3-4.3,25.7-8.1
		c5.5-3.3,10.2-6.1,17.2-6.1c7,0,11.8,2.8,17.2,6.1c6.4,3.8,13.6,8.1,25.7,8.1c12.4,0,20.3-4,27.2-7.5c5.3-2.7,10-5,15.7-5
		c5.7,0,10.4,2.3,15.7,5c7,3.5,14.8,7.5,27.2,7.5c12.4,0,20.7-2,27.9-3.8c5.3-1.3,9.9-2.4,15-2.4c5.1,0,9.7,1.1,15,2.4
		c7.3,1.8,15.5,3.8,27.9,3.8c13.7,0,24.3-2,32.1-3.5c4.6-0.9,8.2-1.5,10.8-1.5c2.6,0,6.3,0.7,10.8,1.5c7.8,1.5,18.5,3.5,32.1,3.5
		h18.2c1.2,0,2.2-1,2.2-2.2c0-1.2-1-2.2-2.2-2.2H236.2z"/>
	<path class="st1" d="M1157.6,197.3c-13.2,0-23.7-2-31.3-3.4c-4.8-0.9-8.6-1.6-11.6-1.6s-6.8,0.7-11.6,1.6
		c-7.6,1.4-18.1,3.4-31.3,3.4c-11.9,0-19.9-2-26.9-3.7c-5.6-1.4-10.4-2.6-16-2.6c-5.6,0-10.5,1.2-16,2.6c-7,1.7-15,3.7-26.9,3.7
		c-11.4,0-18.4-3.6-25.3-7c-5.6-2.8-10.9-5.5-17.7-5.5c-6.8,0-12.1,2.7-17.7,5.5c-6.8,3.5-13.9,7-25.3,7c-10.9,0-17.3-3.8-23.5-7.5
		c-5.5-3.3-11.2-6.7-19.5-6.7c-8.2,0-13.9,3.4-19.4,6.7c-6.2,3.7-12.6,7.5-23.5,7.5c-9.8,0-15.5-3.6-21.6-7.5
		c-7-4.4-14.2-8.9-27.4-8.9c-13.9,0-21.9,4.8-28.9,9c-6.3,3.8-12.3,7.4-21.9,7.4c-1.2,0-2.2,1-2.2,2.2c0,1.2,1,2.2,2.2,2.2
		c10.9,0,17.6-4.1,24.2-8c6.9-4.1,14-8.4,26.7-8.4c12,0,18.4,4,25.1,8.3c6.4,4,12.9,8.1,23.9,8.1c12.1,0,19.3-4.3,25.7-8.1
		c5.5-3.3,10.2-6.1,17.2-6.1c7,0,11.8,2.8,17.2,6.1c6.4,3.8,13.6,8.1,25.7,8.1c12.4,0,20.3-4,27.2-7.5c5.3-2.7,10-5,15.7-5
		c5.7,0,10.4,2.3,15.7,5c7,3.5,14.8,7.5,27.2,7.5c12.4,0,20.7-2,27.9-3.8c5.3-1.3,9.9-2.4,15-2.4s9.7,1.1,15,2.4
		c7.3,1.8,15.5,3.8,27.9,3.8c13.7,0,24.3-2,32.1-3.5c4.6-0.9,8.2-1.5,10.8-1.5c2.6,0,6.3,0.7,10.8,1.5c7.8,1.5,18.5,3.5,32.1,3.5
		h18.2c1.2,0,2.2-1,2.2-2.2c0-1.2-1-2.2-2.2-2.2H1157.6z"/>
	<path class="st1" d="M496.6,121.8c0-4.5-3.6-8.1-8.1-8.1h-12.5c-3.1,0-6.7,0.2-8.5-1.1c-4.1-2.9-6.1-4.4-10.6-8.7
		c-0.7-0.7-1.1-1.6-1.1-2.5v-5.4c0-1.5,0.3-2.6,1.4-3.6l4.2-3.6c1.3-1.1,3-1.7,4.7-1.7h30.9c1.4,0,2.5-1.1,2.5-2.5v-1
		c0-1.4-1.1-2.5-2.5-2.5h-31.4c0.9-1.7,1.5-3.5,1.5-5.6v-9.3c0-2-1.6-3.7-3.7-3.7h-24c-1.5,0-2.9,0.5-4.1,1.4l-18.9,14.4
		c-2.6,2-5.8,3.1-9.1,3.1h-7.2c-2.4,0-4.7,0-6.9,0.1v-2.6c0-0.5-0.4-1-1-1h-0.1V60.1h-0.7v17.7H391c-0.5,0-1,0.4-1,1v2.7
		c-32.6,0.7-43.3,4.7-43.3,4.7c-0.5,0.2-0.4,0.9,0.1,0.9h1.2l-40,26.7h-2v-2c0-0.5-0.4-1-0.9-1.1c-0.4-0.1-8.3-1.5-27.4-2.4
		c0,0,0,0,0,0c0,0,0,0,0,0c-3.8-0.2-8.1-0.4-12.8-0.5c-5.2-0.1-10-0.2-14.4-0.3c0,0,0,0,0,0c0,0,0,0,0,0c-16.7-0.2-27.1,0-27.3,0
		c-0.6,0-1.1,0.5-1.1,1.1v15.1c0,0.1,0,0.2,0.1,0.3c-3.7,1.2-6.3,2.5-7.3,3.9l-0.1,0.1h281.8V121.8z M249.4,118.5
		c-9.6,1.4-18.6,3-25.1,4.8v-13.7c3,0,12-0.2,25.1,0V118.5z M276.6,115.4c-7.9,0.7-16.7,1.6-25.1,2.8v-8.5c4.1,0.1,8.5,0.2,13.3,0.3
		c4.3,0.1,8.2,0.3,11.8,0.4V115.4z M303.9,113.7h-1.2c-3.4,0-12.7,0.5-23.9,1.5v-4.7c14.8,0.8,22.6,1.8,25.1,2.2V113.7z
		 M310.8,114.8l30.9-20.4h13.2l-27.7,22.2L310.8,114.8z M331,116.6l27.8-22.2h34.8l9.4,22.2H331z M445.3,112l-38.6,4.5l-10-22.2h35
		c1,0,2,0.4,2.6,1.2l12,14C447.1,110.5,446.5,111.9,445.3,112z"/>
</g>
</svg>
