<?xml version="1.0" encoding="utf-8"?>
<!-- Generator: Adobe Illustrator 25.4.1, SVG Export Plug-In . SVG Version: 6.00 Build 0)  -->
<svg version="1.1" id="Capa_1" xmlns="http://www.w3.org/2000/svg" xmlns:xlink="http://www.w3.org/1999/xlink" x="0px" y="0px"
	 viewBox="0 0 159 136.6" style="enable-background:new 0 0 159 136.6;" xml:space="preserve">
<style type="text/css">
	.st0{fill-rule:evenodd;clip-rule:evenodd;fill:#EAE9EB;}
	.st1{fill:#DDDDDD;}
	.st2{fill-rule:evenodd;clip-rule:evenodd;fill:#DDDDDD;}
	.st3{fill-rule:evenodd;clip-rule:evenodd;fill:#EFEFEF;}
	.st4{fill-rule:evenodd;clip-rule:evenodd;fill:#FFFFFF;}
	.st5{fill:#EFEFEF;}
</style>
<g>
	<path class="st0" d="M89.9,106.6c-0.8,0.4-1.7,0.6-2.6,0.6H41.3c-3.2,0-5.9-2.3-5.9-5.1V28.3c0-0.6,0.1-1.3,0.4-1.8
		C50.6,61.4,68.8,88.1,89.9,106.6"/>
	<path class="st1" d="M36,7.7h55.6c3,0,5.8,1.2,7.8,3.3c2,2,3.3,4.8,3.3,7.8V38h-5.9V18.8c0-1.4-0.6-2.7-1.5-3.6
		c-0.9-0.9-2.2-1.5-3.6-1.5H36c-1.4,0-2.7,0.6-3.6,1.5c-0.9,0.9-1.5,2.2-1.5,3.6v99.1c0,1.4,0.6,2.7,1.5,3.6
		c0.9,0.9,2.2,1.5,3.6,1.5h55.6c1.4,0,2.7-0.6,3.6-1.5c0.9-0.9,1.5-2.2,1.5-3.6v-6.4h5.9v6.4c0,3-1.2,5.8-3.3,7.8
		c-2,2-4.8,3.3-7.8,3.3H36c-3,0-5.8-1.2-7.8-3.3c-2-2-3.3-4.8-3.3-7.8V18.8c0-3,1.2-5.8,3.3-7.8C30.2,8.9,33,7.7,36,7.7"/>
	<path class="st2" d="M51.1,16.5h32.7c1.1,0,2,0.9,2,2v0c0,1.1-0.9,2-2,2H51.1c-1.1,0-2-0.9-2-2v0C49.2,17.4,50,16.5,51.1,16.5"/>
	<path class="st2" d="M44,16.5c1.2,0,2.2,1,2.2,2.2c0,1.2-1,2.2-2.2,2.2c-1.2,0-2.2-1-2.2-2.2C41.8,17.5,42.8,16.5,44,16.5"/>
	<path class="st2" d="M63.8,112.4c2.3,0,4.1,1.8,4.1,4.1c0,2.3-1.8,4.1-4.1,4.1c-2.3,0-4.1-1.8-4.1-4.1
		C59.7,114.2,61.6,112.4,63.8,112.4"/>
	<path class="st2" d="M72.1,36.4h53c1.5,0,2.7,1,2.8,2.3l6.2,65.8c0.1,0.7-0.2,1.4-0.7,1.9c-0.5,0.5-1.2,0.8-2.1,0.8H66
		c-0.8,0-1.5-0.3-2.1-0.8c-0.5-0.5-0.8-1.2-0.7-1.9l6.2-65.8C69.5,37.5,70.7,36.4,72.1,36.4"/>
	<path class="st3" d="M84.5,45.7c1.1-0.3,2.3,0.4,2.6,1.6c0.3,1.1-0.4,2.3-1.6,2.6c-1.1,0.3-2.3-0.4-2.6-1.6
		C82.7,47.1,83.4,46,84.5,45.7 M76.5,48l7-5.3c0.3-0.2,0.6-0.3,1-0.2l8.3,1.7c0.5,0.1,0.8,0.4,0.9,0.9l4.8,20.5
		c0.2,0.6-0.3,1.3-0.9,1.5l-15.3,3.6c-0.6,0.2-1.3-0.3-1.5-0.9l-4.8-20.5C76,48.7,76.1,48.3,76.5,48z"/>
	<path class="st4" d="M84.3,43.5c1.2,0,2.1,1,2.1,2.1c0,1.2-1,2.1-2.1,2.1c-1.2,0-2.1-1-2.1-2.1C82.2,44.5,83.2,43.5,84.3,43.5
		 M76,43.9l8-3.6c0.3-0.1,0.7-0.1,1,0l7.7,3.6c0.4,0.2,0.7,0.6,0.7,1.1v21.1c0,0.7-0.5,1.2-1.2,1.2H76.5c-0.7,0-1.2-0.5-1.2-1.2V45
		C75.3,44.5,75.5,44.1,76,43.9z"/>
	<rect x="83.1" y="31.7" class="st4" width="2.5" height="11"/>
	<path class="st5" d="M93.5,23.9c-2.2,0.8-4.2,2.1-5.9,3.7c-2.9,2.9-4.7,6.9-4.7,11.3v1.6h-3.3v-1.6c0-5.3,2.2-10.1,5.7-13.6
		c2.3-2.3,5.1-4,8.3-4.9V23.9z M102.6,20c3.8,0.8,7.2,2.6,9.9,5.3c3.5,3.5,5.7,8.3,5.7,13.6v1.6h-3.3v-1.6c0-4.4-1.8-8.4-4.7-11.3
		c-2-2-4.6-3.5-7.5-4.2V20z"/>
	<path class="st2" d="M84.7,63.7c3,0,5.4-1.4,5.4-4.5v-0.1c0-2.6-2.3-3.5-4.3-4.2c-1.5-0.5-2.9-0.9-2.9-1.7v-0.1c0-0.6,0.5-1,1.5-1
		c0.8,0,1.9,0.3,3,0.9c0.3,0.1,0.4,0.2,0.7,0.2c0.9,0,1.6-0.7,1.6-1.6c0-0.7-0.4-1.2-0.9-1.5c-1.4-0.7-2.9-1.1-4.4-1.1
		c-2.8,0-5.1,1.6-5.1,4.5v0.1c0,2.7,2.2,3.6,4.2,4.2c1.5,0.5,2.9,0.8,2.9,1.6v0.1c0,0.6-0.5,1-1.7,1c-1.1,0-2.5-0.4-3.8-1.3
		c-0.2-0.1-0.5-0.2-0.8-0.2c-0.9,0-1.6,0.7-1.6,1.6c0,0.6,0.3,1.1,0.8,1.4C81.1,63.2,82.9,63.7,84.7,63.7"/>
</g>
</svg>
