<?xml version="1.0" encoding="utf-8"?>
<!-- Generator: Adobe Illustrator 25.4.1, SVG Export Plug-In . SVG Version: 6.00 Build 0)  -->
<svg version="1.1" id="Capa_1" xmlns="http://www.w3.org/2000/svg" xmlns:xlink="http://www.w3.org/1999/xlink" x="0px" y="0px"
	 viewBox="0 0 297.4 93.9" style="enable-background:new 0 0 297.4 93.9;" xml:space="preserve">
<style type="text/css">
	.st0{fill:#E1E1E1;}
	.st1{fill:#FAFAFA;}
	.st2{fill:#ECECEC;}
	.st3{fill:#C9C9C9;}
	.st4{fill:#E4E4E4;}
	.st5{fill:#DBDBDB;}
	.st6{fill:#FFFFFF;stroke:#FFFFFF;stroke-width:0.5;stroke-miterlimit:10;}
	.st7{fill:#FFFFFF;}
	.st8{opacity:0.3;}
</style>
<g>
	<g>
		<g>
			<g>
				<path class="st0" d="M85.3,64.8c-1.1-0.7-2.4-1.1-3.7-1.3c-0.6-0.1-1.3,0-1.7,0.3c-0.1,0.1-0.2,0.2-0.2,0.3
					c0,0.1,0.1,0.2,0.2,0.2C81.4,65.5,83.6,65.6,85.3,64.8"/>
			</g>
		</g>
		<g>
			<g>
				<path class="st0" d="M85.2,64.7c-0.8-0.7-1.7-1.3-2.4-2.1c-0.7-0.8-1.3-1.7-1.5-2.8c-0.1-0.3-0.1-0.7,0.1-0.9
					C83.4,60.4,84.8,62.3,85.2,64.7"/>
			</g>
		</g>
		<g>
			<g>
				<path class="st0" d="M85.3,64.7c-0.1-1-0.2-2.1,0-3.1c0.2-1,0.8-2,1.7-2.6c0.3,0.8,0.2,1.6,0,2.5c-0.4,1.2-0.9,2.4-1.7,3.5"/>
			</g>
		</g>
		<g>
			<g>
				<path class="st0" d="M87.1,68.1c-1.1,0.1-2.1,0.7-3,1.5c-0.8,0.8-1.4,1.8-1.7,2.9c1.1-0.1,2-0.8,2.7-1.7
					C85.9,69.9,86.4,68.9,87.1,68.1"/>
			</g>
		</g>
		<g>
			<g>
				<path class="st0" d="M87.6,68.6c-0.9-2.2-0.6-4.9,0.8-6.9C89,64,88.8,66.6,87.6,68.6"/>
			</g>
		</g>
		<g>
			<g>
				<path class="st0" d="M90,71.5c-1-0.1-2.1,0.2-3,0.7c-0.9,0.5-1.6,1.3-2.1,2.2c-0.1,0.1-0.1,0.3,0,0.4c0.1,0.1,0.2,0.1,0.3,0.1
					c1-0.1,1.9-0.7,2.6-1.3C88.6,72.9,89.2,72.1,90,71.5"/>
			</g>
		</g>
		<g>
			<g>
				<path class="st0" d="M89.9,71.4c-0.5-1.7-0.6-3.5-0.1-5.2c0.2-0.7,0.5-1.4,1.1-1.7c0.1,0,0.1-0.1,0.2,0c0.1,0,0.1,0.1,0.1,0.1
					c0.2,0.5,0.3,1,0.3,1.5c0,0.5-0.1,1-0.2,1.5c-0.2,0.9-0.3,1.9-0.8,2.7c-0.1,0.2-0.2,0.4-0.3,0.6C90,71.1,90,71.2,89.9,71.4"/>
			</g>
		</g>
		<g>
			<g>
				<path class="st0" d="M96.4,72.3c-0.5-1.8,0-4.1,1.2-5.6c0.1-0.1,0.2-0.2,0.3-0.2c0.2,0,0.3,0.3,0.3,0.5
					C98.1,69,97.5,70.8,96.4,72.3"/>
			</g>
		</g>
		<g>
			<g>
				<path class="st0" d="M97,72.8c2.2,0.6,4.8,0,6.6-1.3c-1.1-0.6-2.4-0.7-3.6-0.4C98.9,71.2,97.8,71.8,97,72.8"/>
			</g>
		</g>
		<g>
			<g>
				<path class="st0" d="M97.5,71.5c1.2-2,3.6-3.4,6-3.5c-0.3,1-1.1,1.7-2,2.2s-1.9,0.7-2.9,0.8C98.3,71.1,97.8,71.2,97.5,71.5"/>
			</g>
		</g>
		<g>
			<g>
				<path class="st0" d="M96.6,65.6c0.3-1.2,0.7-2.3,0.8-3.5c0.1-1.2-0.1-2.5-0.7-3.5c-1.2,2.3-1.3,4.9-0.1,7.1"/>
			</g>
		</g>
		<g>
			<g>
				<path class="st0" d="M100.5,63.6c1.4-2.5,4.1-4.5,7-4.7C106.4,61.6,103.4,63.7,100.5,63.6"/>
			</g>
		</g>
		<g>
			<g>
				<path class="st0" d="M99.6,64.1c2,0.3,3.8,1.6,5.7,2.4c0.4,0.2,0.8,0.3,1.3,0.2c0.4-0.1,0.9-0.3,1-0.8c0.1-0.4-0.1-0.7-0.3-1
					c-0.3-0.3-0.6-0.4-0.9-0.6c-2.1-0.9-4.3-0.9-6.5-0.4"/>
			</g>
		</g>
		<g>
			<g>
				<path class="st0" d="M98.4,65.5c0.5,0.1,0.6,0.4,1,0.7c1.2,1.1,2.7,1.8,4.3,2.2c0.2,0,0.4,0.1,0.5-0.1c0.1-0.1,0-0.3-0.1-0.4
					c-0.7-0.8-1.6-1.4-2.6-1.8C100.5,65.8,99.6,65.4,98.4,65.5"/>
			</g>
		</g>
		<g>
			<g>
				<path class="st0" d="M97.1,56.9c1.7,1.5,4,2.3,6.2,2.1c0.1,0,0.2,0,0.3-0.1c0.2-0.2,0-0.4-0.2-0.6
					C101.6,56.9,99.4,56.3,97.1,56.9"/>
			</g>
		</g>
		<g>
			<g>
				<path class="st0" d="M98.7,56.3c2.2-1.6,5.2-2.1,7.8-1.3c-1,1-2.3,1.5-3.7,1.6C101.4,56.8,100,56.7,98.7,56.3"/>
			</g>
		</g>
		<g>
			<g>
				<path class="st0" d="M98.1,52.4c-0.2-1.8-0.1-3.3-0.2-5.1c0-0.1,0-0.3-0.2-0.4c-0.2-0.1-0.4,0.2-0.4,0.4
					C96.7,49,97,50.9,98.1,52.4"/>
			</g>
		</g>
		<g>
			<g>
				<path class="st0" d="M97.9,52.6c1.2-0.8,2.2-1.8,3-2.9c0.6-0.8,1.1-1.8,1-2.8c-0.8,0-1.6,0.4-2.2,1.1c-0.5,0.6-0.9,1.4-1.1,2.2
					C98.4,51,98.2,51.8,97.9,52.6"/>
			</g>
		</g>
		<g>
			<g>
				<path class="st0" d="M100.9,51.8c2.7-1,5.3-2.5,7.5-4.4c-0.9-0.4-1.9-0.1-2.8,0.2C103.5,48.4,101.9,49.8,100.9,51.8"/>
			</g>
		</g>
		<g>
			<g>
				<path class="st0" d="M98.8,53.6c1.4,0.2,2.8,0.2,4.1,0c1.3-0.2,2.6-0.8,3.9-1.3c0.1,0,0.2-0.1,0.3-0.2c0-0.1,0-0.2-0.1-0.3
					c-0.1-0.1-0.2-0.1-0.3-0.2c-1.4-0.4-2.8-0.2-4.2,0.2C101.1,52.3,100,52.9,98.8,53.6"/>
			</g>
		</g>
		<g>
			<g>
				<path class="st0" d="M90.9,57c-0.9-1.9-0.9-4.1-0.1-6.1c0.6,0.9,0.6,2,0.5,3C91.3,55,91,56,90.9,57"/>
			</g>
		</g>
		<g>
			<g>
				<path class="st0" d="M87.2,55.1c-2.3,0-4.7,1-6.3,2.7c1.2,0.2,2.4-0.1,3.4-0.6c1.1-0.5,2-1.2,2.9-2"/>
			</g>
		</g>
		<g>
			<g>
				<path class="st0" d="M84.6,54.3c-1.1-0.1-2.2-0.2-3.4,0.1c-1.1,0.3-2.1,1.1-2.6,2.2c1.1,0.1,2.2-0.1,3.1-0.6
					C82.9,55.5,83.8,54.9,84.6,54.3"/>
			</g>
		</g>
		<g>
			<g>
				<path class="st0" d="M88.4,54.3c-1-0.7-2.1-1.4-3.3-1.6c-1.2-0.3-2.6-0.1-3.4,0.8c1,0.6,2.2,0.6,3.3,0.6c1.1,0,2.5,0,3.6,0.4"/>
			</g>
		</g>
		<g>
			<g>
				<path class="st0" d="M88.4,54.3c-1.8-1.7-2.4-4.8-1.7-7.2C88.1,49.2,88.7,51.8,88.4,54.3"/>
			</g>
		</g>
		<g>
			<g>
				<path class="st0" d="M93.2,49.4c0.3-0.8,0.6-1.6,0.9-2.4c0.3-0.8,0.7-1.6,1.2-2.2c0.6-0.6,1.3-1.1,2.2-1.1
					C97,46.1,95.4,48.3,93.2,49.4"/>
			</g>
		</g>
		<g>
			<g>
				<path class="st0" d="M92.4,50.5c-0.6-0.8-1.2-1.8-1.9-2.4c-0.7-0.6-1.7-0.9-2.6-0.7C88.7,49.1,90.5,50.2,92.4,50.5"/>
			</g>
		</g>
		<g>
			<g>
				<path class="st0" d="M92.5,49.5c-0.4-0.9-0.7-1.8-0.9-2.8c-0.1-1-0.1-2,0.4-2.9C93.1,45.7,93.4,47.6,92.5,49.5"/>
			</g>
		</g>
		<g>
			<g>
				<path class="st0" d="M93.2,43.8c0.5-1.8,2.2-3.1,4-3.8c0.2-0.1,0.5-0.1,0.7-0.1c0.2,0,0.5,0.2,0.5,0.4c0.1,0.3-0.2,0.6-0.4,0.8
					C96.6,42.4,95,43.3,93.2,43.8"/>
			</g>
		</g>
		<g>
			<g>
				<path class="st0" d="M93.3,42.3c0.1-1.2,0.1-2.4,0.5-3.5c0.4-1.1,1.1-2.1,2.2-2.6c0.2,1.2-0.3,2.4-1,3.4c-0.6,1-1.4,2-1.8,3.1"
					/>
			</g>
		</g>
		<g>
			<g>
				<path class="st0" d="M93.2,43.1c-0.5-1.3-0.5-3-1.3-4.2c-0.6-0.8-1.4-1.4-1.9-2.2c-0.3,0.8-0.2,1.7,0.1,2.5
					c0.3,0.8,0.9,1.5,1.5,2.1C92.2,42,92.7,42.5,93.2,43.1"/>
			</g>
		</g>
		<g>
			<g>
				<g>
					<path class="st0" d="M93.2,82.1c0,0-0.1-8.8-0.1-19.7c0-10.9,0-19.7,0.1-19.7c0,0,0.1,8.8,0.1,19.7
						C93.3,73.3,93.3,82.1,93.2,82.1z"/>
				</g>
			</g>
		</g>
		<g>
			<g>
				<g>
					<path class="st0" d="M101,55.7c0,0-0.1,0.1-0.3,0.1c-0.2,0.1-0.5,0.2-0.9,0.3c-0.8,0.3-1.8,0.6-3,1.1c-1.1,0.5-2.2,0.9-2.8,1.4
						c-0.3,0.3-0.5,0.5-0.6,0.7c-0.1,0.2-0.1,0.3-0.1,0.3c0,0,0,0,0-0.1c0-0.1,0-0.1,0.1-0.3c0.1-0.2,0.2-0.5,0.6-0.8
						c0.3-0.3,0.7-0.5,1.2-0.8c0.5-0.2,1-0.5,1.6-0.7c1.2-0.5,2.2-0.8,3-1.1c0.4-0.1,0.7-0.2,0.9-0.3
						C100.8,55.7,100.9,55.6,101,55.7z"/>
				</g>
			</g>
		</g>
		<g>
			<g>
				<g>
					<path class="st0" d="M103.5,49.5C103.5,49.5,103.4,49.5,103.5,49.5c-0.2,0.2-0.3,0.3-0.4,0.4c-0.3,0.2-0.6,0.6-1.1,1
						c-0.9,0.8-2.1,1.9-3.5,3.1c-1.4,1.2-2.6,2.4-3.4,3.3c-0.4,0.4-0.7,0.8-1,1.1c-0.1,0.1-0.2,0.2-0.3,0.3
						c-0.1,0.1-0.1,0.1-0.1,0.1c0,0,0,0,0.1-0.1c0.1-0.1,0.1-0.2,0.2-0.3c0.2-0.3,0.5-0.6,0.9-1.1c0.8-0.9,2-2.1,3.4-3.3
						c1.4-1.2,2.6-2.3,3.5-3.1c0.4-0.4,0.8-0.7,1.1-0.9c0.1-0.1,0.2-0.2,0.3-0.2C103.4,49.5,103.5,49.4,103.5,49.5z"/>
				</g>
			</g>
		</g>
		<g>
			<g>
				<g>
					<path class="st0" d="M97,55.1c0,0,0.3-0.7,0.5-1.5c0.3-0.8,0.4-1.5,0.5-1.5c0,0,0,0.7-0.3,1.6c-0.1,0.4-0.3,0.8-0.4,1.1
						C97.2,55,97.1,55.2,97,55.1z"/>
				</g>
			</g>
		</g>
		<g>
			<g>
				<g>
					<path class="st0" d="M93.3,60.5c0,0-0.1-0.1-0.2-0.2c-0.1-0.2-0.3-0.4-0.5-0.7c-0.5-0.6-1.1-1.4-1.8-2.3
						c-0.7-0.9-1.4-1.7-1.8-2.3c-0.2-0.3-0.4-0.5-0.6-0.7c-0.1-0.2-0.2-0.3-0.2-0.3c0,0,0.1,0.1,0.2,0.2c0.1,0.2,0.3,0.4,0.6,0.7
						c0.5,0.6,1.1,1.4,1.9,2.2c0.7,0.9,1.3,1.7,1.8,2.3c0.2,0.3,0.4,0.5,0.5,0.7C93.2,60.4,93.3,60.5,93.3,60.5z"/>
				</g>
			</g>
		</g>
		<g>
			<g>
				<g>
					<path class="st0" d="M91.6,58.3c0,0-0.5-0.5-0.7-1.3c-0.2-0.6-0.2-1.1-0.2-1.3l0.1,0c0,0.1,0,0.2-0.1,0.2c0,0,0-0.1,0-0.2
						l0.1,0c0,0.2,0.1,0.7,0.2,1.3C91.2,57.7,91.6,58.3,91.6,58.3z"/>
				</g>
			</g>
		</g>
		<g>
			<g>
				<g>
					<path class="st0" d="M89.4,55.6c0,0-0.2-0.2-0.5-0.3c-0.3-0.1-0.8-0.2-1.4-0.1c-0.5,0-1,0.1-1.4,0.2c-0.3,0.1-0.6,0.2-0.6,0.1
						c0,0,0.2-0.1,0.5-0.2c0.3-0.1,0.8-0.2,1.4-0.3c0.6,0,1.1,0,1.4,0.2C89.3,55.4,89.4,55.6,89.4,55.6z"/>
				</g>
			</g>
		</g>
		<g>
			<g>
				<g>
					<path class="st0" d="M88.9,54.9c0,0-0.3-0.1-0.8-0.3c-0.5-0.2-1.1-0.3-1.9-0.4c-0.8-0.1-1.4,0-1.9,0.1
						c-0.5,0.1-0.8,0.2-0.8,0.2c0,0,0.1,0,0.2-0.1c0.1,0,0.3-0.1,0.6-0.2c0.5-0.1,1.2-0.2,2-0.1c0.8,0.1,1.4,0.2,1.9,0.4
						c0.2,0.1,0.4,0.2,0.5,0.2C88.8,54.9,88.9,54.9,88.9,54.9z"/>
				</g>
			</g>
		</g>
		<g>
			<g>
				<g>
					<path class="st0" d="M93.2,52.1c0,0-0.3-0.9-0.6-1.9c-0.3-1.1-0.5-1.9-0.4-1.9c0,0,0.3,0.9,0.6,1.9
						C93.1,51.2,93.3,52.1,93.2,52.1z"/>
				</g>
			</g>
		</g>
		<g>
			<g>
				<g>
					<path class="st0" d="M93.3,52.1c0,0-0.2-0.6-0.6-1.1c-0.4-0.6-0.9-0.9-0.9-0.9c0,0,0.1,0,0.3,0.2c0.2,0.1,0.4,0.4,0.7,0.7
						C93.2,51.5,93.3,52.1,93.3,52.1z"/>
				</g>
			</g>
		</g>
		<g>
			<g>
				<g>
					<path class="st0" d="M93.2,77.4c0,0,0-0.2-0.1-0.6c-0.1-0.4-0.3-0.9-0.6-1.5c-0.6-1.2-1.7-2.8-3.1-4.4c-0.7-0.8-1.4-1.6-2-2.3
						c-0.6-0.7-1-1.4-1.4-2c-0.3-0.6-0.6-1.1-0.7-1.5c-0.1-0.2-0.1-0.3-0.1-0.4c0-0.1,0-0.2,0-0.2c0,0,0.1,0.2,0.2,0.6
						c0.1,0.4,0.4,0.9,0.7,1.5c0.4,0.6,0.8,1.3,1.4,2c0.6,0.7,1.3,1.5,2,2.3c1.4,1.6,2.5,3.2,3.1,4.4c0.3,0.6,0.5,1.2,0.6,1.6
						c0,0.2,0.1,0.3,0.1,0.4C93.2,77.3,93.2,77.4,93.2,77.4z"/>
				</g>
			</g>
		</g>
		<g>
			<g>
				<g>
					<path class="st0" d="M100.2,69.5c0,0-0.1,0.1-0.4,0.2c-0.2,0.1-0.6,0.3-0.9,0.6c-0.4,0.3-0.8,0.7-1.2,1.1
						c-0.4,0.5-0.9,1-1.3,1.6c-0.9,1.2-1.8,2.2-2.3,3c-0.3,0.4-0.5,0.7-0.6,1c-0.1,0.2-0.2,0.4-0.2,0.4c0,0,0,0,0-0.1
						c0-0.1,0.1-0.2,0.1-0.3c0.1-0.2,0.3-0.6,0.5-1c0.5-0.8,1.3-1.9,2.3-3c0.5-0.6,0.9-1.1,1.4-1.6c0.4-0.5,0.9-0.8,1.3-1.1
						c0.4-0.3,0.7-0.5,1-0.6c0.1-0.1,0.2-0.1,0.3-0.1C100.2,69.5,100.2,69.5,100.2,69.5z"/>
				</g>
			</g>
		</g>
		<g>
			<g>
				<g>
					<path class="st0" d="M100.3,72.1c0,0-0.3,0.1-0.8,0.1c-0.5,0.1-1.1,0.1-1.8,0.4c-0.7,0.2-1.3,0.6-1.6,0.9
						c-0.4,0.3-0.6,0.5-0.6,0.5c0,0,0-0.1,0.1-0.2c0.1-0.1,0.2-0.3,0.4-0.4c0.4-0.3,0.9-0.7,1.7-0.9c0.7-0.2,1.4-0.3,1.9-0.3
						C100,72,100.3,72,100.3,72.1z"/>
				</g>
			</g>
		</g>
		<g>
			<g>
				<g>
					<path class="st0" d="M95.8,73.6c0,0,0.3-0.6,0.6-1.3c0.3-0.7,0.3-1.4,0.4-1.3c0,0,0,0.2,0,0.4c0,0.3-0.1,0.6-0.2,1
						c-0.1,0.4-0.3,0.7-0.4,0.9C95.9,73.5,95.8,73.6,95.8,73.6z"/>
				</g>
			</g>
		</g>
		<g>
			<g>
				<g>
					<path class="st0" d="M102.5,62.7c0,0,0,0-0.1,0.1c-0.1,0-0.2,0.1-0.4,0.2c-0.2,0.1-0.4,0.2-0.6,0.3c-0.2,0.1-0.5,0.2-0.7,0.4
						c-0.1,0.1-0.3,0.2-0.4,0.2c-0.1,0.1-0.3,0.2-0.4,0.3c-0.3,0.2-0.6,0.4-1,0.7c-0.6,0.5-1.3,1.1-2,1.7c-0.7,0.7-1.2,1.4-1.7,2
						c-0.2,0.3-0.4,0.7-0.6,1c-0.1,0.2-0.2,0.3-0.3,0.5c-0.1,0.1-0.2,0.3-0.2,0.4c-0.1,0.3-0.3,0.5-0.4,0.7
						c-0.1,0.2-0.2,0.4-0.2,0.6c-0.1,0.1-0.1,0.3-0.2,0.4c0,0.1-0.1,0.1-0.1,0.1c0,0,0,0,0-0.1c0-0.1,0.1-0.2,0.1-0.4
						c0.1-0.2,0.1-0.4,0.2-0.6c0.1-0.2,0.2-0.5,0.3-0.8c0.1-0.1,0.1-0.3,0.2-0.4c0.1-0.2,0.2-0.3,0.3-0.5c0.2-0.3,0.4-0.6,0.6-1
						c0.5-0.7,1-1.4,1.7-2.1c0.7-0.7,1.4-1.3,2-1.8c0.3-0.2,0.7-0.5,1-0.7c0.2-0.1,0.3-0.2,0.5-0.3c0.1-0.1,0.3-0.2,0.4-0.2
						c0.3-0.2,0.5-0.3,0.7-0.4c0.2-0.1,0.4-0.2,0.6-0.3c0.2-0.1,0.3-0.1,0.4-0.1C102.4,62.7,102.5,62.7,102.5,62.7z"/>
				</g>
			</g>
		</g>
		<g>
			<g>
				<g>
					<path class="st0" d="M97,66.3c0,0,0.1-0.2,0.3-0.5c0.2-0.2,0.7-0.5,1.2-0.5c0.5,0,1,0.1,1.3,0.3c0.3,0.1,0.5,0.2,0.5,0.2
						c0,0-0.2-0.1-0.5-0.2c-0.3-0.1-0.8-0.2-1.3-0.2c-0.5,0-0.9,0.2-1.2,0.4C97.1,66.2,97,66.4,97,66.3z"/>
				</g>
			</g>
		</g>
		<g>
			<g>
				<g>
					<path class="st0" d="M96.1,67.2c0,0,0.3-0.5,0.3-1.1c0.1-0.7-0.1-1.2-0.1-1.2c0,0,0.1,0.1,0.1,0.3c0.1,0.2,0.1,0.5,0.1,0.9
						c0,0.3-0.2,0.6-0.3,0.8C96.2,67.1,96.1,67.2,96.1,67.2z"/>
				</g>
			</g>
		</g>
	</g>
	<g>
		<g>
			<path class="st0" d="M87.2,78.6c0.2,3.4,1.2,6.8,2.8,10.3h6.8c1.5-3.4,2.4-6.9,2.6-10.3H87.2z"/>
		</g>
	</g>
	<g>
		<g>
			<g>
				<path class="st1" d="M98.2,84.1c0,0-2.2,0.1-5,0.1c-2.8,0-5,0-5-0.1c0,0,2.2-0.1,5-0.1C96,84,98.2,84.1,98.2,84.1z"/>
			</g>
		</g>
	</g>
	<g>
		<g>
			<g>
				<path class="st1" d="M98.1,85.3c0,0-2.1,0.1-4.7,0.1c-2.6,0-4.7,0-4.7-0.1c0,0,2.1-0.1,4.7-0.1C96,85.2,98.1,85.3,98.1,85.3z"/>
			</g>
		</g>
	</g>
	<g>
		<g>
			<g>
				<path class="st1" d="M90,80.8c0,0,0.1,0.7,0.1,1.6c0,0.9,0,1.6-0.1,1.6c0,0-0.1-0.7-0.1-1.6C90,81.6,90,80.8,90,80.8z"/>
			</g>
		</g>
	</g>
	<g>
		<g>
			<g>
				<path class="st1" d="M93.7,80.8c0,0,0.1,0.7,0.1,1.6c0,0.9,0,1.6-0.1,1.6c0,0-0.1-0.7-0.1-1.6C93.6,81.6,93.6,80.8,93.7,80.8z"
					/>
			</g>
		</g>
	</g>
	<g>
		<g>
			<g>
				<path class="st1" d="M97.1,80.8c0,0,0.1,0.7,0.1,1.7c0,0.9,0,1.7-0.1,1.7c0,0-0.1-0.7-0.1-1.7C97,81.6,97.1,80.8,97.1,80.8z"/>
			</g>
		</g>
	</g>
	<g>
		<g>
			<g>
				<path class="st1" d="M99.1,80.8c0,0-2.6,0.1-5.9,0.1c-3.2,0-5.9,0-5.9-0.1c0,0,2.6-0.1,5.9-0.1C96.5,80.8,99.1,80.8,99.1,80.8z"
					/>
			</g>
		</g>
	</g>
</g>
<g>
	<g>
		<path class="st2" d="M186,36.7h-21c-8.6,0-11.7-7-11.7-15.6V21c0-8.6,3.1-15.6,11.7-15.6h21c8.6,0,11.2,7,11.2,15.6v0.1
			C197.2,29.7,194.6,36.7,186,36.7z"/>
	</g>
	<g>
		<g>
			<g>
				<g>
					<g>
						<g>
							<path class="st1" d="M187.4,35.5h-23.8c-7,0-8.9-5.7-8.9-12.8v-3.4c0-7,1.8-12.8,8.9-12.8h23.8c7,0,8.4,5.7,8.4,12.8v3.4
								C195.8,29.8,194.4,35.5,187.4,35.5z"/>
						</g>
					</g>
				</g>
			</g>
			<g>
				<g>
					<g>
						<g>
							<path class="st1" d="M195,17.5l0.2,0.1l-0.2,0.1c-0.1,0.1-0.2,0.1-0.2,0.2l-0.1,0.2l-0.1-0.2c-0.1-0.1-0.1-0.2-0.2-0.2
								l-0.2-0.1l0.2-0.1c0.1-0.1,0.2-0.1,0.2-0.2l0.1-0.2l0.1,0.2C194.8,17.4,194.9,17.5,195,17.5z"/>
						</g>
					</g>
				</g>
			</g>
			<g>
				<g>
					<g>
						<g>
							<path class="st1" d="M167.2,17.1L167.2,17.1L167.2,17.1c0,0.1-0.1,0.1-0.1,0.2l0,0.1l0-0.1c0,0-0.1-0.1-0.1-0.1l-0.1,0l0.1,0
								c0,0,0.1-0.1,0.1-0.1l0-0.1L167.2,17.1C167.1,17,167.2,17.1,167.2,17.1z"/>
						</g>
					</g>
				</g>
			</g>
		</g>
	</g>
</g>
<g>
	<g>
		<path class="st3" d="M212.7,92.1c0,0-32.2,0.1-71.9,0.1c-39.7,0-71.9,0-71.9-0.1c0,0,32.2-0.1,71.9-0.1
			C180.5,92,212.7,92,212.7,92.1z"/>
	</g>
</g>
<g>
	<g>
		<path class="st3" d="M66.5,0c0,0,0,21,0,46.9c0,25.9,0,46.9,0,46.9c0,0,0-21,0-46.9C66.5,21,66.5,0,66.5,0z"/>
	</g>
</g>
<g>
	<g>
		<path class="st3" d="M215.1,0c0,0,0,21,0,46.9c0,25.9,0,46.9,0,46.9c0,0,0-21,0-46.9C215.1,21,215.1,0,215.1,0z"/>
	</g>
</g>
<g>
	<g>
		<rect x="181.7" y="58.1" class="st4" width="26.4" height="20.1"/>
	</g>
	<g>
		<rect x="193.6" y="58.1" class="st5" width="14.6" height="20.1"/>
	</g>
	<g>
		<polygon class="st4" points="189.7,78.2 186.4,88.6 187.3,88.6 192,78.2 		"/>
	</g>
	<g>
		<polygon class="st4" points="201.7,78.2 205.1,88.6 204.1,88.6 199.4,78.2 		"/>
	</g>
	<g>
		<g>
			<path class="st3" d="M208.4,78.3c0,0-6,0.1-13.3,0.1c-7.3,0-13.3,0-13.3-0.1s6-0.1,13.3-0.1C202.4,78.3,208.4,78.3,208.4,78.3z"
				/>
		</g>
	</g>
	<g>
		<g>
			<path class="st6" d="M193,63.4C193,63.4,193,63.4,193,63.4c0-0.1,0-0.2,0-0.3c0-0.2,0-0.5,0-0.9c0-0.7,0-1.8,0-3.2l0,0
				c-2.7,0-6.5,0-10.8,0c0,0,0.1-0.1,0.1-0.1v0v0v0v0v0v0l0,0.1v0.1l0,0.3c0,0.2,0,0.4,0,0.6c0,0.4,0,0.7,0,1.1c0,0.7,0,1.4,0,2.1
				l-0.1-0.1c3.1,0,5.8,0,7.7,0c1,0,1.7,0,2.2,0c0.3,0,0.5,0,0.6,0C192.9,63.4,192.9,63.4,193,63.4C193,63.4,193,63.4,193,63.4
				C193,63.4,193,63.4,193,63.4c-0.1,0-0.1,0-0.2,0c-0.1,0-0.3,0-0.6,0c-0.5,0-1.3,0-2.2,0c-1.9,0-4.6,0-7.7,0l-0.1,0l0-0.1
				c0-0.7,0-1.4,0-2.1c0-0.4,0-0.7,0-1.1c0-0.2,0-0.4,0-0.6l0-0.3v-0.1v-0.1v0v0v0v0v0v0c0,0,0.1-0.1,0.1-0.1c4.2,0,8,0,10.8,0l0,0
				l0,0c0,1.3,0,2.4,0,3.2c0,0.4,0,0.7,0,0.9C193,63.2,193,63.3,193,63.4C193,63.4,193,63.4,193,63.4z"/>
		</g>
	</g>
	<g>
		<g>
			<path class="st6" d="M188.3,61.2c0,0,0-0.1,0-0.2c0-0.1-0.1-0.2-0.2-0.3c-0.1-0.1-0.4-0.2-0.6-0.1c-0.2,0.1-0.4,0.3-0.4,0.6
				c0,0.3,0.2,0.5,0.4,0.6c0.2,0.1,0.4,0,0.6-0.1c0.1-0.1,0.2-0.2,0.2-0.3C188.3,61.3,188.3,61.2,188.3,61.2c0,0,0,0.1,0,0.2
				c0,0.1-0.1,0.3-0.2,0.4c-0.1,0.1-0.4,0.2-0.7,0.1c-0.2-0.1-0.5-0.3-0.5-0.7c0-0.3,0.2-0.6,0.5-0.7c0.3-0.1,0.5,0,0.7,0.1
				c0.2,0.1,0.2,0.3,0.2,0.4C188.3,61.1,188.3,61.2,188.3,61.2z"/>
		</g>
	</g>
	<g>
		<g>
			<path class="st6" d="M192.4,70.8c0,0,0-0.1,0-0.2c0-0.1-0.1-0.2-0.2-0.3c-0.1-0.1-0.4-0.2-0.6-0.1c-0.2,0.1-0.4,0.3-0.4,0.6
				c0,0.3,0.2,0.5,0.4,0.6c0.2,0.1,0.4,0,0.6-0.1c0.1-0.1,0.2-0.2,0.2-0.3C192.4,70.8,192.4,70.8,192.4,70.8c0,0,0,0.1,0,0.2
				c0,0.1-0.1,0.3-0.2,0.4c-0.1,0.1-0.4,0.2-0.7,0.1c-0.2-0.1-0.5-0.3-0.5-0.7c0-0.3,0.2-0.6,0.5-0.7c0.3-0.1,0.5,0,0.7,0.1
				c0.2,0.1,0.2,0.3,0.2,0.4C192.5,70.7,192.4,70.8,192.4,70.8z"/>
		</g>
	</g>
	<g>
		<g>
			<path class="st6" d="M192.9,76.8C192.9,76.8,192.9,76.8,192.9,76.8c0-0.1,0-0.2,0-0.2c0-0.2,0-0.4,0-0.7c0-0.6,0-1.4,0-2.5
				c0-2.2,0-5.3,0-8.9l0,0c-3.1,0-6.8,0-10.7,0h0l0.1-0.1c0,4.6,0,8.8,0,12.4l0,0c3.2,0,5.9,0,7.7,0c0.9,0,1.7,0,2.2,0
				c0.2,0,0.4,0,0.6,0C192.8,76.8,192.9,76.8,192.9,76.8s-0.1,0-0.2,0c-0.1,0-0.3,0-0.6,0c-0.5,0-1.2,0-2.2,0c-1.9,0-4.5,0-7.8,0
				l0,0l0,0c0-3.6,0-7.8,0-12.4l0-0.1h0.1h0c3.9,0,7.5,0,10.7,0l0,0l0,0c0,3.7,0,6.8,0,9c0,1.1,0,1.9,0,2.5c0,0.3,0,0.5,0,0.7
				C192.9,76.7,192.9,76.7,192.9,76.8C192.9,76.8,192.9,76.8,192.9,76.8z"/>
		</g>
	</g>
</g>
<g>
	<g>
		<g>
			<g>
				<g>
					<g>
						<g>
							<g>
								<rect x="104.5" y="5.9" class="st4" width="23.4" height="30.2"/>
							</g>
						</g>
					</g>
				</g>
			</g>
		</g>
		<g>
			<g>
				<g>
					<g>
						<g>
							<g>
								<g>
									<path class="st7" d="M127.9,5.9C127.9,5.9,127.9,6,127.9,5.9c-0.1,0.1-0.2,0.2-0.3,0.3c-0.2,0.2-0.5,0.5-0.8,0.9l0,0l0,0
										c-2,0-6,0-10.6,0c-4.6,0-8.6,0-10.6,0l0,0l0,0c-0.3-0.4-0.6-0.7-0.8-0.9c-0.1-0.1-0.1-0.2-0.2-0.2c0-0.1-0.1-0.1-0.1-0.1
										c0,0,0,0,0.1,0.1c0.1,0.1,0.1,0.1,0.2,0.2c0.2,0.2,0.5,0.5,0.8,0.8l0,0c2,0,6,0,10.6,0c4.6,0,8.6,0,10.6,0l0,0
										c0.3-0.4,0.6-0.6,0.8-0.8C127.7,6.1,127.8,6.1,127.9,5.9C127.9,6,127.9,5.9,127.9,5.9z"/>
								</g>
							</g>
						</g>
					</g>
				</g>
			</g>
		</g>
		<g>
			<g>
				<g>
					<g>
						<g>
							<g>
								<g>
									<path class="st7" d="M104.5,36.2C104.5,36.2,104.5,36.2,104.5,36.2c0.1-0.1,0.2-0.2,0.3-0.3c0.2-0.2,0.5-0.5,0.8-0.9l0,0
										l0,0c2,0,6,0,10.6,0c4.6,0,8.6,0,10.6,0l0,0l0,0c0.3,0.4,0.6,0.7,0.8,0.9c0.1,0.1,0.1,0.2,0.2,0.2c0,0.1,0.1,0.1,0.1,0.1
										c0,0,0,0-0.1-0.1c-0.1-0.1-0.1-0.1-0.2-0.2c-0.2-0.2-0.5-0.5-0.8-0.8l0,0c-2,0-6,0-10.6,0c-4.6,0-8.6,0-10.6,0l0,0
										c-0.3,0.4-0.6,0.6-0.8,0.8C104.7,36,104.6,36.1,104.5,36.2C104.5,36.2,104.5,36.2,104.5,36.2z"/>
								</g>
							</g>
						</g>
					</g>
				</g>
			</g>
		</g>
	</g>
	<g>
		<g>
			<g>
				<g>
					<g>
						<g>
							<rect x="105.6" y="7.1" class="st7" width="21.3" height="27.9"/>
						</g>
					</g>
				</g>
			</g>
		</g>
	</g>
	<g>
		<g>
			<g>
				<g>
					<g>
						<g>
							<path class="st5" d="M108.9,27c0.6-0.6,1.6-0.8,2.4-0.8c0.9,0,1.7,0.2,2.6,0.2c1.4,0,2.8-0.5,4.2-0.3
								c0.4,0.1,0.9,0.2,1.3,0.1c0.4-0.1,0.7-0.3,1.1-0.5c1-0.3,2.1,0.5,3,0.1v6.2h-14.6V27z"/>
						</g>
					</g>
				</g>
			</g>
		</g>
	</g>
	<g>
		<g>
			<g>
				<g>
					<g>
						<g>
							<g>
								<path class="st3" d="M109.2,27.1c0,0-0.1-3.7-0.1-8.3c0-4.6,0-8.3,0.1-8.3c0,0,0.1,3.7,0.1,8.3
									C109.2,23.4,109.2,27.1,109.2,27.1z"/>
							</g>
						</g>
					</g>
				</g>
			</g>
		</g>
	</g>
	<g>
		<g>
			<g>
				<g>
					<g>
						<g>
							<g>
								<path class="st3" d="M109.8,27.1c0,0-0.1-3.7-0.1-8.3c0-4.6,0-8.3,0.1-8.3c0,0,0.1,3.7,0.1,8.3
									C109.9,23.4,109.9,27.1,109.8,27.1z"/>
							</g>
						</g>
					</g>
				</g>
			</g>
		</g>
	</g>
	<g>
		<g>
			<g>
				<g>
					<g>
						<g>
							<g>
								<path class="st3" d="M110.5,27.1c0,0-0.1-3.7-0.1-8.3c0-4.6,0-8.3,0.1-8.3c0,0,0.1,3.7,0.1,8.3
									C110.6,23.4,110.5,27.1,110.5,27.1z"/>
							</g>
						</g>
					</g>
				</g>
			</g>
		</g>
	</g>
	<g>
		<g>
			<g>
				<g>
					<g>
						<g>
							<g>
								<path class="st3" d="M111.2,27.1c0,0-0.1-3.7-0.1-8.3c0-4.6,0-8.3,0.1-8.3c0,0,0.1,3.7,0.1,8.3
									C111.2,23.4,111.2,27.1,111.2,27.1z"/>
							</g>
						</g>
					</g>
				</g>
			</g>
		</g>
	</g>
	<g>
		<g>
			<g>
				<g>
					<g>
						<g>
							<g>
								<path class="st3" d="M111.8,27.1c0,0-0.1-3.7-0.1-8.3c0-4.6,0-8.3,0.1-8.3c0,0,0.1,3.7,0.1,8.3
									C111.9,23.4,111.9,27.1,111.8,27.1z"/>
							</g>
						</g>
					</g>
				</g>
			</g>
		</g>
	</g>
	<g>
		<g>
			<g>
				<g>
					<g>
						<g>
							<g>
								<path class="st3" d="M112.5,27.1c0,0-0.1-3.7-0.1-8.3c0-4.6,0-8.3,0.1-8.3c0,0,0.1,3.7,0.1,8.3
									C112.6,23.4,112.5,27.1,112.5,27.1z"/>
							</g>
						</g>
					</g>
				</g>
			</g>
		</g>
	</g>
	<g>
		<g>
			<g>
				<g>
					<g>
						<g>
							<g>
								<path class="st3" d="M113.2,27.1c0,0-0.1-3.7-0.1-8.3c0-4.6,0-8.3,0.1-8.3s0.1,3.7,0.1,8.3
									C113.2,23.4,113.2,27.1,113.2,27.1z"/>
							</g>
						</g>
					</g>
				</g>
			</g>
		</g>
	</g>
	<g>
		<g>
			<g>
				<g>
					<g>
						<g>
							<g>
								<path class="st3" d="M113.8,27.1c0,0-0.1-3.7-0.1-8.3c0-4.6,0-8.3,0.1-8.3c0,0,0.1,3.7,0.1,8.3
									C113.9,23.4,113.9,27.1,113.8,27.1z"/>
							</g>
						</g>
					</g>
				</g>
			</g>
		</g>
	</g>
	<g>
		<g>
			<g>
				<g>
					<g>
						<g>
							<g>
								<path class="st3" d="M114.5,27.1c0,0-0.1-3.7-0.1-8.3c0-4.6,0-8.3,0.1-8.3s0.1,3.7,0.1,8.3
									C114.6,23.4,114.5,27.1,114.5,27.1z"/>
							</g>
						</g>
					</g>
				</g>
			</g>
		</g>
	</g>
	<g>
		<g>
			<g>
				<g>
					<g>
						<g>
							<g>
								<path class="st3" d="M115.2,27.1c0,0-0.1-3.7-0.1-8.3c0-4.6,0-8.3,0.1-8.3c0,0,0.1,3.7,0.1,8.3
									C115.2,23.4,115.2,27.1,115.2,27.1z"/>
							</g>
						</g>
					</g>
				</g>
			</g>
		</g>
	</g>
	<g>
		<g>
			<g>
				<g>
					<g>
						<g>
							<g>
								<path class="st3" d="M115.8,27.1c0,0-0.1-3.7-0.1-8.3c0-4.6,0-8.3,0.1-8.3c0,0,0.1,3.7,0.1,8.3
									C115.9,23.4,115.9,27.1,115.8,27.1z"/>
							</g>
						</g>
					</g>
				</g>
			</g>
		</g>
	</g>
	<g>
		<g>
			<g>
				<g>
					<g>
						<g>
							<g>
								<path class="st3" d="M116.5,27.1c0,0-0.1-3.7-0.1-8.3c0-4.6,0-8.3,0.1-8.3c0,0,0.1,3.7,0.1,8.3
									C116.6,23.4,116.5,27.1,116.5,27.1z"/>
							</g>
						</g>
					</g>
				</g>
			</g>
		</g>
	</g>
	<g>
		<g>
			<g>
				<g>
					<g>
						<g>
							<g>
								<path class="st3" d="M117.2,27.1c0,0-0.1-3.7-0.1-8.3c0-4.6,0-8.3,0.1-8.3c0,0,0.1,3.7,0.1,8.3
									C117.2,23.4,117.2,27.1,117.2,27.1z"/>
							</g>
						</g>
					</g>
				</g>
			</g>
		</g>
	</g>
	<g>
		<g>
			<g>
				<g>
					<g>
						<g>
							<g>
								<path class="st3" d="M117.8,27.1c0,0-0.1-3.7-0.1-8.3c0-4.6,0-8.3,0.1-8.3c0,0,0.1,3.7,0.1,8.3
									C117.9,23.4,117.9,27.1,117.8,27.1z"/>
							</g>
						</g>
					</g>
				</g>
			</g>
		</g>
	</g>
	<g>
		<g>
			<g>
				<g>
					<g>
						<g>
							<g>
								<path class="st3" d="M118.5,27.1c0,0-0.1-3.7-0.1-8.3c0-4.6,0-8.3,0.1-8.3c0,0,0.1,3.7,0.1,8.3
									C118.6,23.4,118.5,27.1,118.5,27.1z"/>
							</g>
						</g>
					</g>
				</g>
			</g>
		</g>
	</g>
	<g>
		<g>
			<g>
				<g>
					<g>
						<g>
							<g>
								<path class="st3" d="M119.1,27.1c0,0-0.1-3.7-0.1-8.3c0-4.6,0-8.3,0.1-8.3c0,0,0.1,3.7,0.1,8.3
									C119.2,23.4,119.2,27.1,119.1,27.1z"/>
							</g>
						</g>
					</g>
				</g>
			</g>
		</g>
	</g>
	<g>
		<g>
			<g>
				<g>
					<g>
						<g>
							<g>
								<path class="st3" d="M119.8,27.1c0,0-0.1-3.7-0.1-8.3c0-4.6,0-8.3,0.1-8.3c0,0,0.1,3.7,0.1,8.3
									C119.9,23.4,119.9,27.1,119.8,27.1z"/>
							</g>
						</g>
					</g>
				</g>
			</g>
		</g>
	</g>
	<g>
		<g>
			<g>
				<g>
					<g>
						<g>
							<g>
								<path class="st3" d="M120.5,27.1c0,0-0.1-3.7-0.1-8.3c0-4.6,0-8.3,0.1-8.3c0,0,0.1,3.7,0.1,8.3
									C120.5,23.4,120.5,27.1,120.5,27.1z"/>
							</g>
						</g>
					</g>
				</g>
			</g>
		</g>
	</g>
	<g>
		<g>
			<g>
				<g>
					<g>
						<g>
							<g>
								<path class="st3" d="M121.1,27.1c0,0-0.1-3.7-0.1-8.3c0-4.6,0-8.3,0.1-8.3c0,0,0.1,3.7,0.1,8.3
									C121.2,23.4,121.2,27.1,121.1,27.1z"/>
							</g>
						</g>
					</g>
				</g>
			</g>
		</g>
	</g>
	<g>
		<g>
			<g>
				<g>
					<g>
						<g>
							<g>
								<path class="st3" d="M121.8,27.1c0,0-0.1-3.7-0.1-8.3c0-4.6,0-8.3,0.1-8.3c0,0,0.1,3.7,0.1,8.3
									C121.9,23.4,121.8,27.1,121.8,27.1z"/>
							</g>
						</g>
					</g>
				</g>
			</g>
		</g>
	</g>
	<g>
		<g>
			<g>
				<g>
					<g>
						<g>
							<g>
								<path class="st3" d="M122.5,27.1c0,0-0.1-3.7-0.1-8.3c0-4.6,0-8.3,0.1-8.3c0,0,0.1,3.7,0.1,8.3
									C122.5,23.4,122.5,27.1,122.5,27.1z"/>
							</g>
						</g>
					</g>
				</g>
			</g>
		</g>
	</g>
	<g>
		<g>
			<g>
				<g>
					<g>
						<g>
							<g>
								<path class="st3" d="M123.1,27.1c0,0-0.1-3.7-0.1-8.3c0-4.6,0-8.3,0.1-8.3c0,0,0.1,3.7,0.1,8.3
									C123.2,23.4,123.2,27.1,123.1,27.1z"/>
							</g>
						</g>
					</g>
				</g>
			</g>
		</g>
	</g>
</g>
<g>
	<g>
		<g>
			<path class="st5" d="M205.9,53.1c-0.4-2.2-1.6-2.8-3.2-3.5c-1.6-0.8-0.9-2.5-0.9-2.5h-0.3h-0.2h-0.3c0,0,0.7,1.7-0.9,2.5
				c-1.6,0.8-2.8,1.3-3.2,3.5c-0.4,2.2,0.7,5.1,0.7,5.1l3.9,0l3.9,0C205.2,58.2,206.4,55.3,205.9,53.1z"/>
		</g>
	</g>
	<g>
		<g>
			<g>
				<path class="st4" d="M194.1,47.6c0.3,0,14.7,0,14.7,0l-3.7-8.5h-7.8L194.1,47.6z"/>
			</g>
		</g>
	</g>
</g>
<g>
	<g>
		<g>
			<path class="st5" d="M176.7,56.4c-0.2-0.9-0.7-1.7-1.3-2.4c-2.2-2.5-5.6-3.8-8.9-4c-3.3-0.2-6.7,0.5-9.8,1.6
				c-1.8,0.6-3.6,1.4-4.9,2.8c-1.3,1.4-1.8,3.6-0.8,5.2l1.4,0.3c-0.2,0-0.4,0-0.7,0c7.2,0.3,14.4,0.3,21.6-0.1
				c0.9-0.1,2-0.1,2.7-0.8C176.6,58.4,176.8,57.4,176.7,56.4z"/>
		</g>
		<g>
			<g>
				<path class="st6" d="M167.7,53.2c0,0,0,0.1,0.1,0.2c0,0.1,0.1,0.3,0.1,0.5c0.1,0.4,0.2,1.1,0.3,1.8c0,0.7,0,1.3,0,1.8
					c0,0.2,0,0.4-0.1,0.5c0,0.1,0,0.2,0,0.2c0,0,0-0.3,0-0.7c0-0.5,0-1.1,0-1.8c0-0.7-0.1-1.3-0.2-1.7
					C167.7,53.4,167.6,53.2,167.7,53.2z"/>
			</g>
		</g>
		<g>
			<g>
				<path class="st6" d="M166,53.2c0,0,0,0-0.1,0c-0.1,0-0.2,0-0.4,0c-0.3,0-0.8-0.1-1.3-0.2c-0.6-0.1-1.3-0.1-2-0.1
					c-0.8,0-1.6,0-2.5,0c-0.9,0-1.7,0.1-2.5,0.2c-0.8,0.1-1.4,0.2-2,0.3c-0.6,0.1-1,0.2-1.3,0.2c-0.1,0-0.3,0.1-0.4,0.1
					c-0.1,0-0.1,0-0.1,0c0,0,0,0,0.1,0c0.1,0,0.2-0.1,0.4-0.1c0.3-0.1,0.8-0.2,1.3-0.3c0.6-0.1,1.2-0.2,2-0.3
					c0.8-0.1,1.6-0.1,2.5-0.2c0.9,0,1.7,0,2.5,0c0.8,0,1.4,0.1,2,0.2c0.6,0.1,1,0.1,1.3,0.2c0.1,0,0.3,0,0.4,0.1
					C166,53.2,166,53.2,166,53.2z"/>
			</g>
		</g>
		<g>
			<g>
				<path class="st6" d="M172.9,53.2c0,0-0.3,0-0.7,0c-0.4,0-1-0.1-1.6-0.1c-0.6,0-1.2,0-1.6,0c-0.4,0-0.7,0-0.7,0
					c0,0,0.2-0.1,0.6-0.1c0.4,0,1-0.1,1.6-0.1c0.6,0,1.2,0.1,1.6,0.1C172.7,53.1,172.9,53.2,172.9,53.2z"/>
			</g>
		</g>
	</g>
	<g>
		<polygon class="st4" points="80.7,88.6 79.1,88.6 78.5,78.1 81.2,78.1 		"/>
	</g>
	<g>
		<polygon class="st4" points="112,88.6 110.4,88.6 109.8,76.7 112.5,76.7 		"/>
	</g>
	<g>
		<polygon class="st4" points="176.8,88.6 175.2,88.6 174.6,75.1 177.3,75.1 		"/>
	</g>
	<g>
		<path class="st5" d="M171.4,75.1H74v-3.7c0-6.6,5.4-12,12-12h86.7c4,0,7.2,3.2,7.2,7.2v0C179.9,71.3,176.1,75.1,171.4,75.1z"/>
	</g>
	<g class="st8">
		<polygon class="st4" points="148.2,75.2 149.9,75.1 148.6,59.6 146.3,59.4 		"/>
	</g>
	<g>
		<path class="st4" d="M73.9,76.1v-14c0-1.9,1.5-3.4,3.4-3.4l22.1-0.1l4.7,0h9.8h9.2l19.5,0.2c0,0,3.8-0.2,5.2,1.9
			c1.6,2.3,0.2,16,0.2,16L73.9,76.1z"/>
	</g>
	<g>
		<path class="st4" d="M73.9,73.3v2.9c-0.1,2.5,0.4,2.6,1.6,3.1c1.2,0.5,2.4,0.1,3.6-0.3c1.2-0.4,2.3-0.9,3.6-0.9
			c2.5,0.1,4.5,2.3,7,2.4c3.2,0,5.7-3.6,8.8-3.3c2.4,0.2,4.3,2.7,6.7,2.5c1.7-0.2,3-1.6,4.7-1.9c2.1-0.4,4.1,1.3,6.2,1.6
			c2.9,0.4,5.7-1.7,8.6-1.4c2.5,0.3,4.6,2.3,7.2,2.5c3.2,0.3,6.1-2.3,9.2-2.1c2.6,0.2,4.9,2.5,7.5,2.4l-0.5-6.2L73.9,73.3z"/>
	</g>
	<g>
		<g>
			<path class="st6" d="M114,76.7c0,0-0.1-3.6-0.1-8.1c0-4.5,0-8.1,0.1-8.1s0.1,3.6,0.1,8.1C114,73,114,76.7,114,76.7z"/>
		</g>
	</g>
	<g>
		<g>
			<path class="st7" d="M115.4,58.9C115.4,58.9,115.3,58.9,115.4,58.9c-0.2,0-0.3,0-0.4,0c-0.3,0-0.6,0-1.1,0c-1,0-2.3,0-4,0
				c-3.4,0-8.1,0-13.2,0c-5.2,0-9.9,0-13.2,0c-1.7,0-3.1,0-4,0c-0.5,0-0.8,0-1.1,0c-0.1,0-0.2,0-0.3,0c-0.1,0-0.1,0-0.1,0s0,0,0.1,0
				c0.1,0,0.2,0,0.3,0c0.3,0,0.6,0,1.1,0c1,0,2.3,0,4,0c3.4,0,8.1,0,13.2,0c5.2,0,9.9,0,13.2,0c1.7,0,3.1,0,4,0c0.5,0,0.8,0,1.1,0
				C115.1,58.9,115.2,58.9,115.4,58.9C115.3,58.9,115.4,58.9,115.4,58.9z"/>
		</g>
	</g>
	<g>
		<g>
			<path class="st6" d="M144.6,59.4c0,0-4,0-8.8,0c-4.9-0.1-8.8-0.1-8.8-0.2c0,0,4,0,8.8,0C140.6,59.3,144.6,59.4,144.6,59.4z"/>
		</g>
	</g>
	<g>
		<g>
			<path class="st6" d="M146.3,78.2c0,0-0.3-3.7-0.7-8.3c-0.3-4.6-0.6-8.3-0.6-8.3c0,0,0.3,3.7,0.7,8.3
				C146.1,74.5,146.3,78.2,146.3,78.2z"/>
		</g>
	</g>
	<g>
		<g>
			<path class="st6" d="M87.9,69.4c0,0,0,1.9-0.1,4.2c-0.1,2.3-0.2,4.2-0.2,4.2c0,0,0-1.9,0.1-4.2C87.7,71.3,87.8,69.4,87.9,69.4z"
				/>
		</g>
	</g>
	<g>
		<g>
			<path class="st6" d="M91.3,77.3c0,0-0.1-2.9-0.1-6.4c0-3.6,0-6.4,0.1-6.4c0,0,0.1,2.9,0.1,6.4C91.4,74.4,91.3,77.3,91.3,77.3z"/>
		</g>
	</g>
	<g>
		<g>
			<path class="st6" d="M101.1,76c0,0,0,0,0-0.1c0-0.1,0-0.2-0.1-0.3c0-0.3-0.1-0.6-0.2-1.1c-0.1-0.9-0.3-2.2-0.4-3.6
				c-0.1-1.4-0.2-2.7-0.2-3.6c0-0.5,0-0.8,0-1.1c0-0.1,0-0.2,0-0.3c0-0.1,0-0.1,0-0.1c0,0,0,0,0,0.1c0,0.1,0,0.2,0,0.3
				c0,0.3,0,0.6,0.1,1.1c0,0.9,0.1,2.2,0.3,3.6c0.1,1.4,0.3,2.7,0.4,3.6c0.1,0.4,0.1,0.8,0.1,1.1c0,0.1,0,0.2,0,0.3
				C101.1,75.9,101.1,76,101.1,76z"/>
		</g>
	</g>
	<g>
		<g>
			<path class="st6" d="M104.5,77.4C104.5,77.4,104.5,77.4,104.5,77.4c-0.1-0.2-0.1-0.3-0.2-0.4c-0.1-0.2-0.3-0.6-0.4-1.1
				c-0.2-0.5-0.3-1-0.5-1.6c-0.2-0.6-0.3-1.3-0.4-2.1c-0.1-0.7-0.2-1.4-0.2-2.1c0-0.6,0-1.2,0-1.7c0-0.5,0-0.9,0.1-1.2
				c0-0.1,0-0.2,0-0.3c0-0.1,0-0.1,0-0.1c0,0,0,0,0,0.1c0,0.1,0,0.2,0,0.3c0,0.3,0,0.7,0,1.1c0,0.5,0,1.1,0.1,1.7
				c0,0.6,0.1,1.3,0.2,2.1c0.1,0.7,0.3,1.4,0.4,2c0.2,0.6,0.3,1.2,0.5,1.6c0.1,0.5,0.3,0.8,0.4,1.1c0,0.1,0.1,0.2,0.1,0.3
				C104.5,77.4,104.5,77.4,104.5,77.4z"/>
		</g>
	</g>
	<g>
		<g>
			<path class="st6" d="M121.6,66.6c0,0-0.2,2.4-0.4,5.5c-0.3,3-0.5,5.4-0.5,5.4c0,0,0.2-2.4,0.4-5.5
				C121.4,69,121.6,66.6,121.6,66.6z"/>
		</g>
	</g>
	<g>
		<g>
			<path class="st6" d="M127,76.5c0,0,0,0,0-0.1c0-0.1-0.1-0.2-0.1-0.3c-0.1-0.3-0.2-0.7-0.3-1.2c-0.3-1-0.6-2.4-0.8-4
				c-0.2-1.6-0.2-3-0.2-4c0-0.5,0-0.9,0-1.2c0-0.1,0-0.2,0-0.3c0-0.1,0-0.1,0-0.1c0,0,0,0,0,0.1c0,0.1,0,0.2,0,0.3
				c0,0.3,0,0.7,0,1.2c0,1,0.1,2.5,0.3,4c0.2,1.6,0.5,3,0.7,4c0.1,0.5,0.2,0.9,0.3,1.2c0,0.1,0.1,0.2,0.1,0.3
				C127,76.5,127,76.5,127,76.5z"/>
		</g>
	</g>
	<g>
		<g>
			<path class="st6" d="M138.5,77.3c0,0-0.2-2.1-0.4-4.7c-0.2-2.6-0.3-4.7-0.2-4.7c0,0,0.2,2.1,0.4,4.7
				C138.4,75.2,138.5,77.3,138.5,77.3z"/>
		</g>
	</g>
	<g>
		<g>
			<path class="st7" d="M177.5,59.4c0,0-6.8,0.1-15.2,0.1c-8.4,0-15.2,0-15.2-0.1c0,0,6.8-0.1,15.2-0.1
				C170.7,59.4,177.5,59.4,177.5,59.4z"/>
		</g>
	</g>
</g>
</svg>
