<?xml version="1.0" encoding="utf-8"?>
<!-- Generator: Adobe Illustrator 25.2.3, SVG Export Plug-In . SVG Version: 6.00 Build 0)  -->
<svg version="1.1" id="Capa_1" xmlns="http://www.w3.org/2000/svg" xmlns:xlink="http://www.w3.org/1999/xlink" x="0px" y="0px"
	 viewBox="0 0 50 50" style="enable-background:new 0 0 50 50;" xml:space="preserve">
<style type="text/css">
	.st0{fill:#B2B2B2;}
</style>
<g>
	<path class="st0" d="M21.2,32.9c-0.2,0.9-0.4,1.8-0.5,2.7c-0.2,1.6-0.8,2.9-1.9,4.1c-1.8,2.2-3.6,4.4-5.4,6.5
		c-0.3,0.4-0.7,0.7-1.2,1C11.4,48,10,47.8,9.2,47c-0.4-0.5-0.5-1.1-0.2-1.6c0.3-0.6,0.6-1.2,1-1.7c1.7-2.4,3.4-4.7,5.1-7
		c0.3-0.4,0.5-0.8,0.5-1.2c0.5-2.7,1-5.3,1.4-8c0.3-1.9,0.5-3.8,0.8-5.7c0.4-2,0.8-4,1.3-5.9c0.3-1.2,0.9-2.4,1.8-3.3
		c1.1-1.2,2.3-1.5,3.8-0.9c1.4,0.6,2.5,1.4,3.3,2.8c1.2,2.3,2.6,4.4,3.9,6.7c0.1,0.2,0.2,0.3,0.4,0.4c2,0.4,3.9,0.8,5.9,1.3
		c0-0.6,0-1.1,0-1.7c0.5,0,1,0,1.5,0c0,0.5,0,1.1,0,1.6c0,0.3,0.1,0.4,0.3,0.5c0.7,0.3,1.1,0.9,1.1,1.6c0,0.7-0.5,1.3-1.2,1.4
		c-0.3,0.1-0.4,0.2-0.4,0.5c-0.2,4.3-0.3,8.5-0.5,12.8c-0.1,3-0.2,5.9-0.4,8.9c0,0.2,0.1,0.5-0.2,0.4c-0.1,0-0.2-0.3-0.2-0.4
		c0-7.2,0-14.5,0-21.7c0-0.5-0.1-0.7-0.6-0.8c-2.2-0.4-4.4-0.9-6.6-1.4c-0.7-0.1-1.2-0.5-1.5-1.1c-0.6-1.2-1.3-2.3-2-3.5
		c-0.1-0.1-0.2-0.2-0.3-0.4c-0.2,1-0.4,1.9-0.5,2.9c-0.4,2.3-0.9,4.6-1.3,6.9c-0.1,0.3,0,0.5,0.2,0.7c1.6,1,3.2,2,4.8,3.1
		c0.5,0.3,0.9,0.8,1.1,1.4c1.2,3.7,2.4,7.4,3.6,11c0.4,1.4-0.2,2.7-1.6,3.1c-1.3,0.4-2.7-0.3-3.1-1.7c-1.1-3.2-2.1-6.4-3.2-9.6
		c-0.1-0.2-0.2-0.4-0.3-0.5c-1.8-1.3-3.7-2.6-5.5-3.8C21.4,32.9,21.3,32.9,21.2,32.9z"/>
	<path class="st0" d="M9.9,23.9c0.2-3.7,1.3-7.2,3.2-10.4c0.9-1.5,2.3-2.3,4.1-2.2c0.3,0,0.6,0.1,0.9,0.2c0.4,0.2,0.6,0.4,0.5,0.9
		c-1,5.1-1.9,10.1-2.8,15.2c-0.1,0.4-0.2,0.6-0.6,0.5c-0.9-0.1-1.9-0.1-2.7-0.3c-1.7-0.4-2.5-1.4-2.6-3.2
		C9.9,24.4,9.9,24.2,9.9,23.9z"/>
	<path class="st0" d="M25.4,1.3C28,1.3,30,3.4,30,5.9c0,2.6-2.1,4.6-4.6,4.6c-2.5,0-4.6-2.1-4.6-4.6C20.8,3.4,22.9,1.3,25.4,1.3z"/>
</g>
</svg>
