<?xml version="1.0" encoding="utf-8"?>
<!-- Generator: Adobe Illustrator 25.2.3, SVG Export Plug-In . SVG Version: 6.00 Build 0)  -->
<svg version="1.1" id="Capa_1" xmlns="http://www.w3.org/2000/svg" xmlns:xlink="http://www.w3.org/1999/xlink" x="0px" y="0px"
	 viewBox="0 0 78.9 50" style="enable-background:new 0 0 78.9 50;" xml:space="preserve">
<style type="text/css">
	.st0{fill:#B2B2B2;}
</style>
<g>
	<path class="st0" d="M55.3,10.1c2.3-0.8,4.5-1.6,6.8-2.5c0,1,0.2,1.8,1,2.5c-0.4,0.1-0.7,0.3-1,0.4c-0.5,0.2-1,0.4-1.6,0.6
		c-2,0.7-3.9,1.4-5.9,2.1c-0.3,0.1-0.4,0.2-0.6,0.5c-0.6,1.2-1.2,2.4-1.8,3.6c-0.7,1.4-1.8,2.1-3.4,2.1c-1.4,0-2.8,0-4.2,0
		c-0.3,0-0.4,0.1-0.5,0.4c-0.6,3.2-1.2,6.4-1.8,9.5c0,0.1,0,0.2,0,0.3c0.2,0,0.3,0,0.4,0c2.7,0,5.3,0,8,0.1c2.3,0,4.6,0.1,7,0.1
		c2.2,0.1,4.3,0.1,6.5,0.3c1.8,0.1,3.7,0.2,5.4,0.7c0.5,0.1,0.9,0.3,1.3,0.5c0.5,0.3,0.6,0.7,0.1,1c-0.6,0.4-1.2,0.7-1.9,1
		c-1.9,0.7-3.9,1.1-5.8,1.5c-3.1,0.6-6.2,1-9.4,1.3c-6.8,0.7-13.7,0.9-20.5,0.8c-3.6-0.1-7.3-0.3-10.9-0.6
		c-3.7-0.3-7.3-0.8-10.9-1.5c-0.2,0-0.4-0.1-0.7-0.2c0.2-0.1,0.3-0.2,0.4-0.3c1.4-1,2.7-2.1,3.7-3.5c0.2-0.2,0.3-0.5,0.4-0.7
		c0.1-0.2,0.2-0.3,0.5-0.3c1.5,0,3.1-0.1,4.6-0.1c2.2,0,4.5-0.1,6.7-0.1c1.6,0,3.3,0,4.9,0c0.5,0,0.5,0,0.6-0.5
		c0.6-3.1,1.2-6.2,1.8-9.3c0-0.1,0-0.2,0.1-0.4c-0.2,0-0.3,0-0.4,0c-0.9,0-1.8,0-2.7,0c-0.3,0-0.5,0.1-0.7,0.4
		c-0.7,1.5-1.4,2.9-2.1,4.4c-0.7,1.5-2,1.9-3.5,1.2c-0.1-0.1-0.3-0.1-0.4,0c-1.1,0.4-2.2,0.8-3.3,1.2c-0.9,0.3-1.9,0.6-2.8,1
		c-0.8,0.3-1.5,0.6-2.3,0.8c-0.1,0-0.3,0.1-0.4,0.1c0-1-0.2-1.8-0.9-2.5c0.2-0.1,0.3-0.1,0.4-0.2c2.7-1,5.4-1.9,8.1-2.9
		c0.3-0.1,0.5-0.3,0.6-0.6c0.4-0.9,0.9-1.8,1.3-2.7c0.5-1,0.9-1.9,1.4-2.9c0.7-1.4,1.8-2.1,3.4-2.1c5.7,0,11.4,0,17.2,0
		c0.4,0,0.6-0.2,0.8-0.5c0.7-1.5,1.5-3,2.2-4.5c0.5-1,1.3-1.5,2.4-1.4c1,0.1,1.7,0.6,2.1,1.6C55.2,9.9,55.3,10,55.3,10.1z"/>
	<path class="st0" d="M70.1,45.1c-0.7-0.1-1.3-0.1-2-0.3c-0.9-0.2-1.7-0.4-2.5-0.6c-0.8-0.3-1.6-0.7-2.3-1.1
		c-1.6-0.7-3.2-1.1-4.9-1.1c-2.2-0.1-4.3,0.3-6.3,1.4c-1.3,0.7-2.7,1.2-4.1,1.5c-1.4,0.2-2.8,0.3-4.2,0.2c-0.9-0.1-1.9-0.2-2.8-0.4
		c-0.7-0.2-1.5-0.4-2.2-0.8c-1.4-0.7-2.8-1.3-4.4-1.6c-1-0.2-1.9-0.2-2.9-0.1c-1.9,0-3.6,0.5-5.3,1.4c-1.5,0.7-3,1.3-4.6,1.5
		c-1.6,0.2-3.1,0.2-4.7,0c-1.2-0.2-2.4-0.4-3.5-0.9c-0.6-0.3-1.2-0.6-1.8-0.9c-1-0.5-2-0.8-3-1C7.8,42,7.1,42.1,6.3,42
		c-0.3,0-0.6-0.1-0.9-0.2c-0.5-0.3-0.7-0.9-0.5-1.5c0.2-0.5,0.6-0.9,1.2-1c1.2,0,2.4,0.1,3.6,0.3c1.2,0.3,2.3,0.7,3.5,1.3
		c0.7,0.3,1.5,0.7,2.3,1c1,0.3,2,0.4,3,0.5c2.4,0.1,4.6-0.4,6.7-1.5c3.4-1.8,7.1-2,10.8-1.2c1.1,0.2,2.2,0.7,3.2,1.2
		c1.4,0.7,3,1.3,4.6,1.4c2.1,0.1,4.2,0,6.1-0.9c0.9-0.4,1.8-0.9,2.7-1.2c2.2-0.9,4.4-1,6.7-0.9c2,0.1,3.9,0.7,5.7,1.6
		c1.3,0.6,2.6,1.2,4,1.3c0.7,0.1,1.3,0.1,2,0.1c0.7,0,1.1,0.5,1.3,1.2c0.1,0.4-0.3,1.2-0.8,1.4c-0.2,0-0.3,0.1-0.5,0.1
		C70.6,45.1,70.4,45.1,70.1,45.1C70.1,45.1,70.1,45.1,70.1,45.1z"/>
	<path class="st0" d="M9.6,26.4c1,0.1,1.9,0.2,2.9,0.4c0.3,0.1,0.7,0.2,1,0.4c0.6,0.4,0.8,0.9,0.5,1.6c-0.2,0.5-0.5,1-0.9,1.4
		c-1.6,1.8-3.6,3.2-5.8,4.2C6,35,4.5,34.7,3.3,33.7c-1.2-1-1.6-2.3-1.3-3.7c0.3-1.5,1.3-2.4,2.7-2.9C6.3,26.6,8,26.5,9.6,26.4
		C9.6,26.5,9.6,26.4,9.6,26.4z"/>
	<path class="st0" d="M76.4,5.3c0,1.8-1.3,3.3-3,3.7c-1.4,0.3-2.8,0.5-4.3,0.5c-1.4,0-2.9,0-4.2-0.6c-0.6-0.3-0.9-0.8-0.7-1.4
		c0.2-0.5,0.4-1,0.8-1.4c1.2-1.5,2.8-2.6,4.4-3.6c0.7-0.4,1.5-0.9,2.4-1C74.2,1.1,76.4,2.9,76.4,5.3z"/>
	<path class="st0" d="M41.7,11.5c-2.5,0-4.6-2.1-4.6-4.6c0-2.5,2.1-4.6,4.6-4.5c2.5,0,4.5,2.1,4.5,4.6C46.3,9.5,44.1,11.5,41.7,11.5
		z"/>
</g>
</svg>
