<?xml version="1.0" encoding="utf-8"?>
<!-- Generator: Adobe Illustrator 25.0.1, SVG Export Plug-In . SVG Version: 6.00 Build 0)  -->
<svg version="1.1" id="Capa_1" xmlns="http://www.w3.org/2000/svg" xmlns:xlink="http://www.w3.org/1999/xlink" x="0px" y="0px"
	 viewBox="0 0 43.21 27.09" style="enable-background:new 0 0 43.21 27.09;" xml:space="preserve">
<style type="text/css">
	.st0{fill:#3F564F;}
</style>
<g>
	<path class="st0" d="M2.97,16.37c0.48-1.46,2.68-2.4,4.14-1.87c1.2,0.44,2.32,0.71,3.51,1.16c0.29,0.11,0.76,0.18,0.82,0.46
		c0.04,0.21,0.12,0.68-0.05,0.92c-0.46,0.35-0.77,0.18-0.81,0.14c-1.45-1.2-1.23-1.41-2.3,0.41c-0.75,1.28-1.34,2.65-2,4.02
		c-0.12,0.25-0.43,0.33-0.65,0.18c-0.69-0.47-1.5-0.86-1.88-1.59c-0.14-0.26-0.49-0.02-0.86-0.11c-0.24-0.06-0.41-0.28-0.46-0.52
		C2.08,17.6,2.63,17.39,2.97,16.37z"/>
	<path class="st0" d="M21.4,12.83c-1.61,0.15-3.07,1.43-3.03,4.16c-0.65-0.29-1.25-0.56-1.98-0.89c0.36-0.26,0.6-0.43,1.03-0.74
		c-0.84,0-1.49-0.02-2.14,0c-1.49,0.07-2.9-0.16-4.31-0.7C9.26,14,7.41,13.69,5.91,12.55c-0.96-0.73-1.12-1.82-1.26-2.88
		C4.6,9.27,4.83,8.89,5.45,8.9C6.9,8.94,8.38,9.01,9.82,8.83c1.54-0.2,2.85,0.28,4,1.1c1.16,0.82,2.44,1.12,3.75,1.48
		c1.31,0.36,2.61,0.75,3.91,1.12C21.45,12.63,21.42,12.73,21.4,12.83z M8,9.75c0.68,1.07,1.08,1.25,1.88,0.34
		C9.54,9.15,8.73,8.9,8,9.75z"/>
	<path class="st0" d="M26.23,20.39c-0.63-1.29-1.23-2.49-1.85-3.75c-0.7,0.67-0.32,1.3-0.1,1.88c0.61,1.56,1.3,3.08,1.88,4.64
		c0.19,0.52,0.23,1.15,0.14,1.7c-0.12,0.71-0.53,1.22-1.12,1.41c-0.19,0.06-0.4-0.03-0.53-0.18c-0.23-0.28-0.43-0.55-0.69-0.7
		c-0.28-0.17-0.55-0.31-1.11-0.26c-0.4,0.17-0.72,0.3-1.13,0.47c-0.59-0.17-0.56-0.4-0.78-0.92c-0.04-0.57,0.31-0.53,0.41-0.82
		c0.2-0.59,0.22-1.09-0.1-1.75c-0.65-1.33-1.11-2.76-1.48-4.19c-0.2-0.78-0.12-1.65-0.1-2.49c0.01-0.72,0.56-1.3,1.27-1.42
		c1.58-0.26,2.97,0.17,4.31,0.79c1.15,0.53,2.49,1.94,2.89,3.14C28.7,19.71,27.9,20.6,26.23,20.39z"/>
	<path class="st0" d="M27.89,11.86c-1.22-0.54-2.45-1.07-3.66-1.65c-0.12-0.06-0.2-0.54-0.1-0.69c0.78-1.12,0.89-2.42,1.01-3.71
		c0.05-0.55,0.19-0.82,0.75-0.97c0.72-0.2,1.43-0.46,2.09-0.8c0.61-0.31,1.05-0.21,1.44,0.29c0.97,1.24,1.94,2.48,2.89,3.74
		c0.63,0.83,0.15,1.56-0.56,1.93c-1.09,0.58-2.23,1.06-3.36,1.58c-0.13,0.06-0.28,0.07-0.42,0.1C27.95,11.74,27.92,11.8,27.89,11.86
		z"/>
	<path class="st0" d="M24.1,5.95c-0.08,0.66-0.14,1.33-0.24,1.99c-0.24,1.57-1.27,2.12-2.91,1.5c-1.5-0.57-2.97-1.2-4.46-1.8
		c-0.48-0.19-0.95-0.39-1.45-0.51c-0.63-0.16-0.62-0.56-0.34-0.96c0.99-1.45,2.28-2.44,4.1-2.73c1.41-0.22,2.77-0.26,4.06,0.4
		C23.86,4.34,24.29,4.8,24.1,5.95z"/>
	<path class="st0" d="M29.38,12.13c0.92,1.23,1.37,2.53,1.55,3.85c0.06,0.48,0.12,0.96-0.54,1.08c-0.57,0.1-1.2,0.64-1.59-0.43
		c-0.6-1.64-2.13-2.41-3.54-3.2c-1.81-1.01-3.67-1.96-5.53-2.87c-0.56-0.27-1.23-0.31-1.85-0.47c-0.86-0.23-1.75-0.4-2.57-0.73
		c-1.02-0.41-2.58-1.09-3.2-1.68c0.51-0.18,0.84-0.33,1.19-0.42c0.17-0.04,0.51,0.05,0.67,0.12c0.99,0.42,2.23,0.89,3.23,1.31
		c1,0.42,1.92,0.77,2.93,1.18c0.95,0.38,1.8,0.78,2.95,0.51c0.44-0.1,1.24,0.91,1.83,1.17C26.41,12.2,26.9,12.88,29.38,12.13z"/>
	<path class="st0" d="M40.88,23.26c-0.49-0.14-0.91,0.12-1.81,0.02c-0.45-0.47-0.88-0.18-1.39,0.31c-0.26,0.21-0.56-0.24-0.82-0.32
		c-0.25-0.08-0.44-0.29-0.49-0.55c-0.17-0.78-0.25-1.59-0.43-2.35c-0.04-0.18,0.02-0.44,0.14-0.58c0.86-0.98,1.74-1.93,2.75-3.05
		c0.29,0.71,0.82,1.24,0.96,1.83c0.34,1.42,1.28,2.18,1.1,4.1C40.87,22.77,40.87,23.33,40.88,23.26z"/>
	<path class="st0" d="M29.43,18.45c0.8-0.35,1.5-0.66,2.2-0.97c0.1-0.05,0.24-0.12,0.32-0.09c0.93,0.34,1.7,0.06,2.42-0.54
		c0.13-0.11,0.37-0.1,0.56-0.11c0.68-0.01,1.36,0,2.12,0c0,0.03,0.04,0.18-0.01,0.3c-0.93,2.24-3.02,3.6-5.48,3.58
		c-0.53,0-1.06,0.05-1.58,0.01c-0.48-0.04-0.93-0.13-0.66-0.86C29.47,19.34,29.41,18.84,29.43,18.45z"/>
	<path class="st0" d="M18.62,2.4c-0.32-0.62,0.04-0.75,0.5-0.86c2.66-0.6,5.34-0.39,8.02-0.26c0.6,0.03,1.18,0.36,2.06,0.65
		c-0.5,0.48-0.82,0.97-1.27,1.18c-0.9,0.42-1.87,0.7-2.82,1c-0.17,0.06-0.48,0.05-0.58-0.06c-1.55-1.65-3.51-1.85-5.6-1.68
		C18.82,2.38,18.71,2.39,18.62,2.4z"/>
	<path class="st0" d="M10.86,18.47c-0.1-0.7,0.61-1,1.15-0.58c0.18,0.14,0.66,0.43,0.96,0.3l-0.38-1.17
		c-0.11-0.34,0.18-0.68,0.54-0.62c0.83,0.14,1.53,0.25,2.2,0.45c0.93,0.28,1.82,0.72,2.72,1.1c0.41,0.18,0.95,1.71,0.74,2.08
		c-0.06,0.1-0.24,0.22-0.34,0.2c-3.21-0.4-3.19-0.65-4.79-0.97c-0.65-0.13-0.39-0.04-1.04-0.2C12.34,18.99,11.11,19.09,10.86,18.47z
		"/>
	<path class="st0" d="M30.26,11.7c0.96-0.53,1.87-1.03,2.8-1.54c0.67,1.75,0.84,3.57,0.88,5.43c0.02,1.03-0.83,0.67-1.25,0.9
		c-0.24,0.13-0.72-0.07-0.87-0.68c-0.27-1.1-0.79-2.14-1.21-3.21C30.5,12.32,30.38,12.02,30.26,11.7z"/>
	<path class="st0" d="M30.03,2.27c1.13,0.83,2.31,1.58,3.35,2.49c0.7,0.61,1.23,1.41,1.78,2.17c0.44,0.61-0.14,1.08-0.49,1.29
		c-0.36,0.21-0.98,0.39-1.38-0.23c-0.8-1.26-1.62-2.51-2.48-3.73c-0.22-0.32-0.61-0.52-0.92-0.79C29.47,3.12,29.43,2.76,30.03,2.27z
		"/>
	<path class="st0" d="M34.12,9.47c0.87-0.37,1.31,0.11,1.52,0.97c0.36,1.55,0.7,3.1,1.07,4.64c0.13,0.54-0.06,0.79-0.59,0.79
		c-0.47,0-1,0.15-1.1-0.6C34.74,13.34,34.42,11.43,34.12,9.47z"/>
	<path class="st0" d="M12.39,6.85c0.34-3.05,2.98-3.49,4.86-4.77c0.08,0.06,0.16,0.12,0.24,0.18c-0.19,0.28-0.34,0.6-0.58,0.82
		c-1.02,0.98-2.04,1.96-3.1,2.89C13.39,6.33,12.86,6.56,12.39,6.85z"/>
	<path class="st0" d="M36.17,8.31c0.82,1.94,1.64,3.89,2.45,5.83c0.09,0.21,0.23,0.46,0.19,0.66c-0.05,0.25-0.26,0.46-0.4,0.69
		c-0.24-0.15-0.63-0.25-0.68-0.44c-0.34-1.31-0.58-2.65-0.91-3.96c-0.15-0.59-0.43-1.14-0.64-1.7c-0.12-0.31-0.23-0.62-0.35-0.93
		C35.94,8.41,36.05,8.36,36.17,8.31z"/>
	<path class="st0" d="M39.16,12.38c0.27,0.45,0.53,0.9,0.8,1.34c-0.12,0.06-0.24,0.13-0.36,0.19c-0.22-0.48-0.43-0.95-0.65-1.43
		C39.02,12.46,39.09,12.42,39.16,12.38z"/>
</g>
</svg>
