<?xml version="1.0" encoding="utf-8"?>
<!-- Generator: Adobe Illustrator 25.0.1, SVG Export Plug-In . SVG Version: 6.00 Build 0)  -->
<svg version="1.1" xmlns="http://www.w3.org/2000/svg" xmlns:xlink="http://www.w3.org/1999/xlink" x="0px" y="0px"
	 viewBox="0 0 889.71 668.57" style="enable-background:new 0 0 889.71 668.57;" xml:space="preserve">
<style type="text/css">
	.st0{fill:#F0EDE2;}
	.st1{fill:#DDDBD0;}
	.st2{fill:#6DA1A1;}
	.st3{fill:#588281;}
	.st4{fill:#E6BA59;}
	.st5{fill:#C7A24F;}
	.st6{fill:#4E4F51;}
	.st7{fill:#404042;}
	.st8{font-family:'HelveticaNeueLTPro-MdCn';}
	.st9{font-size:71.1314px;}
	.st10{fill:#303030;}
	.st11{letter-spacing:3.73;}
</style>
<g id="BG">
</g>
<g id="Object">
	<g>
		<g>
			<path class="st0" d="M637.17,86.82H444.56H251.95c-12.14,0-21.98,9.84-21.98,21.98v281.33c0,12.14,9.84,21.98,21.98,21.98h192.61
				h192.61c12.14,0,21.99-9.84,21.99-21.98V108.8C659.16,96.66,649.31,86.82,637.17,86.82z"/>
			<g>
				<path class="st1" d="M621.63,399.12c11.12,0,20.14-9.02,20.14-20.14V121.21c0-11.12-9.02-20.14-20.14-20.14H445.15v298.05
					H621.63z"/>
			</g>
			<path class="st2" d="M436.46,332.87l-43.94-52.02c-5.68-6.72-19.86-6.72-25.54,0L236.84,384.89
				c-5.67,6.72,1.42,15.12,12.77,15.12h130.13h54.43h11.55v-56.18L436.46,332.87z"/>
			<path class="st3" d="M654.04,378.99l-79.93-144.65c-7.89-9.34-27.61-9.34-35.5,0l-61.09,72.32l-31.59,37.4l-0.02-0.03l-0.18-0.21
				v56.18h0.18h21.74h88.72h82.28C654.41,400.01,661.93,388.33,654.04,378.99z"/>
			<g>
				<path class="st4" d="M314.8,210.12c0,16.83,13.64,30.47,30.47,30.47v-60.95C328.44,179.64,314.8,193.29,314.8,210.12z"/>
				<path class="st5" d="M345.27,179.64v60.95c16.83,0,30.47-13.64,30.47-30.47C375.74,193.29,362.1,179.64,345.27,179.64z"/>
			</g>
			<path class="st6" d="M268.68,399.12c-11.13,0-20.14-9.02-20.14-20.14V121.21c0-11.12,9.02-20.14,20.14-20.14h176.47v-11.9H252.54
				c-12.14,0-21.99,9.84-21.99,21.98v281.33c0,12.14,9.84,21.99,21.99,21.99h192.61v-15.35H268.68z"/>
			<path class="st7" d="M637.76,89.17H445.15v11.9h176.47c11.12,0,20.14,9.02,20.14,20.14v257.76c0,11.13-9.02,20.14-20.14,20.14
				H445.15v15.35h192.61c12.14,0,21.98-9.84,21.98-21.99V111.16C659.74,99.02,649.9,89.17,637.76,89.17z"/>
		</g>
		<text transform="matrix(1.15 0 0 1 285.0642 498.3876)" class="st7 st8 st9">NO IMAGE</text>
		<text transform="matrix(1.34 0 0 1 222.298 566.3876)" class="st10 st8 st9 st11">AVAILABLE</text>
	</g>
</g>
</svg>
