<?xml version="1.0" encoding="utf-8"?>
<!-- Generator: Adobe Illustrator 26.0.1, SVG Export Plug-In . SVG Version: 6.00 Build 0)  -->
<svg version="1.1" id="Capa_1" xmlns="http://www.w3.org/2000/svg" xmlns:xlink="http://www.w3.org/1999/xlink" x="0px" y="0px"
	 viewBox="0 0 500 500" style="enable-background:new 0 0 500 500;" xml:space="preserve">
<style type="text/css">
	.st0{fill:#B2B2B2;}
</style>
<g>
	<path class="st0" d="M283.04,474.45c-6.48-1.86-10.97-5.29-14.7-10.38c-4.07-5.56-5.84-11.69-4.82-18.54
		c2.18-14.65,4.33-29.3,6.59-43.94c2.11-13.67,3.96-27.39,6.67-40.94c1.77-8.83,8.01-14.41,16.44-17.42c1.95-0.7,3.96-1.2,6.35-1.92
		c1.06-5.92,2.09-11.81,3.18-17.68c2.11-11.39,4.31-22.76,6.36-34.15c1.33-7.41,2.39-14.88,3.71-22.29
		c1.32-7.41,2.92-14.77,4.23-22.18c1.08-6.14,1.86-12.34,2.91-18.49c0.36-2.09-0.52-3.14-2.22-3.93
		c-12.85-6.05-25.66-12.2-38.56-18.14c-6.84-3.15-12.2-8.22-17.84-12.95c-6.39-5.36-12.77-10.73-19.72-16.58
		c-1.85,5.31-3.56,9.98-5.1,14.7c-2.95,9.02-5.76,18.09-8.72,27.11c-2.65,8.1-5.29,16.2-8.2,24.21c-1.07,2.96,0.76,4.56,2.19,6.28
		c6.86,8.24,13.87,16.36,20.79,24.56c2.42,2.87,4.78,5.79,7.04,8.79c2.38,3.17,3.1,6.75,2.4,10.7c-0.34,1.9-0.27,3.89-0.28,5.85
		c-0.05,21.57-0.06,43.13-0.15,64.7c-0.01,2.35-0.46,4.71-0.76,7.59c4.15,0,8.41,0,13.46,0c-1.49,9.36-2.82,18.07-5.12,26.64
		c-1.53,0.1-2.63,0.23-3.74,0.23c-74.64,0.01-149.28,0-223.92,0.03c-4.98,0-9.02-1.8-12-5.69c-3.15-4.11-3.6-8.78-1.62-13.49
		c2.19-5.19,6.35-7.97,11.93-8.55c1.39-0.15,2.8-0.06,4.2-0.06c29.13,0,58.25,0,87.38,0c1.65,0,3.3,0,5.12,0
		c-0.42-11.27,4.81-20.64,7.71-30.6c2.53-8.69,5.77-17.18,8.68-25.76c3.18-9.39,6.35-18.77,9.48-28.17
		c2.02-6.09,3.93-12.22,5.93-18.32c0.65-1.97,1.43-3.89,2.31-6.25c1.14,0.68,2.09,0.97,2.65,1.6c7.52,8.57,14.94,17.23,22.5,25.77
		c2.15,2.43,2.13,4.69,1.11,7.65c-3.86,11.2-7.41,22.5-11.13,33.75c-3.06,9.27-6.23,18.5-9.27,27.78c-1.28,3.9-2.33,7.88-3.62,12.28
		c18.48,0,36.2,0,53.62,0c0-11.01,0-21.99,0-32.98c0-11.2-0.05-22.41,0.04-33.61c0.02-2.82-0.76-4.94-2.73-7.1
		c-11.1-12.11-22.01-24.41-33.02-36.6c-1.11-1.23-2.4-2.35-3.74-3.32c-10.82-7.81-14.09-21.49-9.45-34.02
		c4.99-13.48,9.13-27.27,13.71-40.9c4.14-12.31,8.25-24.63,12.62-36.86c2.24-6.26,6.82-9.96,13.62-10.78
		c7.27-0.87,14.49-1.15,21.76,0.05c5.09,0.84,9.69,2.84,13.57,6.06c13.82,11.45,27.56,22.98,41.14,34.7
		c3.98,3.44,8.45,5.79,13.07,8.04c9.25,4.5,18.5,9.02,28.49,13.89c3.92-22.62,7.76-44.77,11.61-66.98
		c-18.65,8.91-36.91,17.64-55.47,26.51c-9.13-7.98-17.88-15.62-27.35-23.9c3.52-1.29,6.26-2.46,9.09-3.31
		c6.14-1.85,12.46-3.17,18.45-5.41c6.63-2.48,13.03-5.6,19.41-8.7c9.25-4.48,18.39-9.21,27.58-13.8c5.97-2.98,11.91-6.03,17.96-8.83
		c5.89-2.72,12.72-1.62,17.46,2.76c5.89,5.44,5.25,18.96-5.43,23.29c-4.01,1.63-6.28,3.79-6.9,8.35
		c-1.59,11.61-3.55,23.18-5.61,34.72c-2.23,12.5-4.75,24.94-7.14,37.41c-0.29,1.49-0.59,2.98-0.91,4.65
		c1.12,0.65,2.05,1.21,2.99,1.75c4.41,2.55,7.52,6.13,8.97,11.09c2.38,8.15-4.6,16.88-13.08,16.37c-0.82-0.05-1.65,0.09-3.05,0.18
		c-0.55,2.49-1.23,5.01-1.66,7.57c-1.63,9.76-3.17,19.53-4.77,29.3c-1.26,7.71-2.46,15.44-3.86,23.13
		c-2.01,10.98-4.28,21.91-6.25,32.89c-1.23,6.84-2.11,13.73-3.08,20.13c3.47,2.42,6.71,4.14,9.28,6.57
		c6.34,6.02,9.2,13.42,7.81,22.29c-1.9,12.13-3.62,24.29-5.46,36.44c-1.63,10.76-3.23,21.53-5.03,32.27
		c-0.99,5.9-2.02,11.82-3.62,17.57c-1.73,6.22-6.26,10.13-11.92,13.23C302.86,473.81,291.82,476.97,283.04,474.45z"/>
	<path class="st0" d="M281.79,82.96c-0.16,19.91-15.95,35.54-35.92,35.44c-19.08-0.09-34.49-13.65-34.27-36.13
		c0.21-21.95,15.69-35.06,34.31-35.35C265.78,46.6,281.45,61.19,281.79,82.96z"/>
	<path class="st0" d="M339.56,396.22c0.31-1.93,0.54-3.41,0.8-4.89c0.93-5.21,1.92-10.42,2.81-15.63c0.98-5.71,1.01-5.78,7.01-5.78
		c26.72,0,53.45-0.04,80.17,0.04c4.71,0.01,14.14,0,14.14,0s26.29,0.22,28.74,0.69c5.39,1.03,10.57,8.5,10.03,13.89
		c-0.61,6.11-6.15,11.71-12.15,11.83c-8.11,0.17-16.22-0.02-24.33-0.04c-5.59-0.01-11.17-0.01-16.76,0
		c-28.81,0.06-57.62,0.12-86.43,0.16C342.48,396.5,341.38,396.35,339.56,396.22z"/>
</g>
</svg>
