<?xml version="1.0" encoding="utf-8"?>
<!-- Generator: Adobe Illustrator 25.2.3, SVG Export Plug-In . SVG Version: 6.00 Build 0)  -->
<svg version="1.1" id="Capa_1" xmlns="http://www.w3.org/2000/svg" xmlns:xlink="http://www.w3.org/1999/xlink" x="0px" y="0px"
	 viewBox="0 0 124.9 50" style="enable-background:new 0 0 124.9 50;" xml:space="preserve">
<style type="text/css">
	.st0{fill:#B2B2B2;}
</style>
<g>
	<path class="st0" d="M39,22.1c0-2,0.1-3.8,0-5.6c0-1,0.4-1.5,1.3-1.6c2.9-0.3,5.9-1,8.4,1.4c0.2,0.2,0.4,0.3,0.6,0.4
		c1.5,1,1.7,1,2.8-0.4c0.5-0.7,1-1.3,1.6-2c0.6-0.7,1.6-1,2.2-0.2c0.9,1.3,1.9,0.8,3,0.5c1-0.3,2.1-0.8,3.1-0.7c2,0.2,3.3-0.9,4.7-2
		c0.5-0.4,0.9-1,1.5-1.5c2.3-2.1,4.7-2.2,7-0.1c1.6,1.5,3.3,2.9,4.7,4.6c1.3,1.6,2.9,2,4.8,2c12.2-0.1,24.1,1.7,36,4.3
		c0.2,0,0.4,0.2,0.7,0.3c0.1,1.3-0.5,2.5-1.1,3.6c-2.1,3.9-4.7,7.3-8.2,10c-1.7,1.3-3.3,2.7-5,4c-1,0.7-2,1.4-3.2,1.7
		c-4.7,1.6-9.4,3-14.3,3.5c-3.1,0.3-6.1,1.1-9.2,1.4c-5.3,0.5-10.6,1-15.9,1.3c-8.4,0.4-16.9,0.9-25.4,1
		c-11.1,0.1-22.1-0.2-33.2-0.3c-2.6,0-2.9-0.4-2.9-2.9c0-1,0.1-2,0-3c-0.2-2.6,0.9-4.1,3.2-5.2c4.8-2.2,9.4-4.7,14.2-6.8
		c5.1-2.3,10.4-4.3,15.6-6.4C36.9,23.1,37.9,22.7,39,22.1z M119.5,23.7c-0.1-0.1-0.3-0.3-0.4-0.4c-0.7,0.2-1.4,0.5-2.1,0.7
		c-4.5,1.5-9.1,3.2-13.7,4.5c-11.2,3.2-22.6,5.5-34.2,7c-8.1,1.1-16.3,1.9-24.4,2.5c-3.7,0.3-7.4,0.3-11.1,0.3
		c-5.6,0.1-11.2,0.2-16.9,0.2c-2.8,0-5.6-0.1-8.4-0.1c-2.6,0.1-3.5,1.2-3.1,4.1c0.5,0.1,1,0.1,1.5,0.2c4.3,0.2,8.7,0.4,13,0.4
		c6.8-0.1,13.6-0.3,20.5-0.5c4.7-0.2,9.4-0.5,14.1-0.9c4.9-0.4,9.8-0.9,14.8-1.4c2.7-0.3,5.4-0.6,8.1-1c3.3-0.5,6.6-1.2,9.9-1.8
		c2.5-0.5,5.1-0.8,7.6-1.4c3.5-0.8,6.9-1.8,10.3-2.8c3.3-1,6.6-2,9.8-3.1c0.7-0.3,1.5-0.8,2-1.4C117.7,27.2,118.6,25.4,119.5,23.7z
		 M68.6,25c-0.4-0.8-0.7-1.4-1-1.9c-1.1-1.7-2.2-3.5-3.3-5.2c-1.5-2.6-1.5-2.6-4.5-2c-3,0.6-5.9,1.3-7.6,4.3
		c-0.7,1.3-1.2,1.2-2.7,0.4c-0.3-0.2-0.5-0.4-0.8-0.5c-0.7-0.2-1.3,0-1.3,0.8c-0.1,1.5,0,3,0,4.6C54.7,25.4,61.5,25.2,68.6,25z
		 M70.5,24.6c2-1.2,3.9-2.1,5.5-3.4c1.1-0.8,1.9-2,2.7-3.1c0.3-0.4,0.4-1.3,0.1-1.6c-1.8-2.4-4-4.6-6.7-6c-1-0.5-1.7-0.3-2.5,0.4
		c-1.5,1.5-3,2.9-4.8,4.5C66.6,18.4,68.4,21.4,70.5,24.6z M39,26c-0.1-0.8-0.1-1.4-0.2-2.1c-1.6,0.7-3,1.3-4.3,2
		c0,0.1,0.1,0.3,0.1,0.4C36,26.2,37.3,26.1,39,26z"/>
	<path class="st0" d="M42.6,5.1c1.9,0,3.9,2.2,3.8,4.1c-0.1,1.9-2.1,4-4,3.9c-2-0.1-3.7-1.8-3.7-3.8C38.8,6.6,40.2,5.1,42.6,5.1z"/>
</g>
</svg>
