<?xml version="1.0" encoding="utf-8"?>
<!-- Generator: Adobe Illustrator 25.2.3, SVG Export Plug-In . SVG Version: 6.00 Build 0)  -->
<svg version="1.1" id="Capa_1" xmlns="http://www.w3.org/2000/svg" xmlns:xlink="http://www.w3.org/1999/xlink" x="0px" y="0px"
	 viewBox="0 0 80.6 79.1" style="enable-background:new 0 0 80.6 79.1;" xml:space="preserve">
<style type="text/css">
	.st0{fill:#B2B2B2;}
</style>
<g>
	<g>
		<path class="st0" d="M69.8,22.6c-1.9,0.1-3.6-0.5-5.2-1.4c-1.1-0.7-2.3-1.2-3.6-1.3c-1.8-0.2-3.5,0.1-5.1,1
			c-0.9,0.5-1.8,1-2.7,1.3c-2.7,0.8-5.4,0.6-7.9-0.8c-0.3-0.2-0.6-0.3-0.9-0.5c-2.7-1.5-5.4-1.5-8.1-0.1c-1,0.5-2,1.1-3.1,1.4
			c-2.6,0.7-5.1,0.5-7.5-0.8c-0.5-0.3-0.9-0.6-1.4-0.8c-2.5-1.2-5-1.2-7.5,0.1c-0.8,0.4-1.6,0.9-2.4,1.3c-1,0.5-2.1,0.7-3.3,0.6
			c-1.1,0-2.1,0.1-3.2-0.4c-0.8-0.4-1.7-0.6-2.5-1.1c-1.4-0.8-2.9-1.4-4.5-1.4c-0.6,0-1-0.4-1-0.9c0-0.5,0.4-0.9,1-0.9
			c1.5,0,2.9,0.3,4.3,1c0.6,0.3,1.2,0.6,1.7,1c1.1,0.6,2.3,0.8,3.5,0.9c1.1,0,2.1-0.2,3.1-0.5c0.3-0.1,0.6-0.3,0.9-0.5
			c3.7-2.4,7.4-2.7,11.2-0.4c2,1.2,4,1.6,6.3,1.2c1.1-0.2,2.1-0.8,3.1-1.3c0.9-0.5,1.9-0.9,2.9-1.2c2.6-0.6,5.1-0.2,7.4,1.1
			c1,0.6,1.9,1.1,3.1,1.3c2.1,0.3,4,0.1,5.9-1c1.1-0.6,2.1-1.2,3.4-1.5c2.7-0.5,5.3-0.2,7.6,1.3c2.1,1.3,4.4,1.7,6.7,1
			c0.9-0.2,1.7-0.7,2.5-1.1c1.5-0.8,3-1.4,4.7-1.4c0.2,0,0.4,0,0.6,0c0.5,0.1,0.8,0.5,0.8,0.9c0,0.5-0.3,0.8-0.8,0.8
			c-0.6,0.1-1.2,0.1-1.8,0.2c-1.1,0.2-2,0.7-2.9,1.2C73.5,22.1,71.7,22.6,69.8,22.6z"/>
	</g>
	<g>
		<path class="st0" d="M70.1,77.3c-0.3-0.1-0.6-0.1-0.9-0.2c-2.7-0.8-5.4-1.5-8-2.3c-0.6-0.2-1.3-0.6-1.8-1c-2-1.6-3.9-3.2-5.8-4.9
			c-0.3-0.2-0.6-0.4-0.9-0.5c-5.3-1.6-10.7-3.2-16.1-4.9c-1.3-0.4-2.4-1.1-3.4-2.2c-2.8-3.3-5.6-6.6-8.4-9.9
			c-0.7-0.8-1.1-1.7-1.4-2.6c-1.1-4-2.3-7.9-3.4-11.9c-0.4-1.4-1.3-2.4-2.6-3c-2.5-1.1-5-2.1-7.5-3.2c-0.1,0-0.2-0.1-0.3-0.1
			c-0.1-0.2-0.2-0.4-0.3-0.6c0.2-0.1,0.4-0.2,0.6-0.3c0.1,0,0.2,0,0.3,0c3.5,0.9,7,1.9,10.5,2.8c1.4,0.4,2.3,1.2,2.8,2.7
			c1.1,3.2,2.3,6.3,3.5,9.5c0.3,0.9,0.8,1.7,1.5,2.4c2.4,2.4,4.7,4.9,7.1,7.4c0.2,0.2,0.5,0.4,0.8,0.5c4.1,1.2,8.1,2.3,12.2,3.5
			c1.4,0.4,2.6,1.1,3.6,2.1c2.9,3,5.9,6,8.8,9c1.1,1.1,2.3,2.1,3.7,2.7c1.8,0.8,3.5,1.8,5.3,2.7c0.3,0.2,0.6,0.4,0.9,0.6
			c0.3,0.3,0.5,0.7,0.3,1.2C70.9,77.2,70.5,77.3,70.1,77.3z"/>
		<path class="st0" d="M32.1,49.2C31,48,29.9,47,28.9,45.9c-0.6-0.7-0.7-1.5-0.5-2.4c0.4-1.8,0.7-3.7,1.1-5.6c0.3-1.5,0-2.8-1-4
			c-1.7-2.1-3.4-4.2-5-6.3c-0.1-0.1-0.2-0.2-0.2-0.3c0-0.1,0-0.3,0.1-0.4c0.1-0.1,0.3-0.2,0.4-0.1c0.2,0,0.3,0.2,0.5,0.3
			c2.7,2.5,5.4,5,8,7.6c0.5,0.5,0.8,1.2,1.2,1.9c0.1,0.3,0.1,0.6,0.1,0.9c-0.4,3.7-0.8,7.4-1.3,11C32.2,48.6,32.1,48.8,32.1,49.2z"
			/>
		<path class="st0" d="M48.1,57.1c-0.8-0.2-1.6-0.4-2.4-0.6c-2.2-0.6-4.4-1.2-6.6-1.9c-1.2-0.3-1.4-0.7-1.1-2
			c0.2-0.8,0.5-1.7,0.7-2.5c0.2-0.7,0.7-1,1.4-0.8c3,0.8,6.1,1.7,9.1,2.6c0.1,0,0.1,0.1,0.2,0.1C49.1,53.7,48.6,55.4,48.1,57.1z"/>
		<path class="st0" d="M58.1,65c-1.5-1.5-2.9-2.9-4.3-4.4c0.3-0.4,0.5-0.9,0.8-1.3c0.8-1.4,1.7-1.8,3.2-1.5c1.6,0.3,2.6,1.3,2.7,2.8
			C60.8,62.4,59.8,64.1,58.1,65z"/>
		<path class="st0" d="M48.9,57.3c0.5-1.7,0.9-3.4,1.4-5.1c1.4,0.2,2.5,0.7,2.9,2.1c0.4,1.1,0.1,2.1-0.8,2.8
			C51.3,58,50.1,57.9,48.9,57.3z"/>
	</g>
	<circle class="st0" cx="63.4" cy="56" r="1.9"/>
	<ellipse transform="matrix(0.2311 -0.9729 0.9729 0.2311 5.2062 93.0698)" class="st0" cx="61.5" cy="43.2" rx="2.6" ry="2.6"/>
	<circle class="st0" cx="68.2" cy="31" r="2.8"/>
</g>
<g>
	<path class="st0" d="M11.1,6.8c0-1.1,0.4-2.1,1-3c0.7-0.9,1.6-1.5,2.8-1.7c0.2,0,0.4-0.1,0.6-0.1c0.1,0,0.2,0.1,0.1,0.2
		c-0.2,0.6-0.4,1.2-0.4,1.8c0,1.1,0.4,2.2,1.1,3c0.5,0.5,1,0.9,1.6,1.2c0.5,0.2,1,0.3,1.5,0.3c0.2,0,0.3,0,0.5,0
		c0.1,0,0.2,0.1,0.1,0.2c-0.3,0.6-0.7,1.2-1.2,1.6c-0.5,0.5-1.1,0.8-1.7,1c-0.6,0.2-1.3,0.3-1.9,0.2c-0.8-0.1-1.5-0.3-2.1-0.8
		c-0.7-0.4-1.2-1-1.6-1.8c-0.3-0.5-0.4-1.1-0.5-1.7C11.1,7.2,11.1,7,11.1,6.8z"/>
</g>
</svg>
