<?xml version="1.0" encoding="utf-8"?>
<!-- Generator: Adobe Illustrator 25.2.3, SVG Export Plug-In . SVG Version: 6.00 Build 0)  -->
<svg version="1.1" id="Capa_1" xmlns="http://www.w3.org/2000/svg" xmlns:xlink="http://www.w3.org/1999/xlink" x="0px" y="0px"
	 viewBox="0 0 80.6 67.9" style="enable-background:new 0 0 80.6 67.9;" xml:space="preserve">
<style type="text/css">
	.st0{fill:#B2B2B2;}
</style>
<g>
	<g>
		<path class="st0" d="M69.8,11.3c-1.9,0.1-3.6-0.5-5.2-1.4c-1.1-0.7-2.3-1.2-3.6-1.3c-1.8-0.2-3.5,0.1-5.1,1
			c-0.9,0.5-1.8,1-2.7,1.3c-2.7,0.8-5.4,0.6-7.9-0.8c-0.3-0.2-0.6-0.3-0.9-0.5c-2.7-1.5-5.4-1.5-8.1-0.1c-1,0.5-2,1.1-3.1,1.4
			c-2.6,0.7-5.1,0.5-7.5-0.8c-0.5-0.3-0.9-0.6-1.4-0.8c-2.5-1.2-5-1.2-7.5,0.1c-0.8,0.4-1.6,0.9-2.4,1.3c-1,0.5-2.1,0.7-3.3,0.6
			c-1.1,0-2.1,0.1-3.2-0.4c-0.8-0.4-1.7-0.6-2.5-1.1C4.1,9,2.6,8.5,1,8.5c-0.6,0-1-0.4-1-0.9C0,7,0.4,6.7,1,6.7c1.5,0,2.9,0.3,4.3,1
			C5.9,8,6.4,8.3,7,8.6c1.1,0.6,2.3,0.8,3.5,0.9c1.1,0,2.1-0.2,3.1-0.5C14,9,14.3,8.8,14.6,8.6c3.7-2.4,7.4-2.7,11.2-0.4
			c2,1.2,4,1.6,6.3,1.2c1.1-0.2,2.1-0.8,3.1-1.3c0.9-0.5,1.9-0.9,2.9-1.2c2.6-0.6,5.1-0.2,7.4,1.1c1,0.6,1.9,1.1,3.1,1.3
			c2.1,0.3,4,0.1,5.9-1c1.1-0.6,2.1-1.2,3.4-1.5c2.7-0.5,5.3-0.2,7.6,1.3c2.1,1.3,4.4,1.7,6.7,1c0.9-0.2,1.7-0.7,2.5-1.1
			c1.5-0.8,3-1.4,4.7-1.4c0.2,0,0.4,0,0.6,0c0.5,0.1,0.8,0.5,0.8,0.9c0,0.5-0.3,0.8-0.8,0.8c-0.6,0.1-1.2,0.1-1.8,0.2
			c-1.1,0.2-2,0.7-2.9,1.2C73.5,10.9,71.7,11.4,69.8,11.3z"/>
	</g>
	<g>
		<path class="st0" d="M70.1,66c-0.3-0.1-0.6-0.1-0.9-0.2c-2.7-0.8-5.4-1.5-8-2.3c-0.6-0.2-1.3-0.6-1.8-1c-2-1.6-3.9-3.2-5.8-4.9
			c-0.3-0.2-0.6-0.4-0.9-0.5c-5.3-1.6-10.7-3.2-16.1-4.9c-1.3-0.4-2.4-1.1-3.4-2.2c-2.8-3.3-5.6-6.6-8.4-9.9
			c-0.7-0.8-1.1-1.7-1.4-2.6c-1.1-4-2.3-7.9-3.4-11.9c-0.4-1.4-1.3-2.4-2.6-3c-2.5-1.1-5-2.1-7.5-3.2c-0.1,0-0.2-0.1-0.3-0.1
			c-0.1-0.2-0.2-0.4-0.3-0.6c0.2-0.1,0.4-0.2,0.6-0.3c0.1,0,0.2,0,0.3,0c3.5,0.9,7,1.9,10.5,2.8c1.4,0.4,2.3,1.2,2.8,2.7
			c1.1,3.2,2.3,6.3,3.5,9.5c0.3,0.9,0.8,1.7,1.5,2.4c2.4,2.4,4.7,4.9,7.1,7.4c0.2,0.2,0.5,0.4,0.8,0.5c4.1,1.2,8.1,2.3,12.2,3.5
			c1.4,0.4,2.6,1.1,3.6,2.1c2.9,3,5.9,6,8.8,9c1.1,1.1,2.3,2.1,3.7,2.7c1.8,0.8,3.5,1.8,5.3,2.7c0.3,0.2,0.6,0.4,0.9,0.6
			c0.3,0.3,0.5,0.7,0.3,1.2C70.9,65.9,70.5,66,70.1,66z"/>
		<path class="st0" d="M32.1,37.9c-1.1-1.2-2.2-2.2-3.1-3.3c-0.6-0.7-0.7-1.5-0.5-2.4c0.4-1.8,0.7-3.7,1.1-5.6c0.3-1.5,0-2.8-1-4
			c-1.7-2.1-3.4-4.2-5-6.3c-0.1-0.1-0.2-0.2-0.2-0.3c0-0.1,0-0.3,0.1-0.4c0.1-0.1,0.3-0.2,0.4-0.1c0.2,0,0.3,0.2,0.5,0.3
			c2.7,2.5,5.4,5,8,7.6c0.5,0.5,0.8,1.2,1.2,1.9c0.1,0.3,0.1,0.6,0.1,0.9c-0.4,3.7-0.8,7.4-1.3,11C32.2,37.3,32.1,37.6,32.1,37.9z"
			/>
		<path class="st0" d="M48.1,45.8c-0.8-0.2-1.6-0.4-2.4-0.6c-2.2-0.6-4.4-1.2-6.6-1.9c-1.2-0.3-1.4-0.7-1.1-2
			c0.2-0.8,0.5-1.7,0.7-2.5c0.2-0.7,0.7-1,1.4-0.8c3,0.8,6.1,1.7,9.1,2.6c0.1,0,0.1,0.1,0.2,0.1C49.1,42.4,48.6,44.1,48.1,45.8z"/>
		<path class="st0" d="M58.1,53.8c-1.5-1.5-2.9-2.9-4.3-4.4c0.3-0.4,0.5-0.9,0.8-1.3c0.8-1.4,1.7-1.8,3.2-1.5
			c1.6,0.3,2.6,1.3,2.7,2.8C60.8,51.1,59.8,52.9,58.1,53.8z"/>
		<path class="st0" d="M48.9,46c0.5-1.7,0.9-3.4,1.4-5.1c1.4,0.2,2.5,0.7,2.9,2.1c0.4,1.1,0.1,2.1-0.8,2.8
			C51.3,46.8,50.1,46.6,48.9,46z"/>
	</g>
	<circle class="st0" cx="63.4" cy="44.7" r="1.9"/>
	<ellipse transform="matrix(0.2311 -0.9729 0.9729 0.2311 16.1513 84.42)" class="st0" cx="61.5" cy="32" rx="2.6" ry="2.6"/>
	<circle class="st0" cx="68.2" cy="19.7" r="2.8"/>
</g>
</svg>
