<?xml version="1.0" encoding="utf-8"?>
<!-- Generator: Adobe Illustrator 25.2.3, SVG Export Plug-In . SVG Version: 6.00 Build 0)  -->
<svg version="1.1" id="Capa_1" xmlns="http://www.w3.org/2000/svg" xmlns:xlink="http://www.w3.org/1999/xlink" x="0px" y="0px"
	 viewBox="0 0 78.9 50" style="enable-background:new 0 0 78.9 50;" xml:space="preserve">
<style type="text/css">
	.st0{fill:#B2B2B2;}
</style>
<g>
	<path class="st0" d="M7.9,45.2c-1.4-2.5-2.8-4.8-4.2-7.3c0.7-0.3,1.2-0.5,1.8-0.8c7.3-3.1,14.7-6.2,22-9.3c0.5-0.2,1-0.6,1.3-1
		c2-2.1,4-4.3,5.9-6.5c1.2-1.4,2.7-2,4.6-2c4,0.1,8,0.1,12,0c2,0,3.5,0.7,4.4,2.5c1.2,2.3,2.5,4.5,3.8,6.7c0.2,0.4,0.7,0.8,1.2,1
		c2.7,1.1,5.5,2.2,8.2,3.4c1.2,0.5,1.7,1.3,1.6,2.4c-0.2,1.4-1.5,2.1-3.1,1.6c-2.7-0.8-5.4-1.8-8.2-2.5c-1.8-0.5-3.2-1.3-4.3-2.9
		c-0.8-1.1-1.7-2.2-2.6-3.2c-0.4-0.4-1-0.8-1.5-0.8c-3.5-0.2-7-0.3-10.5-0.3c-0.5,0-1,0.2-1.4,0.5c-2.1,1.7-4.1,3.6-6.2,5.3
		c-0.7,0.6-1.5,1-2.4,1.3c-3.9,1.2-7.9,2.4-11.9,3.5c-1.8,0.5-3.1,1.9-4.5,3C12.1,41.5,10.1,43.3,7.9,45.2z"/>
	<path class="st0" d="M48.6,12.9c-1.4,0.8-2.5,1.5-3.8,2.1c-2.5,1.1-5.1,1.5-7.6,0.1c-0.7-0.4-1.4-0.9-1.9-1.5
		c-0.5-0.6-0.8-0.7-1.4-0.2c-1.7,1.3-3.6,2.2-5.7,2.5c-2.7,0.4-5-0.3-6.8-2.5c-0.5-0.7-0.9-0.4-1.4-0.1c-2.3,1.6-4.9,2.5-7.7,2.1
		c-2.3-0.4-4-1.5-4.9-3.9c-2.2,1.6-4.4,2.9-7,2.7c-0.1-0.1-0.1-0.2-0.2-0.3c0.2-0.2,0.4-0.5,0.7-0.6c3.4-0.5,5.8-2.5,7.6-5.4
		C8.5,8,8.6,8,8.7,7.8c0,0.2,0.1,0.3,0.1,0.5c0,3.8,2.9,5.8,6.7,4.9c2.5-0.6,4.5-2,5.9-4.1c0.3-0.4,0.6-0.9,1-1.4
		c0.1,0.3,0.2,0.5,0.2,0.7c-0.2,3.1,2.3,5.8,6.6,4.8c2.7-0.6,4.8-2.2,6.3-4.6c0.2-0.3,0.4-0.6,0.7-1c0.1,0.3,0.2,0.5,0.2,0.6
		c-0.2,3.5,2.5,5.9,6.7,5c2.5-0.6,4.4-2,5.9-4.1c0.3-0.4,0.6-0.9,1-1.5c0.1,0.4,0.2,0.6,0.2,0.8c-0.1,3.8,3.2,5.7,6.7,4.8
		c2.6-0.6,4.5-2.1,6-4.3c0.3-0.4,0.5-0.7,0.9-1.1c0,2.2,0.6,4.1,2.7,5.1c1.4,0.7,2.8,0.7,4.4,0.3c0-1.8,0-3.5,0-5.3
		c0.5,0,0.9,0,1.4,0c0,1.5,0,3,0,4.6c1.4-0.2,1.7-0.5,5.3-4.7c0,0.4,0.1,0.7,0.1,1c0.1,2.4,1.4,3.9,3.7,4.5c0.3,0.1,0.6,0.3,0.9,0.5
		c-0.4,0.1-0.8,0.4-1.1,0.4c-1.9-0.1-3.4-1-4.4-2.6c-1.4,0.9-2.8,1.8-4.1,2.7c-0.2,0.1-0.3,0.5-0.3,0.8c0,1.8,0,3.6,0,5.3
		c0,3.2-2.5,5.3-5.7,4.9c-0.4,0-0.8,0-1.1,0.2c-2.3,1.1-4.8,0.5-6.2-1.5c-1.4-1.9-1.2-4.5,0.4-6.2c1.6-1.7,4.3-2,6.3-0.7
		c2,1.4,2.7,3.8,1.6,6.1c-0.1,0.2-0.1,0.3-0.2,0.5c1.7,0.2,3.2-1.1,3.3-2.9c0.1-2,0-3.9,0-5.7c-1.5,0-2.9,0.1-4.3,0
		c-1.4-0.1-2.7-0.8-3.6-1.9c-0.4-0.5-0.8-0.6-1.3-0.1c-1.7,1.3-3.6,2.2-5.7,2.6c-2.9,0.5-5.3-0.3-7.1-2.6
		C48.7,13.1,48.6,13,48.6,12.9z"/>
	<path class="st0" d="M28.6,26.3c-0.4,0.3-0.9,0.7-1.4,0.9c-1.8,0.8-3.7,1.6-5.5,2.3c-0.4,0.2-1,0.2-1.4,0.1
		c-3.2-1.5-6.4-1.2-9.6,0.1c-1.9,0.8-3.9,1.3-6,1.9c-0.2-1.2-0.4-2.4-0.6-3.5C4,27,3.8,25.8,3.6,24.5c1.6-0.1,3.2-0.3,4.8-0.4
		c1.8-0.2,3.7-0.4,5.5-0.4c1.8,0,3.5,0.3,5.3,0.6c3.1,0.5,6.2,1.2,9.3,1.7C28.6,26.1,28.6,26.2,28.6,26.3z"/>
</g>
</svg>
