<?xml version="1.0" encoding="utf-8"?>
<!-- Generator: Adobe Illustrator 26.2.1, SVG Export Plug-In . SVG Version: 6.00 Build 0)  -->
<svg version="1.1" id="Capa_1" xmlns="http://www.w3.org/2000/svg" xmlns:xlink="http://www.w3.org/1999/xlink" x="0px" y="0px"
	 viewBox="0 0 14.5 14.5" style="enable-background:new 0 0 14.5 14.5;" xml:space="preserve">
<style type="text/css">
	.st0{fill-rule:evenodd;clip-rule:evenodd;fill:#CD5416;}
</style>
<g>
	<g>
		<path class="st0" d="M11.9,2c-0.3,0.3-0.5,0.5-0.7,0.8C10.6,2.4,10,2,9.4,1.7C5.2,0,0.7,3.5,1.3,8c0.4,2.7,2.5,4.8,5.2,5.1
			c3.2,0.4,6.3-1.9,6.6-5.2c0.1-0.6,0-1.2,0-1.8c0-0.1,0-0.2,0-0.3c0.3-0.3,0.5-0.5,0.8-0.8c0.8,1.9,0.5,5.6-2.5,7.8
			c-3,2.3-7.4,1.7-9.7-1.3c-2.4-2.9-2-7.3,0.8-9.7C5.4-0.6,9.6-0.3,11.9,2z"/>
		<path class="st0" d="M7,8.4c0.1-0.2,0.2-0.2,0.3-0.3c1.5-2,3.2-3.8,5-5.6C12.8,2,13.1,2,13.5,2.6c0.2,0.2,0.4,0.5,0.5,0.8
			c0.2,0.3,0.1,0.6-0.2,0.9C11.6,6.4,9.7,8.8,8,11.4c-0.3,0.5-0.7,0.6-1.2,0.1c-1.2-1.2-2.4-2.4-3.6-3.6C2.7,7.5,2.7,7,3.1,6.5
			C3.2,6.2,3.4,6,3.6,5.7c0.3-0.4,0.6-0.4,1,0c0.7,0.8,1.5,1.6,2.2,2.4C6.9,8.2,6.9,8.3,7,8.4z"/>
	</g>
</g>
</svg>
