<?xml version="1.0" encoding="utf-8"?>
<!-- Generator: Adobe Illustrator 26.1.0, SVG Export Plug-In . SVG Version: 6.00 Build 0)  -->
<svg version="1.1" id="Capa_1" xmlns="http://www.w3.org/2000/svg" xmlns:xlink="http://www.w3.org/1999/xlink" x="0px" y="0px"
	 viewBox="0 0 34 34" style="enable-background:new 0 0 34 34;" xml:space="preserve">
<style type="text/css">
	.st0{fill:#0A98D5;}
</style>
<g>
	<path class="st0" d="M4.2,33.8c-0.2,0-0.5-0.1-0.7-0.2C3,33.3,2.8,32.7,3,32.1c0.1-0.5,0.2-1.1,0.4-1.6l0.4-1.7
		c0.2-0.8,0.4-1.7,0.6-2.5c-1.7-2.2-2.8-4.7-3.2-7.4c-0.7-4.4,0.4-8.5,3.1-12c2.5-3.3,6-5.3,10.3-5.9c0.2,0,0.4-0.1,0.7-0.1l1.4-0.1
		C24,0.8,30.4,6,31.9,13.2c0.9,4.1,0.1,8.3-2.2,11.9c-2.3,3.5-5.8,5.9-10,6.8c-1.1,0.2-2.2,0.3-3.2,0.3c-2.1,0-4.1-0.4-6.1-1.3
		c-0.1,0-0.2-0.1-0.3-0.1c-0.1,0-0.1,0-0.3,0.1c-1,0.6-2.1,1.1-3.1,1.7l-1.8,1C4.7,33.7,4.5,33.8,4.2,33.8z M16.5,3.4
		c-1.6,0-3,0.3-4.4,0.8c-4.9,2-7.7,5.7-8.4,10.9c-0.3,2,0,4.1,0.8,6.2C5,22.6,5.8,23.9,6.7,25c0.3,0.4,0.4,0.8,0.3,1.2l-0.9,3.7
		l0.2-0.1c1-0.5,1.9-1,2.9-1.6c0.3-0.2,0.6-0.2,0.8-0.2c0.2,0,0.5,0.1,0.7,0.2c1.5,0.7,3.1,1.2,4.8,1.3c0.4,0,0.7,0,1.1,0
		c1.8,0,3.6-0.4,5.2-1.1c5.2-2.2,8.3-7.8,7.7-13.4c-0.3-3-1.6-5.6-3.7-7.7c-2.2-2.3-5-3.6-8.3-3.8C17.3,3.4,16.9,3.4,16.5,3.4z"/>
	<path class="st0" d="M16.7,5.3c0.7,0,1.4,0.2,2,0.7c0.4,0.3,0.6,0.7,0.6,1.3c-0.1,3.1-0.3,6.2-0.4,9.2c-0.1,1.4-0.1,2.8-0.2,4.2
		c0,1.1-0.6,1.8-1.6,2c-1.1,0.2-2.2-0.6-2.2-1.8c-0.1-2.3-0.2-4.5-0.3-6.8c-0.1-2.3-0.2-4.5-0.3-6.8c0-0.6,0.3-1.1,0.7-1.5
		C15.4,5.5,16,5.3,16.7,5.3z"/>
	<path class="st0" d="M16.6,27.5c-1.1,0-2-0.9-2-2.1c0-1.1,0.9-2,2.1-2c1.1,0,2.1,1,2,2.1C18.7,26.6,17.7,27.5,16.6,27.5z"/>
</g>
</svg>
