<?xml version="1.0" encoding="utf-8"?>
<!-- Generator: Adobe Illustrator 26.2.1, SVG Export Plug-In . SVG Version: 6.00 Build 0)  -->
<svg version="1.1" id="Capa_1" xmlns="http://www.w3.org/2000/svg" xmlns:xlink="http://www.w3.org/1999/xlink" x="0px" y="0px"
	 viewBox="0 0 14.5 14.5" style="enable-background:new 0 0 14.5 14.5;" xml:space="preserve">
<style type="text/css">
	.st0{fill-rule:evenodd;clip-rule:evenodd;fill:#CD5416;}
</style>
<g>
	<g>
		<path class="st0" d="M5.2,7.7C5,7.5,4.9,7.3,4.8,7.2c-0.5-0.7-1-1.4-1.4-2.1C3,4.6,3.1,4.2,3.5,3.7c0.2-0.2,0.4-0.4,0.6-0.5
			C4.6,2.9,4.9,3,5.2,3.4c0.5,0.7,1,1.5,1.5,2.2C6.8,5.7,6.9,5.8,7,5.9c0.1-0.1,0.2-0.1,0.3-0.2C8,5,8.8,4.3,9.6,3.7
			c0.4-0.4,0.9-0.3,1.3,0.1C11,4,11.2,4.1,11.3,4.3c0.2,0.4,0.1,0.8-0.2,1.2c-0.8,0.7-1.5,1.3-2.3,2c-0.2,0-0.3,0.1-0.4,0.1
			c0.1,0.1,0.2,0.2,0.3,0.3c0.6,0.7,1.2,1.3,1.9,2c0.4,0.4,0.4,0.8,0.1,1.2c-0.1,0.1-0.1,0.2-0.2,0.2c-0.6,0.7-1,0.7-1.7,0.1
			c-0.7-0.6-1.3-1.3-2-2C6.6,9.6,6.5,9.6,6.4,9.7c-0.9,1-1.8,2-2.6,3c-0.5,0.6-0.9,0.6-1.4,0.1c-0.6-0.6-0.6-1.1-0.1-1.8
			C3.2,10,4.1,9,5,8C5.1,7.9,5.1,7.8,5.2,7.7z"/>
		<path class="st0" d="M3.9,13.5c0.2-0.2,0.4-0.4,0.5-0.7c0.1-0.2,0.3-0.2,0.5-0.1c1.9,0.8,3.8,0.6,5.6-0.6c2.1-1.4,3-3.9,2.4-6.3
			s-2.6-4.1-5.1-4.4C4.1,1,1,4.1,1.4,7.8c0.1,0.8,0.3,1.6,0.7,2.3c0.1,0.1,0.1,0.2,0,0.4c-0.2,0.3-0.4,0.5-0.6,0.8
			C0,9.6-0.7,5.8,1.7,2.8s6.8-3.6,9.8-1.3s3.7,6.6,1.5,9.7C10.7,14.6,6.6,15,3.9,13.5z"/>
	</g>
</g>
</svg>
